<svg width="398" height="180" viewBox="0 0 398 180" fill="none" xmlns="http://www.w3.org/2000/svg">
<rect width="398" height="180" rx="25" fill="#271245"/>
<rect x="50.5" y="34.5" width="59" height="59" rx="29.5" fill="#271245"/>
<rect x="50.5" y="34.5" width="59" height="59" rx="29.5" stroke="#38419D"/>
<path d="M74 56.8003C72.5352 56.8047 71.7246 56.8397 71.0585 57.1193C70.1254 57.5109 69.3656 58.2343 68.9217 59.1536C68.5594 59.9039 68.5001 60.8653 68.3815 62.7879L68.1957 65.8008C67.9009 70.5821 67.7534 72.9727 69.1564 74.4863C70.5594 75.9997 72.923 75.9997 77.6503 75.9997H82.3497C87.077 75.9997 89.4406 75.9997 90.8436 74.4863C92.2466 72.9727 92.0991 70.5821 91.8043 65.8008L91.6184 62.7879C91.4998 60.8653 91.4406 59.9039 91.0783 59.1536C90.6344 58.2343 89.8746 57.5109 88.9416 57.1193C88.2754 56.8397 87.4647 56.8047 86 56.8003" stroke="white" stroke-width="1.5" stroke-linecap="round"/>
<path d="M86 58L84.937 55.3425C84.4784 54.196 84.0793 52.8953 82.8999 52.3115C82.2709 52 81.5139 52 80 52C78.4861 52 77.7291 52 77.1 52.3115C75.9207 52.8953 75.5216 54.196 75.063 55.3425L74 58" stroke="white" stroke-width="1.5" stroke-linecap="round" stroke-linejoin="round"/>
<path d="M84.1998 66.4002C84.1998 68.7198 82.3194 70.6002 79.9998 70.6002C77.6802 70.6002 75.7998 68.7198 75.7998 66.4002C75.7998 64.0806 77.6802 62.2002 79.9998 62.2002C82.3194 62.2002 84.1998 64.0806 84.1998 66.4002Z" stroke="white" stroke-width="1.5"/>
<path d="M80 56.7998H80.0108" stroke="white" stroke-width="2" stroke-linecap="round" stroke-linejoin="round"/>
<path d="M40.43 144C40.3347 144 40.261 143.974 40.209 143.922C40.157 143.861 40.131 143.788 40.131 143.701V135.212C40.131 135.117 40.157 135.043 40.209 134.991C40.261 134.93 40.3347 134.9 40.43 134.9H43.992C44.642 134.9 45.1707 135.008 45.578 135.225C45.994 135.433 46.2973 135.719 46.488 136.083C46.6873 136.447 46.787 136.854 46.787 137.305C46.787 137.66 46.7263 137.968 46.605 138.228C46.4923 138.479 46.3493 138.687 46.176 138.852C46.0027 139.008 45.8337 139.129 45.669 139.216C46.007 139.381 46.306 139.649 46.566 140.022C46.8347 140.395 46.969 140.845 46.969 141.374C46.969 141.851 46.8607 142.288 46.644 142.687C46.4273 143.086 46.1023 143.406 45.669 143.649C45.2443 143.883 44.7157 144 44.083 144H40.43ZM41.405 142.947H43.914C44.4773 142.947 44.9107 142.795 45.214 142.492C45.5173 142.189 45.669 141.816 45.669 141.374C45.669 140.915 45.5173 140.538 45.214 140.243C44.9107 139.94 44.4773 139.788 43.914 139.788H41.405V142.947ZM41.405 138.748H43.797C44.3517 138.748 44.772 138.622 45.058 138.371C45.344 138.111 45.487 137.76 45.487 137.318C45.487 136.876 45.344 136.538 45.058 136.304C44.772 136.07 44.3517 135.953 43.797 135.953H41.405V138.748ZM50.5566 144.13C50.1233 144.13 49.7289 144.043 49.3736 143.87C49.0183 143.697 48.7323 143.463 48.5156 143.168C48.2989 142.873 48.1906 142.54 48.1906 142.167C48.1906 141.569 48.4333 141.092 48.9186 140.737C49.4039 140.382 50.0366 140.148 50.8166 140.035L52.7536 139.762V139.385C52.7536 138.969 52.6323 138.644 52.3896 138.41C52.1556 138.176 51.7699 138.059 51.2326 138.059C50.8426 138.059 50.5263 138.137 50.2836 138.293C50.0496 138.449 49.8849 138.648 49.7896 138.891C49.7376 139.021 49.6466 139.086 49.5166 139.086H48.9316C48.8363 139.086 48.7626 139.06 48.7106 139.008C48.6673 138.947 48.6456 138.878 48.6456 138.8C48.6456 138.67 48.6933 138.51 48.7886 138.319C48.8926 138.128 49.0486 137.942 49.2566 137.76C49.4646 137.578 49.7289 137.426 50.0496 137.305C50.3789 137.175 50.7776 137.11 51.2456 137.11C51.7656 137.11 52.2033 137.179 52.5586 137.318C52.9139 137.448 53.1913 137.626 53.3906 137.851C53.5986 138.076 53.7459 138.332 53.8326 138.618C53.9279 138.904 53.9756 139.194 53.9756 139.489V143.701C53.9756 143.788 53.9453 143.861 53.8846 143.922C53.8326 143.974 53.7633 144 53.6766 144H53.0786C52.9833 144 52.9096 143.974 52.8576 143.922C52.8056 143.861 52.7796 143.788 52.7796 143.701V143.142C52.6669 143.298 52.5153 143.454 52.3246 143.61C52.1339 143.757 51.8956 143.883 51.6096 143.987C51.3236 144.082 50.9726 144.13 50.5566 144.13ZM50.8296 143.155C51.1849 143.155 51.5099 143.081 51.8046 142.934C52.0993 142.778 52.3289 142.54 52.4936 142.219C52.6669 141.898 52.7536 141.495 52.7536 141.01V140.646L51.2456 140.867C50.6303 140.954 50.1666 141.101 49.8546 141.309C49.5426 141.508 49.3866 141.764 49.3866 142.076C49.3866 142.319 49.4559 142.522 49.5946 142.687C49.7419 142.843 49.9239 142.96 50.1406 143.038C50.3659 143.116 50.5956 143.155 50.8296 143.155ZM58.446 144C57.9606 144 57.5663 143.909 57.263 143.727C56.9596 143.536 56.7386 143.272 56.6 142.934C56.4613 142.587 56.392 142.18 56.392 141.712V138.28H55.378C55.2913 138.28 55.2176 138.254 55.157 138.202C55.105 138.141 55.079 138.068 55.079 137.981V137.539C55.079 137.452 55.105 137.383 55.157 137.331C55.2176 137.27 55.2913 137.24 55.378 137.24H56.392V135.069C56.392 134.982 56.418 134.913 56.47 134.861C56.5306 134.8 56.6043 134.77 56.691 134.77H57.302C57.3886 134.77 57.458 134.8 57.51 134.861C57.5706 134.913 57.601 134.982 57.601 135.069V137.24H59.213C59.2996 137.24 59.369 137.27 59.421 137.331C59.4816 137.383 59.512 137.452 59.512 137.539V137.981C59.512 138.068 59.4816 138.141 59.421 138.202C59.369 138.254 59.2996 138.28 59.213 138.28H57.601V141.621C57.601 142.028 57.6703 142.349 57.809 142.583C57.9476 142.817 58.1946 142.934 58.55 142.934H59.343C59.4296 142.934 59.499 142.964 59.551 143.025C59.6116 143.077 59.642 143.146 59.642 143.233V143.701C59.642 143.788 59.6116 143.861 59.551 143.922C59.499 143.974 59.4296 144 59.343 144H58.446ZM61.2101 144C61.1234 144 61.0498 143.974 60.9891 143.922C60.9371 143.861 60.9111 143.788 60.9111 143.701V137.539C60.9111 137.452 60.9371 137.383 60.9891 137.331C61.0498 137.27 61.1234 137.24 61.2101 137.24H61.8211C61.9078 137.24 61.9771 137.27 62.0291 137.331C62.0898 137.383 62.1201 137.452 62.1201 137.539V138.111C62.3454 137.816 62.6271 137.578 62.9651 137.396C63.3118 137.205 63.7538 137.11 64.2911 137.11C64.8544 137.11 65.3311 137.236 65.7211 137.487C66.1198 137.73 66.4188 138.072 66.6181 138.514C66.8174 138.947 66.9171 139.454 66.9171 140.035V143.701C66.9171 143.788 66.8911 143.861 66.8391 143.922C66.7871 143.974 66.7178 144 66.6311 144H65.9811C65.8944 144 65.8208 143.974 65.7601 143.922C65.7081 143.861 65.6821 143.788 65.6821 143.701V140.1C65.6821 139.493 65.5348 139.021 65.2401 138.683C64.9454 138.336 64.5121 138.163 63.9401 138.163C63.4028 138.163 62.9694 138.336 62.6401 138.683C62.3194 139.021 62.1591 139.493 62.1591 140.1V143.701C62.1591 143.788 62.1288 143.861 62.0681 143.922C62.0161 143.974 61.9468 144 61.8601 144H61.2101ZM70.7059 144.13C70.2725 144.13 69.8782 144.043 69.5229 143.87C69.1675 143.697 68.8815 143.463 68.6649 143.168C68.4482 142.873 68.3399 142.54 68.3399 142.167C68.3399 141.569 68.5825 141.092 69.0679 140.737C69.5532 140.382 70.1859 140.148 70.9659 140.035L72.9029 139.762V139.385C72.9029 138.969 72.7815 138.644 72.5389 138.41C72.3049 138.176 71.9192 138.059 71.3819 138.059C70.9919 138.059 70.6755 138.137 70.4329 138.293C70.1989 138.449 70.0342 138.648 69.9389 138.891C69.8869 139.021 69.7959 139.086 69.6659 139.086H69.0809C68.9855 139.086 68.9119 139.06 68.8599 139.008C68.8165 138.947 68.7949 138.878 68.7949 138.8C68.7949 138.67 68.8425 138.51 68.9379 138.319C69.0419 138.128 69.1979 137.942 69.4059 137.76C69.6139 137.578 69.8782 137.426 70.1989 137.305C70.5282 137.175 70.9269 137.11 71.3949 137.11C71.9149 137.11 72.3525 137.179 72.7079 137.318C73.0632 137.448 73.3405 137.626 73.5399 137.851C73.7479 138.076 73.8952 138.332 73.9819 138.618C74.0772 138.904 74.1249 139.194 74.1249 139.489V143.701C74.1249 143.788 74.0945 143.861 74.0339 143.922C73.9819 143.974 73.9125 144 73.8259 144H73.2279C73.1325 144 73.0589 143.974 73.0069 143.922C72.9549 143.861 72.9289 143.788 72.9289 143.701V143.142C72.8162 143.298 72.6645 143.454 72.4739 143.61C72.2832 143.757 72.0449 143.883 71.7589 143.987C71.4729 144.082 71.1219 144.13 70.7059 144.13ZM70.9789 143.155C71.3342 143.155 71.6592 143.081 71.9539 142.934C72.2485 142.778 72.4782 142.54 72.6429 142.219C72.8162 141.898 72.9029 141.495 72.9029 141.01V140.646L71.3949 140.867C70.7795 140.954 70.3159 141.101 70.0039 141.309C69.6919 141.508 69.5359 141.764 69.5359 142.076C69.5359 142.319 69.6052 142.522 69.7439 142.687C69.8912 142.843 70.0732 142.96 70.2899 143.038C70.5152 143.116 70.7449 143.155 70.9789 143.155ZM75.9287 144.975C75.8594 144.975 75.8031 144.949 75.7597 144.897C75.7251 144.845 75.7121 144.78 75.7207 144.702L76.0197 142.843C76.0371 142.739 76.0717 142.652 76.1237 142.583C76.1844 142.505 76.2711 142.466 76.3837 142.466H77.2547C77.3154 142.466 77.3631 142.488 77.3977 142.531C77.4411 142.574 77.4627 142.626 77.4627 142.687C77.4627 142.756 77.4454 142.826 77.4107 142.895L76.7347 144.676C76.7001 144.763 76.6524 144.832 76.5917 144.884C76.5397 144.945 76.4617 144.975 76.3577 144.975H75.9287ZM78.841 144C78.7717 144 78.711 143.974 78.659 143.922C78.607 143.87 78.581 143.809 78.581 143.74C78.581 143.697 78.5854 143.649 78.594 143.597L81.818 135.186C81.8527 135.099 81.9004 135.03 81.961 134.978C82.0217 134.926 82.1127 134.9 82.234 134.9H83.118C83.2307 134.9 83.3174 134.926 83.378 134.978C83.4474 135.03 83.4994 135.099 83.534 135.186L86.745 143.597C86.7624 143.649 86.771 143.697 86.771 143.74C86.771 143.809 86.745 143.87 86.693 143.922C86.641 143.974 86.5804 144 86.511 144H85.848C85.744 144 85.666 143.974 85.614 143.922C85.5707 143.87 85.5404 143.822 85.523 143.779L84.808 141.933H80.544L79.829 143.779C79.8204 143.822 79.79 143.87 79.738 143.922C79.686 143.974 79.608 144 79.504 144H78.841ZM80.921 140.815H84.431L82.676 136.2L80.921 140.815ZM88.33 144C88.2434 144 88.1697 143.974 88.109 143.922C88.057 143.861 88.031 143.788 88.031 143.701V135.069C88.031 134.982 88.057 134.913 88.109 134.861C88.1697 134.8 88.2434 134.77 88.33 134.77H88.941C89.0364 134.77 89.11 134.8 89.162 134.861C89.214 134.913 89.24 134.982 89.24 135.069V143.701C89.24 143.788 89.214 143.861 89.162 143.922C89.11 143.974 89.0364 144 88.941 144H88.33ZM93.9742 146.86C93.3848 146.86 92.8995 146.782 92.5182 146.626C92.1455 146.47 91.8508 146.279 91.6342 146.054C91.4262 145.837 91.2745 145.616 91.1792 145.391C91.0925 145.174 91.0448 145.001 91.0362 144.871C91.0275 144.784 91.0535 144.711 91.1142 144.65C91.1835 144.589 91.2572 144.559 91.3352 144.559H91.9592C92.0372 144.559 92.1022 144.576 92.1542 144.611C92.2062 144.646 92.2495 144.719 92.2842 144.832C92.3362 144.962 92.4142 145.105 92.5182 145.261C92.6222 145.426 92.7825 145.564 92.9992 145.677C93.2158 145.798 93.5192 145.859 93.9092 145.859C94.3165 145.859 94.6588 145.803 94.9362 145.69C95.2135 145.586 95.4215 145.395 95.5602 145.118C95.7075 144.849 95.7812 144.477 95.7812 144V143.116C95.5732 143.385 95.3002 143.61 94.9622 143.792C94.6242 143.965 94.1995 144.052 93.6882 144.052C93.2028 144.052 92.7868 143.97 92.4402 143.805C92.0935 143.632 91.8075 143.402 91.5822 143.116C91.3655 142.821 91.2008 142.488 91.0882 142.115C90.9842 141.742 90.9235 141.352 90.9062 140.945C90.8975 140.702 90.8975 140.464 90.9062 140.23C90.9235 139.823 90.9842 139.433 91.0882 139.06C91.2008 138.687 91.3655 138.354 91.5822 138.059C91.8075 137.764 92.0935 137.535 92.4402 137.37C92.7868 137.197 93.2028 137.11 93.6882 137.11C94.2082 137.11 94.6372 137.21 94.9752 137.409C95.3218 137.6 95.6035 137.834 95.8202 138.111V137.552C95.8202 137.465 95.8462 137.392 95.8982 137.331C95.9588 137.27 96.0325 137.24 96.1192 137.24H96.7172C96.8038 137.24 96.8775 137.27 96.9382 137.331C96.9988 137.392 97.0292 137.465 97.0292 137.552V143.857C97.0292 144.438 96.9295 144.953 96.7302 145.404C96.5395 145.855 96.2188 146.21 95.7682 146.47C95.3262 146.73 94.7282 146.86 93.9742 146.86ZM93.9482 143.012C94.3815 143.012 94.7282 142.912 94.9882 142.713C95.2568 142.514 95.4518 142.262 95.5732 141.959C95.7032 141.656 95.7725 141.348 95.7812 141.036C95.7898 140.915 95.7942 140.767 95.7942 140.594C95.7942 140.412 95.7898 140.26 95.7812 140.139C95.7725 139.827 95.7032 139.519 95.5732 139.216C95.4518 138.913 95.2568 138.661 94.9882 138.462C94.7282 138.263 94.3815 138.163 93.9482 138.163C93.5148 138.163 93.1682 138.263 92.9082 138.462C92.6482 138.653 92.4618 138.908 92.3492 139.229C92.2365 139.541 92.1715 139.879 92.1542 140.243C92.1455 140.468 92.1455 140.698 92.1542 140.932C92.1715 141.296 92.2365 141.638 92.3492 141.959C92.4618 142.271 92.6482 142.527 92.9082 142.726C93.1682 142.917 93.5148 143.012 93.9482 143.012ZM101.679 144.13C100.786 144.13 100.076 143.857 99.547 143.311C99.0183 142.756 98.728 142.002 98.676 141.049C98.6673 140.936 98.663 140.793 98.663 140.62C98.663 140.438 98.6673 140.291 98.676 140.178C98.7107 139.563 98.8537 139.025 99.105 138.566C99.3563 138.098 99.6987 137.738 100.132 137.487C100.574 137.236 101.09 137.11 101.679 137.11C102.338 137.11 102.888 137.249 103.33 137.526C103.781 137.803 104.123 138.198 104.357 138.709C104.591 139.22 104.708 139.818 104.708 140.503V140.724C104.708 140.819 104.678 140.893 104.617 140.945C104.565 140.997 104.496 141.023 104.409 141.023H99.911C99.911 141.032 99.911 141.049 99.911 141.075C99.911 141.101 99.911 141.123 99.911 141.14C99.9283 141.495 100.006 141.829 100.145 142.141C100.284 142.444 100.483 142.691 100.743 142.882C101.003 143.073 101.315 143.168 101.679 143.168C101.991 143.168 102.251 143.12 102.459 143.025C102.667 142.93 102.836 142.826 102.966 142.713C103.096 142.592 103.183 142.501 103.226 142.44C103.304 142.327 103.365 142.262 103.408 142.245C103.451 142.219 103.521 142.206 103.616 142.206H104.24C104.327 142.206 104.396 142.232 104.448 142.284C104.509 142.327 104.535 142.392 104.526 142.479C104.517 142.609 104.448 142.769 104.318 142.96C104.188 143.142 104.002 143.324 103.759 143.506C103.516 143.688 103.222 143.84 102.875 143.961C102.528 144.074 102.13 144.13 101.679 144.13ZM99.911 140.126H103.473V140.087C103.473 139.697 103.399 139.35 103.252 139.047C103.113 138.744 102.91 138.505 102.641 138.332C102.372 138.15 102.052 138.059 101.679 138.059C101.306 138.059 100.986 138.15 100.717 138.332C100.457 138.505 100.258 138.744 100.119 139.047C99.9803 139.35 99.911 139.697 99.911 140.087V140.126ZM106.587 144C106.501 144 106.427 143.974 106.366 143.922C106.314 143.861 106.288 143.788 106.288 143.701V137.552C106.288 137.465 106.314 137.392 106.366 137.331C106.427 137.27 106.501 137.24 106.587 137.24H107.185C107.272 137.24 107.346 137.27 107.406 137.331C107.467 137.392 107.497 137.465 107.497 137.552V138.124C107.671 137.829 107.909 137.608 108.212 137.461C108.516 137.314 108.88 137.24 109.304 137.24H109.824C109.911 137.24 109.98 137.27 110.032 137.331C110.084 137.383 110.11 137.452 110.11 137.539V138.072C110.11 138.159 110.084 138.228 110.032 138.28C109.98 138.332 109.911 138.358 109.824 138.358H109.044C108.576 138.358 108.208 138.497 107.939 138.774C107.671 139.043 107.536 139.411 107.536 139.879V143.701C107.536 143.788 107.506 143.861 107.445 143.922C107.385 143.974 107.311 144 107.224 144H106.587ZM111.552 144C111.465 144 111.392 143.974 111.331 143.922C111.279 143.861 111.253 143.788 111.253 143.701V137.539C111.253 137.452 111.279 137.383 111.331 137.331C111.392 137.27 111.465 137.24 111.552 137.24H112.176C112.263 137.24 112.332 137.27 112.384 137.331C112.436 137.383 112.462 137.452 112.462 137.539V143.701C112.462 143.788 112.436 143.861 112.384 143.922C112.332 143.974 112.263 144 112.176 144H111.552ZM111.448 135.979C111.361 135.979 111.288 135.953 111.227 135.901C111.175 135.84 111.149 135.767 111.149 135.68V134.978C111.149 134.891 111.175 134.822 111.227 134.77C111.288 134.709 111.361 134.679 111.448 134.679H112.267C112.354 134.679 112.423 134.709 112.475 134.77C112.536 134.822 112.566 134.891 112.566 134.978V135.68C112.566 135.767 112.536 135.84 112.475 135.901C112.423 135.953 112.354 135.979 112.267 135.979H111.448ZM116.312 144.13C115.879 144.13 115.485 144.043 115.129 143.87C114.774 143.697 114.488 143.463 114.271 143.168C114.055 142.873 113.946 142.54 113.946 142.167C113.946 141.569 114.189 141.092 114.674 140.737C115.16 140.382 115.792 140.148 116.572 140.035L118.509 139.762V139.385C118.509 138.969 118.388 138.644 118.145 138.41C117.911 138.176 117.526 138.059 116.988 138.059C116.598 138.059 116.282 138.137 116.039 138.293C115.805 138.449 115.641 138.648 115.545 138.891C115.493 139.021 115.402 139.086 115.272 139.086H114.687C114.592 139.086 114.518 139.06 114.466 139.008C114.423 138.947 114.401 138.878 114.401 138.8C114.401 138.67 114.449 138.51 114.544 138.319C114.648 138.128 114.804 137.942 115.012 137.76C115.22 137.578 115.485 137.426 115.805 137.305C116.135 137.175 116.533 137.11 117.001 137.11C117.521 137.11 117.959 137.179 118.314 137.318C118.67 137.448 118.947 137.626 119.146 137.851C119.354 138.076 119.502 138.332 119.588 138.618C119.684 138.904 119.731 139.194 119.731 139.489V143.701C119.731 143.788 119.701 143.861 119.64 143.922C119.588 143.974 119.519 144 119.432 144H118.834C118.739 144 118.665 143.974 118.613 143.922C118.561 143.861 118.535 143.788 118.535 143.701V143.142C118.423 143.298 118.271 143.454 118.08 143.61C117.89 143.757 117.651 143.883 117.365 143.987C117.079 144.082 116.728 144.13 116.312 144.13ZM116.585 143.155C116.941 143.155 117.266 143.081 117.56 142.934C117.855 142.778 118.085 142.54 118.249 142.219C118.423 141.898 118.509 141.495 118.509 141.01V140.646L117.001 140.867C116.386 140.954 115.922 141.101 115.61 141.309C115.298 141.508 115.142 141.764 115.142 142.076C115.142 142.319 115.212 142.522 115.35 142.687C115.498 142.843 115.68 142.96 115.896 143.038C116.122 143.116 116.351 143.155 116.585 143.155Z" fill="#D5D2D2"/>
<path d="M34.264 116.18C33.148 116.18 32.2 115.988 31.42 115.604C30.652 115.208 30.064 114.65 29.656 113.93C29.248 113.198 29.02 112.322 28.972 111.302C28.96 110.81 28.954 110.282 28.954 109.718C28.954 109.154 28.96 108.614 28.972 108.098C29.02 107.09 29.248 106.22 29.656 105.488C30.076 104.756 30.67 104.198 31.438 103.814C32.218 103.418 33.16 103.22 34.264 103.22C35.08 103.22 35.812 103.328 36.46 103.544C37.108 103.76 37.66 104.06 38.116 104.444C38.572 104.816 38.926 105.254 39.178 105.758C39.43 106.262 39.562 106.808 39.574 107.396C39.586 107.504 39.55 107.594 39.466 107.666C39.394 107.738 39.304 107.774 39.196 107.774H37.486C37.354 107.774 37.246 107.744 37.162 107.684C37.078 107.612 37.018 107.498 36.982 107.342C36.79 106.55 36.46 106.01 35.992 105.722C35.524 105.434 34.942 105.29 34.246 105.29C33.442 105.29 32.8 105.518 32.32 105.974C31.84 106.418 31.582 107.156 31.546 108.188C31.51 109.172 31.51 110.18 31.546 111.212C31.582 112.244 31.84 112.988 32.32 113.444C32.8 113.888 33.442 114.11 34.246 114.11C34.942 114.11 35.524 113.966 35.992 113.678C36.46 113.378 36.79 112.838 36.982 112.058C37.018 111.89 37.078 111.776 37.162 111.716C37.246 111.656 37.354 111.626 37.486 111.626H39.196C39.304 111.626 39.394 111.662 39.466 111.734C39.55 111.806 39.586 111.896 39.574 112.004C39.562 112.592 39.43 113.138 39.178 113.642C38.926 114.146 38.572 114.59 38.116 114.974C37.66 115.346 37.108 115.64 36.46 115.856C35.812 116.072 35.08 116.18 34.264 116.18ZM44.2467 116.18C43.6227 116.18 43.0587 116.06 42.5547 115.82C42.0507 115.568 41.6487 115.238 41.3487 114.83C41.0607 114.41 40.9167 113.942 40.9167 113.426C40.9167 112.586 41.2527 111.92 41.9247 111.428C42.6087 110.924 43.5087 110.588 44.6247 110.42L47.0907 110.06V109.682C47.0907 109.178 46.9647 108.788 46.7127 108.512C46.4607 108.236 46.0287 108.098 45.4167 108.098C44.9847 108.098 44.6307 108.188 44.3547 108.368C44.0907 108.536 43.8927 108.764 43.7607 109.052C43.6647 109.208 43.5267 109.286 43.3467 109.286H41.9247C41.7927 109.286 41.6907 109.25 41.6187 109.178C41.5587 109.106 41.5287 109.01 41.5287 108.89C41.5407 108.698 41.6187 108.464 41.7627 108.188C41.9067 107.912 42.1347 107.648 42.4467 107.396C42.7587 107.132 43.1607 106.91 43.6527 106.73C44.1447 106.55 44.7387 106.46 45.4347 106.46C46.1907 106.46 46.8267 106.556 47.3427 106.748C47.8707 106.928 48.2907 107.174 48.6027 107.486C48.9147 107.798 49.1427 108.164 49.2867 108.584C49.4307 109.004 49.5027 109.448 49.5027 109.916V115.568C49.5027 115.688 49.4607 115.79 49.3767 115.874C49.2927 115.958 49.1907 116 49.0707 116H47.6127C47.4807 116 47.3727 115.958 47.2887 115.874C47.2167 115.79 47.1807 115.688 47.1807 115.568V114.866C47.0247 115.094 46.8147 115.31 46.5507 115.514C46.2867 115.706 45.9627 115.868 45.5787 116C45.2067 116.12 44.7627 116.18 44.2467 116.18ZM44.8587 114.47C45.2787 114.47 45.6567 114.38 45.9927 114.2C46.3407 114.02 46.6107 113.744 46.8027 113.372C47.0067 112.988 47.1087 112.508 47.1087 111.932V111.554L45.3087 111.842C44.6007 111.95 44.0727 112.124 43.7247 112.364C43.3767 112.604 43.2027 112.898 43.2027 113.246C43.2027 113.51 43.2807 113.738 43.4367 113.93C43.6047 114.11 43.8147 114.248 44.0667 114.344C44.3187 114.428 44.5827 114.47 44.8587 114.47ZM52.2799 116C52.1599 116 52.0579 115.958 51.9739 115.874C51.8899 115.79 51.8479 115.688 51.8479 115.568V107.072C51.8479 106.952 51.8899 106.85 51.9739 106.766C52.0579 106.682 52.1599 106.64 52.2799 106.64H53.6839C53.8039 106.64 53.9059 106.682 53.9899 106.766C54.0739 106.85 54.1159 106.952 54.1159 107.072V107.684C54.3679 107.348 54.7039 107.066 55.1239 106.838C55.5559 106.598 56.0659 106.472 56.6539 106.46C58.0219 106.436 58.9759 106.97 59.5159 108.062C59.7919 107.582 60.1879 107.198 60.7039 106.91C61.2319 106.61 61.8139 106.46 62.4499 106.46C63.0739 106.46 63.6379 106.604 64.1419 106.892C64.6579 107.18 65.0599 107.618 65.3479 108.206C65.6479 108.782 65.7979 109.514 65.7979 110.402V115.568C65.7979 115.688 65.7559 115.79 65.6719 115.874C65.5879 115.958 65.4859 116 65.3659 116H63.8899C63.7699 116 63.6679 115.958 63.5839 115.874C63.4999 115.79 63.4579 115.688 63.4579 115.568V110.546C63.4579 110.006 63.3799 109.58 63.2239 109.268C63.0679 108.944 62.8579 108.716 62.5939 108.584C62.3299 108.452 62.0359 108.386 61.7119 108.386C61.4479 108.386 61.1839 108.452 60.9199 108.584C60.6559 108.716 60.4399 108.944 60.2719 109.268C60.1039 109.58 60.0199 110.006 60.0199 110.546V115.568C60.0199 115.688 59.9779 115.79 59.8939 115.874C59.8099 115.958 59.7079 116 59.5879 116H58.1119C57.9799 116 57.8719 115.958 57.7879 115.874C57.7159 115.79 57.6799 115.688 57.6799 115.568V110.546C57.6799 110.006 57.5959 109.58 57.4279 109.268C57.2599 108.944 57.0439 108.716 56.7799 108.584C56.5159 108.452 56.2339 108.386 55.9339 108.386C55.6579 108.386 55.3879 108.458 55.1239 108.602C54.8599 108.734 54.6439 108.956 54.4759 109.268C54.3079 109.58 54.2239 110.006 54.2239 110.546V115.568C54.2239 115.688 54.1819 115.79 54.0979 115.874C54.0139 115.958 53.9119 116 53.7919 116H52.2799ZM72.1581 116.18C70.8261 116.18 69.7701 115.796 68.9901 115.028C68.2101 114.26 67.7901 113.168 67.7301 111.752C67.7181 111.632 67.7121 111.482 67.7121 111.302C67.7121 111.11 67.7181 110.96 67.7301 110.852C67.7781 109.952 67.9821 109.172 68.3421 108.512C68.7141 107.852 69.2241 107.348 69.8721 107C70.5201 106.64 71.2821 106.46 72.1581 106.46C73.1301 106.46 73.9461 106.664 74.6061 107.072C75.2661 107.468 75.7641 108.026 76.1001 108.746C76.4361 109.454 76.6041 110.276 76.6041 111.212V111.59C76.6041 111.71 76.5621 111.812 76.4781 111.896C76.3941 111.98 76.2861 112.022 76.1541 112.022H70.1781C70.1781 112.022 70.1781 112.04 70.1781 112.076C70.1781 112.112 70.1781 112.142 70.1781 112.166C70.1901 112.586 70.2681 112.976 70.4121 113.336C70.5681 113.684 70.7901 113.966 71.0781 114.182C71.3781 114.398 71.7321 114.506 72.1401 114.506C72.4761 114.506 72.7581 114.458 72.9861 114.362C73.2141 114.254 73.4001 114.134 73.5441 114.002C73.6881 113.87 73.7901 113.762 73.8501 113.678C73.9581 113.534 74.0421 113.45 74.1021 113.426C74.1741 113.39 74.2761 113.372 74.4081 113.372H75.9561C76.0761 113.372 76.1721 113.408 76.2441 113.48C76.3281 113.552 76.3641 113.642 76.3521 113.75C76.3401 113.942 76.2381 114.176 76.0461 114.452C75.8661 114.728 75.6021 114.998 75.2541 115.262C74.9061 115.526 74.4681 115.748 73.9401 115.928C73.4241 116.096 72.8301 116.18 72.1581 116.18ZM70.1781 110.51H74.1561V110.456C74.1561 109.988 74.0781 109.58 73.9221 109.232C73.7661 108.884 73.5381 108.608 73.2381 108.404C72.9381 108.2 72.5781 108.098 72.1581 108.098C71.7381 108.098 71.3781 108.2 71.0781 108.404C70.7781 108.608 70.5501 108.884 70.3941 109.232C70.2501 109.58 70.1781 109.988 70.1781 110.456V110.51ZM78.9828 116C78.8628 116 78.7608 115.958 78.6768 115.874C78.5928 115.79 78.5508 115.688 78.5508 115.568V107.09C78.5508 106.958 78.5928 106.85 78.6768 106.766C78.7608 106.682 78.8628 106.64 78.9828 106.64H80.4408C80.5608 106.64 80.6628 106.682 80.7468 106.766C80.8428 106.85 80.8908 106.958 80.8908 107.09V107.828C81.1668 107.444 81.5208 107.15 81.9528 106.946C82.3968 106.742 82.9068 106.64 83.4828 106.64H84.2208C84.3528 106.64 84.4548 106.682 84.5268 106.766C84.6108 106.85 84.6528 106.952 84.6528 107.072V108.368C84.6528 108.488 84.6108 108.59 84.5268 108.674C84.4548 108.758 84.3528 108.8 84.2208 108.8H82.8168C82.2408 108.8 81.7908 108.962 81.4668 109.286C81.1548 109.61 80.9988 110.054 80.9988 110.618V115.568C80.9988 115.688 80.9568 115.79 80.8728 115.874C80.7888 115.958 80.6808 116 80.5488 116H78.9828ZM88.67 116.18C88.046 116.18 87.482 116.06 86.978 115.82C86.474 115.568 86.072 115.238 85.772 114.83C85.484 114.41 85.34 113.942 85.34 113.426C85.34 112.586 85.676 111.92 86.348 111.428C87.032 110.924 87.932 110.588 89.048 110.42L91.514 110.06V109.682C91.514 109.178 91.388 108.788 91.136 108.512C90.884 108.236 90.452 108.098 89.84 108.098C89.408 108.098 89.054 108.188 88.778 108.368C88.514 108.536 88.316 108.764 88.184 109.052C88.088 109.208 87.95 109.286 87.77 109.286H86.348C86.216 109.286 86.114 109.25 86.042 109.178C85.982 109.106 85.952 109.01 85.952 108.89C85.964 108.698 86.042 108.464 86.186 108.188C86.33 107.912 86.558 107.648 86.87 107.396C87.182 107.132 87.584 106.91 88.076 106.73C88.568 106.55 89.162 106.46 89.858 106.46C90.614 106.46 91.25 106.556 91.766 106.748C92.294 106.928 92.714 107.174 93.026 107.486C93.338 107.798 93.566 108.164 93.71 108.584C93.854 109.004 93.926 109.448 93.926 109.916V115.568C93.926 115.688 93.884 115.79 93.8 115.874C93.716 115.958 93.614 116 93.494 116H92.036C91.904 116 91.796 115.958 91.712 115.874C91.64 115.79 91.604 115.688 91.604 115.568V114.866C91.448 115.094 91.238 115.31 90.974 115.514C90.71 115.706 90.386 115.868 90.002 116C89.63 116.12 89.186 116.18 88.67 116.18ZM89.282 114.47C89.702 114.47 90.08 114.38 90.416 114.2C90.764 114.02 91.034 113.744 91.226 113.372C91.43 112.988 91.532 112.508 91.532 111.932V111.554L89.732 111.842C89.024 111.95 88.496 112.124 88.148 112.364C87.8 112.604 87.626 112.898 87.626 113.246C87.626 113.51 87.704 113.738 87.86 113.93C88.028 114.11 88.238 114.248 88.49 114.344C88.742 114.428 89.006 114.47 89.282 114.47ZM102.112 115.298C102.004 115.298 101.908 115.262 101.824 115.19C101.752 115.118 101.722 115.028 101.734 114.92L102.022 112.958H100.492C100.372 112.958 100.27 112.922 100.186 112.85C100.114 112.766 100.078 112.664 100.078 112.544V111.536C100.078 111.404 100.114 111.302 100.186 111.23C100.27 111.158 100.372 111.122 100.492 111.122H102.292L102.706 108.386H100.96C100.84 108.386 100.738 108.35 100.654 108.278C100.582 108.194 100.546 108.092 100.546 107.972V106.964C100.546 106.832 100.582 106.73 100.654 106.658C100.738 106.586 100.84 106.55 100.96 106.55H102.976L103.282 104.588C103.306 104.492 103.348 104.408 103.408 104.336C103.48 104.252 103.576 104.21 103.696 104.21H104.74C104.848 104.21 104.938 104.246 105.01 104.318C105.082 104.39 105.112 104.48 105.1 104.588L104.812 106.55H107.062L107.368 104.588C107.392 104.492 107.434 104.408 107.494 104.336C107.566 104.252 107.662 104.21 107.782 104.21H108.826C108.934 104.21 109.024 104.246 109.096 104.318C109.168 104.39 109.198 104.48 109.186 104.588L108.898 106.55H110.41C110.53 106.55 110.626 106.586 110.698 106.658C110.782 106.73 110.824 106.832 110.824 106.964V107.972C110.824 108.092 110.782 108.194 110.698 108.278C110.626 108.35 110.53 108.386 110.41 108.386H108.628L108.232 111.122H109.942C110.062 111.122 110.158 111.158 110.23 111.23C110.314 111.302 110.356 111.404 110.356 111.536V112.544C110.356 112.664 110.314 112.766 110.23 112.85C110.158 112.922 110.062 112.958 109.942 112.958H107.944L107.656 114.92C107.62 115.172 107.482 115.298 107.242 115.298H106.198C106.09 115.298 105.994 115.262 105.91 115.19C105.838 115.118 105.808 115.028 105.82 114.92L106.108 112.958H103.858L103.57 114.92C103.534 115.172 103.396 115.298 103.156 115.298H102.112ZM104.146 111.122H106.378L106.792 108.386H104.542L104.146 111.122ZM116.7 116C116.568 116 116.46 115.958 116.376 115.874C116.304 115.79 116.268 115.688 116.268 115.568V106.244L113.532 108.35C113.424 108.422 113.316 108.452 113.208 108.44C113.1 108.416 113.004 108.35 112.92 108.242L112.164 107.27C112.092 107.162 112.062 107.048 112.074 106.928C112.098 106.808 112.164 106.712 112.272 106.64L116.304 103.526C116.376 103.466 116.448 103.43 116.52 103.418C116.592 103.406 116.67 103.4 116.754 103.4H118.338C118.458 103.4 118.56 103.442 118.644 103.526C118.728 103.61 118.77 103.712 118.77 103.832V115.568C118.77 115.688 118.728 115.79 118.644 115.874C118.56 115.958 118.458 116 118.338 116H116.7Z" fill="#3887BE"/>
<circle cx="127" cy="109.5" r="5" fill="#3BBE38"/>
<rect x="170.5" y="34.5" width="59" height="59" rx="29.5" fill="#271245"/>
<rect x="170.5" y="34.5" width="59" height="59" rx="29.5" stroke="#38419D"/>
<path d="M194 56.8003C192.535 56.8047 191.725 56.8397 191.058 57.1193C190.125 57.5109 189.366 58.2343 188.922 59.1536C188.559 59.9039 188.5 60.8653 188.382 62.7879L188.196 65.8008C187.901 70.5821 187.753 72.9727 189.156 74.4863C190.559 75.9997 192.923 75.9997 197.65 75.9997H202.35C207.077 75.9997 209.441 75.9997 210.844 74.4863C212.247 72.9727 212.099 70.5821 211.804 65.8008L211.618 62.7879C211.5 60.8653 211.441 59.9039 211.078 59.1536C210.634 58.2343 209.875 57.5109 208.942 57.1193C208.275 56.8397 207.465 56.8047 206 56.8003" stroke="white" stroke-width="1.5" stroke-linecap="round"/>
<path d="M206 58L204.937 55.3425C204.478 54.196 204.079 52.8953 202.9 52.3115C202.271 52 201.514 52 200 52C198.486 52 197.729 52 197.1 52.3115C195.921 52.8953 195.522 54.196 195.063 55.3425L194 58" stroke="white" stroke-width="1.5" stroke-linecap="round" stroke-linejoin="round"/>
<path d="M204.2 66.4002C204.2 68.7198 202.319 70.6002 200 70.6002C197.68 70.6002 195.8 68.7198 195.8 66.4002C195.8 64.0806 197.68 62.2002 200 62.2002C202.319 62.2002 204.2 64.0806 204.2 66.4002Z" stroke="white" stroke-width="1.5"/>
<path d="M200 56.7998H200.011" stroke="white" stroke-width="2" stroke-linecap="round" stroke-linejoin="round"/>
<path d="M160.43 144C160.335 144 160.261 143.974 160.209 143.922C160.157 143.861 160.131 143.788 160.131 143.701V135.212C160.131 135.117 160.157 135.043 160.209 134.991C160.261 134.93 160.335 134.9 160.43 134.9H163.992C164.642 134.9 165.171 135.008 165.578 135.225C165.994 135.433 166.297 135.719 166.488 136.083C166.687 136.447 166.787 136.854 166.787 137.305C166.787 137.66 166.726 137.968 166.605 138.228C166.492 138.479 166.349 138.687 166.176 138.852C166.003 139.008 165.834 139.129 165.669 139.216C166.007 139.381 166.306 139.649 166.566 140.022C166.835 140.395 166.969 140.845 166.969 141.374C166.969 141.851 166.861 142.288 166.644 142.687C166.427 143.086 166.102 143.406 165.669 143.649C165.244 143.883 164.716 144 164.083 144H160.43ZM161.405 142.947H163.914C164.477 142.947 164.911 142.795 165.214 142.492C165.517 142.189 165.669 141.816 165.669 141.374C165.669 140.915 165.517 140.538 165.214 140.243C164.911 139.94 164.477 139.788 163.914 139.788H161.405V142.947ZM161.405 138.748H163.797C164.352 138.748 164.772 138.622 165.058 138.371C165.344 138.111 165.487 137.76 165.487 137.318C165.487 136.876 165.344 136.538 165.058 136.304C164.772 136.07 164.352 135.953 163.797 135.953H161.405V138.748ZM171.363 144.13C170.47 144.13 169.759 143.857 169.231 143.311C168.702 142.756 168.412 142.002 168.36 141.049C168.351 140.936 168.347 140.793 168.347 140.62C168.347 140.438 168.351 140.291 168.36 140.178C168.394 139.563 168.537 139.025 168.789 138.566C169.04 138.098 169.382 137.738 169.816 137.487C170.258 137.236 170.773 137.11 171.363 137.11C172.021 137.11 172.572 137.249 173.014 137.526C173.464 137.803 173.807 138.198 174.041 138.709C174.275 139.22 174.392 139.818 174.392 140.503V140.724C174.392 140.819 174.361 140.893 174.301 140.945C174.249 140.997 174.179 141.023 174.093 141.023H169.595C169.595 141.032 169.595 141.049 169.595 141.075C169.595 141.101 169.595 141.123 169.595 141.14C169.612 141.495 169.69 141.829 169.829 142.141C169.967 142.444 170.167 142.691 170.427 142.882C170.687 143.073 170.999 143.168 171.363 143.168C171.675 143.168 171.935 143.12 172.143 143.025C172.351 142.93 172.52 142.826 172.65 142.713C172.78 142.592 172.866 142.501 172.91 142.44C172.988 142.327 173.048 142.262 173.092 142.245C173.135 142.219 173.204 142.206 173.3 142.206H173.924C174.01 142.206 174.08 142.232 174.132 142.284C174.192 142.327 174.218 142.392 174.21 142.479C174.201 142.609 174.132 142.769 174.002 142.96C173.872 143.142 173.685 143.324 173.443 143.506C173.2 143.688 172.905 143.84 172.559 143.961C172.212 144.074 171.813 144.13 171.363 144.13ZM169.595 140.126H173.157V140.087C173.157 139.697 173.083 139.35 172.936 139.047C172.797 138.744 172.593 138.505 172.325 138.332C172.056 138.15 171.735 138.059 171.363 138.059C170.99 138.059 170.669 138.15 170.401 138.332C170.141 138.505 169.941 138.744 169.803 139.047C169.664 139.35 169.595 139.697 169.595 140.087V140.126ZM174.867 146.47C174.78 146.47 174.711 146.44 174.659 146.379C174.598 146.327 174.568 146.258 174.568 146.171V145.729C174.568 145.642 174.598 145.569 174.659 145.508C174.711 145.456 174.78 145.43 174.867 145.43H175.049C175.361 145.43 175.591 145.369 175.738 145.248C175.885 145.135 175.981 144.984 176.024 144.793C176.076 144.602 176.102 144.386 176.102 144.143V137.539C176.102 137.452 176.128 137.383 176.18 137.331C176.241 137.27 176.314 137.24 176.401 137.24H177.038C177.125 137.24 177.194 137.27 177.246 137.331C177.307 137.383 177.337 137.452 177.337 137.539V144.156C177.337 144.615 177.263 145.018 177.116 145.365C176.977 145.712 176.748 145.98 176.427 146.171C176.106 146.37 175.669 146.47 175.114 146.47H174.867ZM176.297 135.979C176.21 135.979 176.137 135.953 176.076 135.901C176.024 135.84 175.998 135.767 175.998 135.68V134.978C175.998 134.891 176.024 134.822 176.076 134.77C176.137 134.709 176.21 134.679 176.297 134.679H177.129C177.216 134.679 177.289 134.709 177.35 134.77C177.411 134.822 177.441 134.891 177.441 134.978V135.68C177.441 135.767 177.411 135.84 177.35 135.901C177.289 135.953 177.216 135.979 177.129 135.979H176.297ZM181.184 144.13C180.75 144.13 180.356 144.043 180.001 143.87C179.645 143.697 179.359 143.463 179.143 143.168C178.926 142.873 178.818 142.54 178.818 142.167C178.818 141.569 179.06 141.092 179.546 140.737C180.031 140.382 180.664 140.148 181.444 140.035L183.381 139.762V139.385C183.381 138.969 183.259 138.644 183.017 138.41C182.783 138.176 182.397 138.059 181.86 138.059C181.47 138.059 181.153 138.137 180.911 138.293C180.677 138.449 180.512 138.648 180.417 138.891C180.365 139.021 180.274 139.086 180.144 139.086H179.559C179.463 139.086 179.39 139.06 179.338 139.008C179.294 138.947 179.273 138.878 179.273 138.8C179.273 138.67 179.32 138.51 179.416 138.319C179.52 138.128 179.676 137.942 179.884 137.76C180.092 137.578 180.356 137.426 180.677 137.305C181.006 137.175 181.405 137.11 181.873 137.11C182.393 137.11 182.83 137.179 183.186 137.318C183.541 137.448 183.818 137.626 184.018 137.851C184.226 138.076 184.373 138.332 184.46 138.618C184.555 138.904 184.603 139.194 184.603 139.489V143.701C184.603 143.788 184.572 143.861 184.512 143.922C184.46 143.974 184.39 144 184.304 144H183.706C183.61 144 183.537 143.974 183.485 143.922C183.433 143.861 183.407 143.788 183.407 143.701V143.142C183.294 143.298 183.142 143.454 182.952 143.61C182.761 143.757 182.523 143.883 182.237 143.987C181.951 144.082 181.6 144.13 181.184 144.13ZM181.457 143.155C181.812 143.155 182.137 143.081 182.432 142.934C182.726 142.778 182.956 142.54 183.121 142.219C183.294 141.898 183.381 141.495 183.381 141.01V140.646L181.873 140.867C181.257 140.954 180.794 141.101 180.482 141.309C180.17 141.508 180.014 141.764 180.014 142.076C180.014 142.319 180.083 142.522 180.222 142.687C180.369 142.843 180.551 142.96 180.768 143.038C180.993 143.116 181.223 143.155 181.457 143.155ZM186.797 144C186.71 144 186.636 143.974 186.576 143.922C186.524 143.861 186.498 143.788 186.498 143.701V137.539C186.498 137.452 186.524 137.383 186.576 137.331C186.636 137.27 186.71 137.24 186.797 137.24H187.421C187.507 137.24 187.577 137.27 187.629 137.331C187.681 137.383 187.707 137.452 187.707 137.539V143.701C187.707 143.788 187.681 143.861 187.629 143.922C187.577 143.974 187.507 144 187.421 144H186.797ZM186.693 135.979C186.606 135.979 186.532 135.953 186.472 135.901C186.42 135.84 186.394 135.767 186.394 135.68V134.978C186.394 134.891 186.42 134.822 186.472 134.77C186.532 134.709 186.606 134.679 186.693 134.679H187.512C187.598 134.679 187.668 134.709 187.72 134.77C187.78 134.822 187.811 134.891 187.811 134.978V135.68C187.811 135.767 187.78 135.84 187.72 135.901C187.668 135.953 187.598 135.979 187.512 135.979H186.693ZM191.557 144.13C191.124 144.13 190.729 144.043 190.374 143.87C190.019 143.697 189.733 143.463 189.516 143.168C189.299 142.873 189.191 142.54 189.191 142.167C189.191 141.569 189.434 141.092 189.919 140.737C190.404 140.382 191.037 140.148 191.817 140.035L193.754 139.762V139.385C193.754 138.969 193.633 138.644 193.39 138.41C193.156 138.176 192.77 138.059 192.233 138.059C191.843 138.059 191.527 138.137 191.284 138.293C191.05 138.449 190.885 138.648 190.79 138.891C190.738 139.021 190.647 139.086 190.517 139.086H189.932C189.837 139.086 189.763 139.06 189.711 139.008C189.668 138.947 189.646 138.878 189.646 138.8C189.646 138.67 189.694 138.51 189.789 138.319C189.893 138.128 190.049 137.942 190.257 137.76C190.465 137.578 190.729 137.426 191.05 137.305C191.379 137.175 191.778 137.11 192.246 137.11C192.766 137.11 193.204 137.179 193.559 137.318C193.914 137.448 194.192 137.626 194.391 137.851C194.599 138.076 194.746 138.332 194.833 138.618C194.928 138.904 194.976 139.194 194.976 139.489V143.701C194.976 143.788 194.946 143.861 194.885 143.922C194.833 143.974 194.764 144 194.677 144H194.079C193.984 144 193.91 143.974 193.858 143.922C193.806 143.861 193.78 143.788 193.78 143.701V143.142C193.667 143.298 193.516 143.454 193.325 143.61C193.134 143.757 192.896 143.883 192.61 143.987C192.324 144.082 191.973 144.13 191.557 144.13ZM191.83 143.155C192.185 143.155 192.51 143.081 192.805 142.934C193.1 142.778 193.329 142.54 193.494 142.219C193.667 141.898 193.754 141.495 193.754 141.01V140.646L192.246 140.867C191.631 140.954 191.167 141.101 190.855 141.309C190.543 141.508 190.387 141.764 190.387 142.076C190.387 142.319 190.456 142.522 190.595 142.687C190.742 142.843 190.924 142.96 191.141 143.038C191.366 143.116 191.596 143.155 191.83 143.155ZM196.78 144.975C196.711 144.975 196.654 144.949 196.611 144.897C196.576 144.845 196.563 144.78 196.572 144.702L196.871 142.843C196.888 142.739 196.923 142.652 196.975 142.583C197.036 142.505 197.122 142.466 197.235 142.466H198.106C198.167 142.466 198.214 142.488 198.249 142.531C198.292 142.574 198.314 142.626 198.314 142.687C198.314 142.756 198.297 142.826 198.262 142.895L197.586 144.676C197.551 144.763 197.504 144.832 197.443 144.884C197.391 144.945 197.313 144.975 197.209 144.975H196.78ZM199.692 144C199.623 144 199.562 143.974 199.51 143.922C199.458 143.87 199.432 143.809 199.432 143.74C199.432 143.697 199.437 143.649 199.445 143.597L202.669 135.186C202.704 135.099 202.752 135.03 202.812 134.978C202.873 134.926 202.964 134.9 203.085 134.9H203.969C204.082 134.9 204.169 134.926 204.229 134.978C204.299 135.03 204.351 135.099 204.385 135.186L207.596 143.597C207.614 143.649 207.622 143.697 207.622 143.74C207.622 143.809 207.596 143.87 207.544 143.922C207.492 143.974 207.432 144 207.362 144H206.699C206.595 144 206.517 143.974 206.465 143.922C206.422 143.87 206.392 143.822 206.374 143.779L205.659 141.933H201.395L200.68 143.779C200.672 143.822 200.641 143.87 200.589 143.922C200.537 143.974 200.459 144 200.355 144H199.692ZM201.772 140.815H205.282L203.527 136.2L201.772 140.815ZM209.181 144C209.095 144 209.021 143.974 208.96 143.922C208.908 143.861 208.882 143.788 208.882 143.701V135.069C208.882 134.982 208.908 134.913 208.96 134.861C209.021 134.8 209.095 134.77 209.181 134.77H209.792C209.888 134.77 209.961 134.8 210.013 134.861C210.065 134.913 210.091 134.982 210.091 135.069V143.701C210.091 143.788 210.065 143.861 210.013 143.922C209.961 143.974 209.888 144 209.792 144H209.181ZM214.825 146.86C214.236 146.86 213.751 146.782 213.369 146.626C212.997 146.47 212.702 146.279 212.485 146.054C212.277 145.837 212.126 145.616 212.03 145.391C211.944 145.174 211.896 145.001 211.887 144.871C211.879 144.784 211.905 144.711 211.965 144.65C212.035 144.589 212.108 144.559 212.186 144.559H212.81C212.888 144.559 212.953 144.576 213.005 144.611C213.057 144.646 213.101 144.719 213.135 144.832C213.187 144.962 213.265 145.105 213.369 145.261C213.473 145.426 213.634 145.564 213.85 145.677C214.067 145.798 214.37 145.859 214.76 145.859C215.168 145.859 215.51 145.803 215.787 145.69C216.065 145.586 216.273 145.395 216.411 145.118C216.559 144.849 216.632 144.477 216.632 144V143.116C216.424 143.385 216.151 143.61 215.813 143.792C215.475 143.965 215.051 144.052 214.539 144.052C214.054 144.052 213.638 143.97 213.291 143.805C212.945 143.632 212.659 143.402 212.433 143.116C212.217 142.821 212.052 142.488 211.939 142.115C211.835 141.742 211.775 141.352 211.757 140.945C211.749 140.702 211.749 140.464 211.757 140.23C211.775 139.823 211.835 139.433 211.939 139.06C212.052 138.687 212.217 138.354 212.433 138.059C212.659 137.764 212.945 137.535 213.291 137.37C213.638 137.197 214.054 137.11 214.539 137.11C215.059 137.11 215.488 137.21 215.826 137.409C216.173 137.6 216.455 137.834 216.671 138.111V137.552C216.671 137.465 216.697 137.392 216.749 137.331C216.81 137.27 216.884 137.24 216.97 137.24H217.568C217.655 137.24 217.729 137.27 217.789 137.331C217.85 137.392 217.88 137.465 217.88 137.552V143.857C217.88 144.438 217.781 144.953 217.581 145.404C217.391 145.855 217.07 146.21 216.619 146.47C216.177 146.73 215.579 146.86 214.825 146.86ZM214.799 143.012C215.233 143.012 215.579 142.912 215.839 142.713C216.108 142.514 216.303 142.262 216.424 141.959C216.554 141.656 216.624 141.348 216.632 141.036C216.641 140.915 216.645 140.767 216.645 140.594C216.645 140.412 216.641 140.26 216.632 140.139C216.624 139.827 216.554 139.519 216.424 139.216C216.303 138.913 216.108 138.661 215.839 138.462C215.579 138.263 215.233 138.163 214.799 138.163C214.366 138.163 214.019 138.263 213.759 138.462C213.499 138.653 213.313 138.908 213.2 139.229C213.088 139.541 213.023 139.879 213.005 140.243C212.997 140.468 212.997 140.698 213.005 140.932C213.023 141.296 213.088 141.638 213.2 141.959C213.313 142.271 213.499 142.527 213.759 142.726C214.019 142.917 214.366 143.012 214.799 143.012ZM222.53 144.13C221.638 144.13 220.927 143.857 220.398 143.311C219.87 142.756 219.579 142.002 219.527 141.049C219.519 140.936 219.514 140.793 219.514 140.62C219.514 140.438 219.519 140.291 219.527 140.178C219.562 139.563 219.705 139.025 219.956 138.566C220.208 138.098 220.55 137.738 220.983 137.487C221.425 137.236 221.941 137.11 222.53 137.11C223.189 137.11 223.739 137.249 224.181 137.526C224.632 137.803 224.974 138.198 225.208 138.709C225.442 139.22 225.559 139.818 225.559 140.503V140.724C225.559 140.819 225.529 140.893 225.468 140.945C225.416 140.997 225.347 141.023 225.26 141.023H220.762C220.762 141.032 220.762 141.049 220.762 141.075C220.762 141.101 220.762 141.123 220.762 141.14C220.78 141.495 220.858 141.829 220.996 142.141C221.135 142.444 221.334 142.691 221.594 142.882C221.854 143.073 222.166 143.168 222.53 143.168C222.842 143.168 223.102 143.12 223.31 143.025C223.518 142.93 223.687 142.826 223.817 142.713C223.947 142.592 224.034 142.501 224.077 142.44C224.155 142.327 224.216 142.262 224.259 142.245C224.303 142.219 224.372 142.206 224.467 142.206H225.091C225.178 142.206 225.247 142.232 225.299 142.284C225.36 142.327 225.386 142.392 225.377 142.479C225.369 142.609 225.299 142.769 225.169 142.96C225.039 143.142 224.853 143.324 224.61 143.506C224.368 143.688 224.073 143.84 223.726 143.961C223.38 144.074 222.981 144.13 222.53 144.13ZM220.762 140.126H224.324V140.087C224.324 139.697 224.251 139.35 224.103 139.047C223.965 138.744 223.761 138.505 223.492 138.332C223.224 138.15 222.903 138.059 222.53 138.059C222.158 138.059 221.837 138.15 221.568 138.332C221.308 138.505 221.109 138.744 220.97 139.047C220.832 139.35 220.762 139.697 220.762 140.087V140.126ZM227.439 144C227.352 144 227.278 143.974 227.218 143.922C227.166 143.861 227.14 143.788 227.14 143.701V137.552C227.14 137.465 227.166 137.392 227.218 137.331C227.278 137.27 227.352 137.24 227.439 137.24H228.037C228.123 137.24 228.197 137.27 228.258 137.331C228.318 137.392 228.349 137.465 228.349 137.552V138.124C228.522 137.829 228.76 137.608 229.064 137.461C229.367 137.314 229.731 137.24 230.156 137.24H230.676C230.762 137.24 230.832 137.27 230.884 137.331C230.936 137.383 230.962 137.452 230.962 137.539V138.072C230.962 138.159 230.936 138.228 230.884 138.28C230.832 138.332 230.762 138.358 230.676 138.358H229.896C229.428 138.358 229.059 138.497 228.791 138.774C228.522 139.043 228.388 139.411 228.388 139.879V143.701C228.388 143.788 228.357 143.861 228.297 143.922C228.236 143.974 228.162 144 228.076 144H227.439ZM232.403 144C232.316 144 232.243 143.974 232.182 143.922C232.13 143.861 232.104 143.788 232.104 143.701V137.539C232.104 137.452 232.13 137.383 232.182 137.331C232.243 137.27 232.316 137.24 232.403 137.24H233.027C233.114 137.24 233.183 137.27 233.235 137.331C233.287 137.383 233.313 137.452 233.313 137.539V143.701C233.313 143.788 233.287 143.861 233.235 143.922C233.183 143.974 233.114 144 233.027 144H232.403ZM232.299 135.979C232.212 135.979 232.139 135.953 232.078 135.901C232.026 135.84 232 135.767 232 135.68V134.978C232 134.891 232.026 134.822 232.078 134.77C232.139 134.709 232.212 134.679 232.299 134.679H233.118C233.205 134.679 233.274 134.709 233.326 134.77C233.387 134.822 233.417 134.891 233.417 134.978V135.68C233.417 135.767 233.387 135.84 233.326 135.901C233.274 135.953 233.205 135.979 233.118 135.979H232.299ZM237.164 144.13C236.73 144.13 236.336 144.043 235.981 143.87C235.625 143.697 235.339 143.463 235.123 143.168C234.906 142.873 234.798 142.54 234.798 142.167C234.798 141.569 235.04 141.092 235.526 140.737C236.011 140.382 236.644 140.148 237.424 140.035L239.361 139.762V139.385C239.361 138.969 239.239 138.644 238.997 138.41C238.763 138.176 238.377 138.059 237.84 138.059C237.45 138.059 237.133 138.137 236.891 138.293C236.657 138.449 236.492 138.648 236.397 138.891C236.345 139.021 236.254 139.086 236.124 139.086H235.539C235.443 139.086 235.37 139.06 235.318 139.008C235.274 138.947 235.253 138.878 235.253 138.8C235.253 138.67 235.3 138.51 235.396 138.319C235.5 138.128 235.656 137.942 235.864 137.76C236.072 137.578 236.336 137.426 236.657 137.305C236.986 137.175 237.385 137.11 237.853 137.11C238.373 137.11 238.81 137.179 239.166 137.318C239.521 137.448 239.798 137.626 239.998 137.851C240.206 138.076 240.353 138.332 240.44 138.618C240.535 138.904 240.583 139.194 240.583 139.489V143.701C240.583 143.788 240.552 143.861 240.492 143.922C240.44 143.974 240.37 144 240.284 144H239.686C239.59 144 239.517 143.974 239.465 143.922C239.413 143.861 239.387 143.788 239.387 143.701V143.142C239.274 143.298 239.122 143.454 238.932 143.61C238.741 143.757 238.503 143.883 238.217 143.987C237.931 144.082 237.58 144.13 237.164 144.13ZM237.437 143.155C237.792 143.155 238.117 143.081 238.412 142.934C238.706 142.778 238.936 142.54 239.101 142.219C239.274 141.898 239.361 141.495 239.361 141.01V140.646L237.853 140.867C237.237 140.954 236.774 141.101 236.462 141.309C236.15 141.508 235.994 141.764 235.994 142.076C235.994 142.319 236.063 142.522 236.202 142.687C236.349 142.843 236.531 142.96 236.748 143.038C236.973 143.116 237.203 143.155 237.437 143.155Z" fill="#D5D2D2"/>
<path d="M153.264 116.18C152.148 116.18 151.2 115.988 150.42 115.604C149.652 115.208 149.064 114.65 148.656 113.93C148.248 113.198 148.02 112.322 147.972 111.302C147.96 110.81 147.954 110.282 147.954 109.718C147.954 109.154 147.96 108.614 147.972 108.098C148.02 107.09 148.248 106.22 148.656 105.488C149.076 104.756 149.67 104.198 150.438 103.814C151.218 103.418 152.16 103.22 153.264 103.22C154.08 103.22 154.812 103.328 155.46 103.544C156.108 103.76 156.66 104.06 157.116 104.444C157.572 104.816 157.926 105.254 158.178 105.758C158.43 106.262 158.562 106.808 158.574 107.396C158.586 107.504 158.55 107.594 158.466 107.666C158.394 107.738 158.304 107.774 158.196 107.774H156.486C156.354 107.774 156.246 107.744 156.162 107.684C156.078 107.612 156.018 107.498 155.982 107.342C155.79 106.55 155.46 106.01 154.992 105.722C154.524 105.434 153.942 105.29 153.246 105.29C152.442 105.29 151.8 105.518 151.32 105.974C150.84 106.418 150.582 107.156 150.546 108.188C150.51 109.172 150.51 110.18 150.546 111.212C150.582 112.244 150.84 112.988 151.32 113.444C151.8 113.888 152.442 114.11 153.246 114.11C153.942 114.11 154.524 113.966 154.992 113.678C155.46 113.378 155.79 112.838 155.982 112.058C156.018 111.89 156.078 111.776 156.162 111.716C156.246 111.656 156.354 111.626 156.486 111.626H158.196C158.304 111.626 158.394 111.662 158.466 111.734C158.55 111.806 158.586 111.896 158.574 112.004C158.562 112.592 158.43 113.138 158.178 113.642C157.926 114.146 157.572 114.59 157.116 114.974C156.66 115.346 156.108 115.64 155.46 115.856C154.812 116.072 154.08 116.18 153.264 116.18ZM163.247 116.18C162.623 116.18 162.059 116.06 161.555 115.82C161.051 115.568 160.649 115.238 160.349 114.83C160.061 114.41 159.917 113.942 159.917 113.426C159.917 112.586 160.253 111.92 160.925 111.428C161.609 110.924 162.509 110.588 163.625 110.42L166.091 110.06V109.682C166.091 109.178 165.965 108.788 165.713 108.512C165.461 108.236 165.029 108.098 164.417 108.098C163.985 108.098 163.631 108.188 163.355 108.368C163.091 108.536 162.893 108.764 162.761 109.052C162.665 109.208 162.527 109.286 162.347 109.286H160.925C160.793 109.286 160.691 109.25 160.619 109.178C160.559 109.106 160.529 109.01 160.529 108.89C160.541 108.698 160.619 108.464 160.763 108.188C160.907 107.912 161.135 107.648 161.447 107.396C161.759 107.132 162.161 106.91 162.653 106.73C163.145 106.55 163.739 106.46 164.435 106.46C165.191 106.46 165.827 106.556 166.343 106.748C166.871 106.928 167.291 107.174 167.603 107.486C167.915 107.798 168.143 108.164 168.287 108.584C168.431 109.004 168.503 109.448 168.503 109.916V115.568C168.503 115.688 168.461 115.79 168.377 115.874C168.293 115.958 168.191 116 168.071 116H166.613C166.481 116 166.373 115.958 166.289 115.874C166.217 115.79 166.181 115.688 166.181 115.568V114.866C166.025 115.094 165.815 115.31 165.551 115.514C165.287 115.706 164.963 115.868 164.579 116C164.207 116.12 163.763 116.18 163.247 116.18ZM163.859 114.47C164.279 114.47 164.657 114.38 164.993 114.2C165.341 114.02 165.611 113.744 165.803 113.372C166.007 112.988 166.109 112.508 166.109 111.932V111.554L164.309 111.842C163.601 111.95 163.073 112.124 162.725 112.364C162.377 112.604 162.203 112.898 162.203 113.246C162.203 113.51 162.281 113.738 162.437 113.93C162.605 114.11 162.815 114.248 163.067 114.344C163.319 114.428 163.583 114.47 163.859 114.47ZM171.28 116C171.16 116 171.058 115.958 170.974 115.874C170.89 115.79 170.848 115.688 170.848 115.568V107.072C170.848 106.952 170.89 106.85 170.974 106.766C171.058 106.682 171.16 106.64 171.28 106.64H172.684C172.804 106.64 172.906 106.682 172.99 106.766C173.074 106.85 173.116 106.952 173.116 107.072V107.684C173.368 107.348 173.704 107.066 174.124 106.838C174.556 106.598 175.066 106.472 175.654 106.46C177.022 106.436 177.976 106.97 178.516 108.062C178.792 107.582 179.188 107.198 179.704 106.91C180.232 106.61 180.814 106.46 181.45 106.46C182.074 106.46 182.638 106.604 183.142 106.892C183.658 107.18 184.06 107.618 184.348 108.206C184.648 108.782 184.798 109.514 184.798 110.402V115.568C184.798 115.688 184.756 115.79 184.672 115.874C184.588 115.958 184.486 116 184.366 116H182.89C182.77 116 182.668 115.958 182.584 115.874C182.5 115.79 182.458 115.688 182.458 115.568V110.546C182.458 110.006 182.38 109.58 182.224 109.268C182.068 108.944 181.858 108.716 181.594 108.584C181.33 108.452 181.036 108.386 180.712 108.386C180.448 108.386 180.184 108.452 179.92 108.584C179.656 108.716 179.44 108.944 179.272 109.268C179.104 109.58 179.02 110.006 179.02 110.546V115.568C179.02 115.688 178.978 115.79 178.894 115.874C178.81 115.958 178.708 116 178.588 116H177.112C176.98 116 176.872 115.958 176.788 115.874C176.716 115.79 176.68 115.688 176.68 115.568V110.546C176.68 110.006 176.596 109.58 176.428 109.268C176.26 108.944 176.044 108.716 175.78 108.584C175.516 108.452 175.234 108.386 174.934 108.386C174.658 108.386 174.388 108.458 174.124 108.602C173.86 108.734 173.644 108.956 173.476 109.268C173.308 109.58 173.224 110.006 173.224 110.546V115.568C173.224 115.688 173.182 115.79 173.098 115.874C173.014 115.958 172.912 116 172.792 116H171.28ZM191.158 116.18C189.826 116.18 188.77 115.796 187.99 115.028C187.21 114.26 186.79 113.168 186.73 111.752C186.718 111.632 186.712 111.482 186.712 111.302C186.712 111.11 186.718 110.96 186.73 110.852C186.778 109.952 186.982 109.172 187.342 108.512C187.714 107.852 188.224 107.348 188.872 107C189.52 106.64 190.282 106.46 191.158 106.46C192.13 106.46 192.946 106.664 193.606 107.072C194.266 107.468 194.764 108.026 195.1 108.746C195.436 109.454 195.604 110.276 195.604 111.212V111.59C195.604 111.71 195.562 111.812 195.478 111.896C195.394 111.98 195.286 112.022 195.154 112.022H189.178C189.178 112.022 189.178 112.04 189.178 112.076C189.178 112.112 189.178 112.142 189.178 112.166C189.19 112.586 189.268 112.976 189.412 113.336C189.568 113.684 189.79 113.966 190.078 114.182C190.378 114.398 190.732 114.506 191.14 114.506C191.476 114.506 191.758 114.458 191.986 114.362C192.214 114.254 192.4 114.134 192.544 114.002C192.688 113.87 192.79 113.762 192.85 113.678C192.958 113.534 193.042 113.45 193.102 113.426C193.174 113.39 193.276 113.372 193.408 113.372H194.956C195.076 113.372 195.172 113.408 195.244 113.48C195.328 113.552 195.364 113.642 195.352 113.75C195.34 113.942 195.238 114.176 195.046 114.452C194.866 114.728 194.602 114.998 194.254 115.262C193.906 115.526 193.468 115.748 192.94 115.928C192.424 116.096 191.83 116.18 191.158 116.18ZM189.178 110.51H193.156V110.456C193.156 109.988 193.078 109.58 192.922 109.232C192.766 108.884 192.538 108.608 192.238 108.404C191.938 108.2 191.578 108.098 191.158 108.098C190.738 108.098 190.378 108.2 190.078 108.404C189.778 108.608 189.55 108.884 189.394 109.232C189.25 109.58 189.178 109.988 189.178 110.456V110.51ZM197.983 116C197.863 116 197.761 115.958 197.677 115.874C197.593 115.79 197.551 115.688 197.551 115.568V107.09C197.551 106.958 197.593 106.85 197.677 106.766C197.761 106.682 197.863 106.64 197.983 106.64H199.441C199.561 106.64 199.663 106.682 199.747 106.766C199.843 106.85 199.891 106.958 199.891 107.09V107.828C200.167 107.444 200.521 107.15 200.953 106.946C201.397 106.742 201.907 106.64 202.483 106.64H203.221C203.353 106.64 203.455 106.682 203.527 106.766C203.611 106.85 203.653 106.952 203.653 107.072V108.368C203.653 108.488 203.611 108.59 203.527 108.674C203.455 108.758 203.353 108.8 203.221 108.8H201.817C201.241 108.8 200.791 108.962 200.467 109.286C200.155 109.61 199.999 110.054 199.999 110.618V115.568C199.999 115.688 199.957 115.79 199.873 115.874C199.789 115.958 199.681 116 199.549 116H197.983ZM207.67 116.18C207.046 116.18 206.482 116.06 205.978 115.82C205.474 115.568 205.072 115.238 204.772 114.83C204.484 114.41 204.34 113.942 204.34 113.426C204.34 112.586 204.676 111.92 205.348 111.428C206.032 110.924 206.932 110.588 208.048 110.42L210.514 110.06V109.682C210.514 109.178 210.388 108.788 210.136 108.512C209.884 108.236 209.452 108.098 208.84 108.098C208.408 108.098 208.054 108.188 207.778 108.368C207.514 108.536 207.316 108.764 207.184 109.052C207.088 109.208 206.95 109.286 206.77 109.286H205.348C205.216 109.286 205.114 109.25 205.042 109.178C204.982 109.106 204.952 109.01 204.952 108.89C204.964 108.698 205.042 108.464 205.186 108.188C205.33 107.912 205.558 107.648 205.87 107.396C206.182 107.132 206.584 106.91 207.076 106.73C207.568 106.55 208.162 106.46 208.858 106.46C209.614 106.46 210.25 106.556 210.766 106.748C211.294 106.928 211.714 107.174 212.026 107.486C212.338 107.798 212.566 108.164 212.71 108.584C212.854 109.004 212.926 109.448 212.926 109.916V115.568C212.926 115.688 212.884 115.79 212.8 115.874C212.716 115.958 212.614 116 212.494 116H211.036C210.904 116 210.796 115.958 210.712 115.874C210.64 115.79 210.604 115.688 210.604 115.568V114.866C210.448 115.094 210.238 115.31 209.974 115.514C209.71 115.706 209.386 115.868 209.002 116C208.63 116.12 208.186 116.18 207.67 116.18ZM208.282 114.47C208.702 114.47 209.08 114.38 209.416 114.2C209.764 114.02 210.034 113.744 210.226 113.372C210.43 112.988 210.532 112.508 210.532 111.932V111.554L208.732 111.842C208.024 111.95 207.496 112.124 207.148 112.364C206.8 112.604 206.626 112.898 206.626 113.246C206.626 113.51 206.704 113.738 206.86 113.93C207.028 114.11 207.238 114.248 207.49 114.344C207.742 114.428 208.006 114.47 208.282 114.47ZM221.112 115.298C221.004 115.298 220.908 115.262 220.824 115.19C220.752 115.118 220.722 115.028 220.734 114.92L221.022 112.958H219.492C219.372 112.958 219.27 112.922 219.186 112.85C219.114 112.766 219.078 112.664 219.078 112.544V111.536C219.078 111.404 219.114 111.302 219.186 111.23C219.27 111.158 219.372 111.122 219.492 111.122H221.292L221.706 108.386H219.96C219.84 108.386 219.738 108.35 219.654 108.278C219.582 108.194 219.546 108.092 219.546 107.972V106.964C219.546 106.832 219.582 106.73 219.654 106.658C219.738 106.586 219.84 106.55 219.96 106.55H221.976L222.282 104.588C222.306 104.492 222.348 104.408 222.408 104.336C222.48 104.252 222.576 104.21 222.696 104.21H223.74C223.848 104.21 223.938 104.246 224.01 104.318C224.082 104.39 224.112 104.48 224.1 104.588L223.812 106.55H226.062L226.368 104.588C226.392 104.492 226.434 104.408 226.494 104.336C226.566 104.252 226.662 104.21 226.782 104.21H227.826C227.934 104.21 228.024 104.246 228.096 104.318C228.168 104.39 228.198 104.48 228.186 104.588L227.898 106.55H229.41C229.53 106.55 229.626 106.586 229.698 106.658C229.782 106.73 229.824 106.832 229.824 106.964V107.972C229.824 108.092 229.782 108.194 229.698 108.278C229.626 108.35 229.53 108.386 229.41 108.386H227.628L227.232 111.122H228.942C229.062 111.122 229.158 111.158 229.23 111.23C229.314 111.302 229.356 111.404 229.356 111.536V112.544C229.356 112.664 229.314 112.766 229.23 112.85C229.158 112.922 229.062 112.958 228.942 112.958H226.944L226.656 114.92C226.62 115.172 226.482 115.298 226.242 115.298H225.198C225.09 115.298 224.994 115.262 224.91 115.19C224.838 115.118 224.808 115.028 224.82 114.92L225.108 112.958H222.858L222.57 114.92C222.534 115.172 222.396 115.298 222.156 115.298H221.112ZM223.146 111.122H225.378L225.792 108.386H223.542L223.146 111.122ZM231.956 116C231.836 116 231.734 115.958 231.65 115.874C231.566 115.79 231.524 115.688 231.524 115.568V114.65C231.524 114.542 231.548 114.416 231.596 114.272C231.656 114.116 231.782 113.96 231.974 113.804L234.818 110.978C235.61 110.354 236.246 109.826 236.726 109.394C237.218 108.95 237.572 108.548 237.788 108.188C238.016 107.816 238.13 107.45 238.13 107.09C238.13 106.55 237.98 106.112 237.68 105.776C237.392 105.44 236.93 105.272 236.294 105.272C235.874 105.272 235.52 105.362 235.232 105.542C234.944 105.71 234.716 105.938 234.548 106.226C234.392 106.514 234.284 106.832 234.224 107.18C234.2 107.336 234.134 107.444 234.026 107.504C233.918 107.564 233.81 107.594 233.702 107.594H232.1C231.992 107.594 231.902 107.558 231.83 107.486C231.758 107.414 231.722 107.33 231.722 107.234C231.734 106.718 231.842 106.22 232.046 105.74C232.25 105.248 232.544 104.816 232.928 104.444C233.324 104.06 233.804 103.754 234.368 103.526C234.932 103.298 235.568 103.184 236.276 103.184C237.272 103.184 238.094 103.352 238.742 103.688C239.402 104.024 239.894 104.48 240.218 105.056C240.554 105.632 240.722 106.28 240.722 107C240.722 107.564 240.614 108.086 240.398 108.566C240.182 109.034 239.87 109.49 239.462 109.934C239.054 110.366 238.562 110.81 237.986 111.266L235.43 113.858H240.56C240.692 113.858 240.794 113.9 240.866 113.984C240.95 114.056 240.992 114.158 240.992 114.29V115.568C240.992 115.688 240.95 115.79 240.866 115.874C240.794 115.958 240.692 116 240.56 116H231.956Z" fill="#3887BE"/>
<circle cx="248" cy="109.5" r="5" fill="#BE3838"/>
<rect x="290.5" y="34.5" width="59" height="59" rx="29.5" fill="#271245"/>
<rect x="290.5" y="34.5" width="59" height="59" rx="29.5" stroke="#38419D"/>
<path d="M314 56.8003C312.535 56.8047 311.725 56.8397 311.058 57.1193C310.125 57.5109 309.366 58.2343 308.922 59.1536C308.559 59.9039 308.5 60.8653 308.382 62.7879L308.196 65.8008C307.901 70.5821 307.753 72.9727 309.156 74.4863C310.559 75.9997 312.923 75.9997 317.65 75.9997H322.35C327.077 75.9997 329.441 75.9997 330.844 74.4863C332.247 72.9727 332.099 70.5821 331.804 65.8008L331.618 62.7879C331.5 60.8653 331.441 59.9039 331.078 59.1536C330.634 58.2343 329.875 57.5109 328.942 57.1193C328.275 56.8397 327.465 56.8047 326 56.8003" stroke="white" stroke-width="1.5" stroke-linecap="round"/>
<path d="M326 58L324.937 55.3425C324.478 54.196 324.079 52.8953 322.9 52.3115C322.271 52 321.514 52 320 52C318.486 52 317.729 52 317.1 52.3115C315.921 52.8953 315.522 54.196 315.063 55.3425L314 58" stroke="white" stroke-width="1.5" stroke-linecap="round" stroke-linejoin="round"/>
<path d="M324.2 66.4002C324.2 68.7198 322.319 70.6002 320 70.6002C317.68 70.6002 315.8 68.7198 315.8 66.4002C315.8 64.0806 317.68 62.2002 320 62.2002C322.319 62.2002 324.2 64.0806 324.2 66.4002Z" stroke="white" stroke-width="1.5"/>
<path d="M320 56.7998H320.011" stroke="white" stroke-width="2" stroke-linecap="round" stroke-linejoin="round"/>
<path d="M279.52 144C279.451 144 279.39 143.974 279.338 143.922C279.286 143.87 279.26 143.809 279.26 143.74C279.26 143.697 279.264 143.649 279.273 143.597L282.497 135.186C282.532 135.099 282.579 135.03 282.64 134.978C282.701 134.926 282.792 134.9 282.913 134.9H283.797C283.91 134.9 283.996 134.926 284.057 134.978C284.126 135.03 284.178 135.099 284.213 135.186L287.424 143.597C287.441 143.649 287.45 143.697 287.45 143.74C287.45 143.809 287.424 143.87 287.372 143.922C287.32 143.974 287.259 144 287.19 144H286.527C286.423 144 286.345 143.974 286.293 143.922C286.25 143.87 286.219 143.822 286.202 143.779L285.487 141.933H281.223L280.508 143.779C280.499 143.822 280.469 143.87 280.417 143.922C280.365 143.974 280.287 144 280.183 144H279.52ZM281.6 140.815H285.11L283.355 136.2L281.6 140.815ZM289.009 144C288.922 144 288.849 143.974 288.788 143.922C288.736 143.861 288.71 143.788 288.71 143.701V135.069C288.71 134.982 288.736 134.913 288.788 134.861C288.849 134.8 288.922 134.77 289.009 134.77H289.62C289.715 134.77 289.789 134.8 289.841 134.861C289.893 134.913 289.919 134.982 289.919 135.069V143.701C289.919 143.788 289.893 143.861 289.841 143.922C289.789 143.974 289.715 144 289.62 144H289.009ZM294.653 146.86C294.064 146.86 293.578 146.782 293.197 146.626C292.824 146.47 292.53 146.279 292.313 146.054C292.105 145.837 291.953 145.616 291.858 145.391C291.771 145.174 291.724 145.001 291.715 144.871C291.706 144.784 291.732 144.711 291.793 144.65C291.862 144.589 291.936 144.559 292.014 144.559H292.638C292.716 144.559 292.781 144.576 292.833 144.611C292.885 144.646 292.928 144.719 292.963 144.832C293.015 144.962 293.093 145.105 293.197 145.261C293.301 145.426 293.461 145.564 293.678 145.677C293.895 145.798 294.198 145.859 294.588 145.859C294.995 145.859 295.338 145.803 295.615 145.69C295.892 145.586 296.1 145.395 296.239 145.118C296.386 144.849 296.46 144.477 296.46 144V143.116C296.252 143.385 295.979 143.61 295.641 143.792C295.303 143.965 294.878 144.052 294.367 144.052C293.882 144.052 293.466 143.97 293.119 143.805C292.772 143.632 292.486 143.402 292.261 143.116C292.044 142.821 291.88 142.488 291.767 142.115C291.663 141.742 291.602 141.352 291.585 140.945C291.576 140.702 291.576 140.464 291.585 140.23C291.602 139.823 291.663 139.433 291.767 139.06C291.88 138.687 292.044 138.354 292.261 138.059C292.486 137.764 292.772 137.535 293.119 137.37C293.466 137.197 293.882 137.11 294.367 137.11C294.887 137.11 295.316 137.21 295.654 137.409C296.001 137.6 296.282 137.834 296.499 138.111V137.552C296.499 137.465 296.525 137.392 296.577 137.331C296.638 137.27 296.711 137.24 296.798 137.24H297.396C297.483 137.24 297.556 137.27 297.617 137.331C297.678 137.392 297.708 137.465 297.708 137.552V143.857C297.708 144.438 297.608 144.953 297.409 145.404C297.218 145.855 296.898 146.21 296.447 146.47C296.005 146.73 295.407 146.86 294.653 146.86ZM294.627 143.012C295.06 143.012 295.407 142.912 295.667 142.713C295.936 142.514 296.131 142.262 296.252 141.959C296.382 141.656 296.451 141.348 296.46 141.036C296.469 140.915 296.473 140.767 296.473 140.594C296.473 140.412 296.469 140.26 296.46 140.139C296.451 139.827 296.382 139.519 296.252 139.216C296.131 138.913 295.936 138.661 295.667 138.462C295.407 138.263 295.06 138.163 294.627 138.163C294.194 138.163 293.847 138.263 293.587 138.462C293.327 138.653 293.141 138.908 293.028 139.229C292.915 139.541 292.85 139.879 292.833 140.243C292.824 140.468 292.824 140.698 292.833 140.932C292.85 141.296 292.915 141.638 293.028 141.959C293.141 142.271 293.327 142.527 293.587 142.726C293.847 142.917 294.194 143.012 294.627 143.012ZM302.358 144.13C301.465 144.13 300.755 143.857 300.226 143.311C299.697 142.756 299.407 142.002 299.355 141.049C299.346 140.936 299.342 140.793 299.342 140.62C299.342 140.438 299.346 140.291 299.355 140.178C299.39 139.563 299.533 139.025 299.784 138.566C300.035 138.098 300.378 137.738 300.811 137.487C301.253 137.236 301.769 137.11 302.358 137.11C303.017 137.11 303.567 137.249 304.009 137.526C304.46 137.803 304.802 138.198 305.036 138.709C305.27 139.22 305.387 139.818 305.387 140.503V140.724C305.387 140.819 305.357 140.893 305.296 140.945C305.244 140.997 305.175 141.023 305.088 141.023H300.59C300.59 141.032 300.59 141.049 300.59 141.075C300.59 141.101 300.59 141.123 300.59 141.14C300.607 141.495 300.685 141.829 300.824 142.141C300.963 142.444 301.162 142.691 301.422 142.882C301.682 143.073 301.994 143.168 302.358 143.168C302.67 143.168 302.93 143.12 303.138 143.025C303.346 142.93 303.515 142.826 303.645 142.713C303.775 142.592 303.862 142.501 303.905 142.44C303.983 142.327 304.044 142.262 304.087 142.245C304.13 142.219 304.2 142.206 304.295 142.206H304.919C305.006 142.206 305.075 142.232 305.127 142.284C305.188 142.327 305.214 142.392 305.205 142.479C305.196 142.609 305.127 142.769 304.997 142.96C304.867 143.142 304.681 143.324 304.438 143.506C304.195 143.688 303.901 143.84 303.554 143.961C303.207 144.074 302.809 144.13 302.358 144.13ZM300.59 140.126H304.152V140.087C304.152 139.697 304.078 139.35 303.931 139.047C303.792 138.744 303.589 138.505 303.32 138.332C303.051 138.15 302.731 138.059 302.358 138.059C301.985 138.059 301.665 138.15 301.396 138.332C301.136 138.505 300.937 138.744 300.798 139.047C300.659 139.35 300.59 139.697 300.59 140.087V140.126ZM307.266 144C307.18 144 307.106 143.974 307.045 143.922C306.993 143.861 306.967 143.788 306.967 143.701V137.552C306.967 137.465 306.993 137.392 307.045 137.331C307.106 137.27 307.18 137.24 307.266 137.24H307.864C307.951 137.24 308.025 137.27 308.085 137.331C308.146 137.392 308.176 137.465 308.176 137.552V138.124C308.35 137.829 308.588 137.608 308.891 137.461C309.195 137.314 309.559 137.24 309.983 137.24H310.503C310.59 137.24 310.659 137.27 310.711 137.331C310.763 137.383 310.789 137.452 310.789 137.539V138.072C310.789 138.159 310.763 138.228 310.711 138.28C310.659 138.332 310.59 138.358 310.503 138.358H309.723C309.255 138.358 308.887 138.497 308.618 138.774C308.35 139.043 308.215 139.411 308.215 139.879V143.701C308.215 143.788 308.185 143.861 308.124 143.922C308.064 143.974 307.99 144 307.903 144H307.266ZM311.143 144.975C311.073 144.975 311.017 144.949 310.974 144.897C310.939 144.845 310.926 144.78 310.935 144.702L311.234 142.843C311.251 142.739 311.286 142.652 311.338 142.583C311.398 142.505 311.485 142.466 311.598 142.466H312.469C312.529 142.466 312.577 142.488 312.612 142.531C312.655 142.574 312.677 142.626 312.677 142.687C312.677 142.756 312.659 142.826 312.625 142.895L311.949 144.676C311.914 144.763 311.866 144.832 311.806 144.884C311.754 144.945 311.676 144.975 311.572 144.975H311.143ZM314.055 144C313.986 144 313.925 143.974 313.873 143.922C313.821 143.87 313.795 143.809 313.795 143.74C313.795 143.697 313.799 143.649 313.808 143.597L317.032 135.186C317.067 135.099 317.114 135.03 317.175 134.978C317.236 134.926 317.327 134.9 317.448 134.9H318.332C318.445 134.9 318.531 134.926 318.592 134.978C318.661 135.03 318.713 135.099 318.748 135.186L321.959 143.597C321.976 143.649 321.985 143.697 321.985 143.74C321.985 143.809 321.959 143.87 321.907 143.922C321.855 143.974 321.794 144 321.725 144H321.062C320.958 144 320.88 143.974 320.828 143.922C320.785 143.87 320.754 143.822 320.737 143.779L320.022 141.933H315.758L315.043 143.779C315.034 143.822 315.004 143.87 314.952 143.922C314.9 143.974 314.822 144 314.718 144H314.055ZM316.135 140.815H319.645L317.89 136.2L316.135 140.815ZM323.544 144C323.457 144 323.384 143.974 323.323 143.922C323.271 143.861 323.245 143.788 323.245 143.701V135.069C323.245 134.982 323.271 134.913 323.323 134.861C323.384 134.8 323.457 134.77 323.544 134.77H324.155C324.25 134.77 324.324 134.8 324.376 134.861C324.428 134.913 324.454 134.982 324.454 135.069V143.701C324.454 143.788 324.428 143.861 324.376 143.922C324.324 143.974 324.25 144 324.155 144H323.544ZM329.188 146.86C328.599 146.86 328.113 146.782 327.732 146.626C327.359 146.47 327.065 146.279 326.848 146.054C326.64 145.837 326.488 145.616 326.393 145.391C326.306 145.174 326.259 145.001 326.25 144.871C326.241 144.784 326.267 144.711 326.328 144.65C326.397 144.589 326.471 144.559 326.549 144.559H327.173C327.251 144.559 327.316 144.576 327.368 144.611C327.42 144.646 327.463 144.719 327.498 144.832C327.55 144.962 327.628 145.105 327.732 145.261C327.836 145.426 327.996 145.564 328.213 145.677C328.43 145.798 328.733 145.859 329.123 145.859C329.53 145.859 329.873 145.803 330.15 145.69C330.427 145.586 330.635 145.395 330.774 145.118C330.921 144.849 330.995 144.477 330.995 144V143.116C330.787 143.385 330.514 143.61 330.176 143.792C329.838 143.965 329.413 144.052 328.902 144.052C328.417 144.052 328.001 143.97 327.654 143.805C327.307 143.632 327.021 143.402 326.796 143.116C326.579 142.821 326.415 142.488 326.302 142.115C326.198 141.742 326.137 141.352 326.12 140.945C326.111 140.702 326.111 140.464 326.12 140.23C326.137 139.823 326.198 139.433 326.302 139.06C326.415 138.687 326.579 138.354 326.796 138.059C327.021 137.764 327.307 137.535 327.654 137.37C328.001 137.197 328.417 137.11 328.902 137.11C329.422 137.11 329.851 137.21 330.189 137.409C330.536 137.6 330.817 137.834 331.034 138.111V137.552C331.034 137.465 331.06 137.392 331.112 137.331C331.173 137.27 331.246 137.24 331.333 137.24H331.931C332.018 137.24 332.091 137.27 332.152 137.331C332.213 137.392 332.243 137.465 332.243 137.552V143.857C332.243 144.438 332.143 144.953 331.944 145.404C331.753 145.855 331.433 146.21 330.982 146.47C330.54 146.73 329.942 146.86 329.188 146.86ZM329.162 143.012C329.595 143.012 329.942 142.912 330.202 142.713C330.471 142.514 330.666 142.262 330.787 141.959C330.917 141.656 330.986 141.348 330.995 141.036C331.004 140.915 331.008 140.767 331.008 140.594C331.008 140.412 331.004 140.26 330.995 140.139C330.986 139.827 330.917 139.519 330.787 139.216C330.666 138.913 330.471 138.661 330.202 138.462C329.942 138.263 329.595 138.163 329.162 138.163C328.729 138.163 328.382 138.263 328.122 138.462C327.862 138.653 327.676 138.908 327.563 139.229C327.45 139.541 327.385 139.879 327.368 140.243C327.359 140.468 327.359 140.698 327.368 140.932C327.385 141.296 327.45 141.638 327.563 141.959C327.676 142.271 327.862 142.527 328.122 142.726C328.382 142.917 328.729 143.012 329.162 143.012ZM336.893 144.13C336 144.13 335.29 143.857 334.761 143.311C334.232 142.756 333.942 142.002 333.89 141.049C333.881 140.936 333.877 140.793 333.877 140.62C333.877 140.438 333.881 140.291 333.89 140.178C333.925 139.563 334.068 139.025 334.319 138.566C334.57 138.098 334.913 137.738 335.346 137.487C335.788 137.236 336.304 137.11 336.893 137.11C337.552 137.11 338.102 137.249 338.544 137.526C338.995 137.803 339.337 138.198 339.571 138.709C339.805 139.22 339.922 139.818 339.922 140.503V140.724C339.922 140.819 339.892 140.893 339.831 140.945C339.779 140.997 339.71 141.023 339.623 141.023H335.125C335.125 141.032 335.125 141.049 335.125 141.075C335.125 141.101 335.125 141.123 335.125 141.14C335.142 141.495 335.22 141.829 335.359 142.141C335.498 142.444 335.697 142.691 335.957 142.882C336.217 143.073 336.529 143.168 336.893 143.168C337.205 143.168 337.465 143.12 337.673 143.025C337.881 142.93 338.05 142.826 338.18 142.713C338.31 142.592 338.397 142.501 338.44 142.44C338.518 142.327 338.579 142.262 338.622 142.245C338.665 142.219 338.735 142.206 338.83 142.206H339.454C339.541 142.206 339.61 142.232 339.662 142.284C339.723 142.327 339.749 142.392 339.74 142.479C339.731 142.609 339.662 142.769 339.532 142.96C339.402 143.142 339.216 143.324 338.973 143.506C338.73 143.688 338.436 143.84 338.089 143.961C337.742 144.074 337.344 144.13 336.893 144.13ZM335.125 140.126H338.687V140.087C338.687 139.697 338.613 139.35 338.466 139.047C338.327 138.744 338.124 138.505 337.855 138.332C337.586 138.15 337.266 138.059 336.893 138.059C336.52 138.059 336.2 138.15 335.931 138.332C335.671 138.505 335.472 138.744 335.333 139.047C335.194 139.35 335.125 139.697 335.125 140.087V140.126ZM341.801 144C341.715 144 341.641 143.974 341.58 143.922C341.528 143.861 341.502 143.788 341.502 143.701V137.552C341.502 137.465 341.528 137.392 341.58 137.331C341.641 137.27 341.715 137.24 341.801 137.24H342.399C342.486 137.24 342.56 137.27 342.62 137.331C342.681 137.392 342.711 137.465 342.711 137.552V138.124C342.885 137.829 343.123 137.608 343.426 137.461C343.73 137.314 344.094 137.24 344.518 137.24H345.038C345.125 137.24 345.194 137.27 345.246 137.331C345.298 137.383 345.324 137.452 345.324 137.539V138.072C345.324 138.159 345.298 138.228 345.246 138.28C345.194 138.332 345.125 138.358 345.038 138.358H344.258C343.79 138.358 343.422 138.497 343.153 138.774C342.885 139.043 342.75 139.411 342.75 139.879V143.701C342.75 143.788 342.72 143.861 342.659 143.922C342.599 143.974 342.525 144 342.438 144H341.801ZM346.766 144C346.679 144 346.605 143.974 346.545 143.922C346.493 143.861 346.467 143.788 346.467 143.701V137.539C346.467 137.452 346.493 137.383 346.545 137.331C346.605 137.27 346.679 137.24 346.766 137.24H347.39C347.476 137.24 347.546 137.27 347.598 137.331C347.65 137.383 347.676 137.452 347.676 137.539V143.701C347.676 143.788 347.65 143.861 347.598 143.922C347.546 143.974 347.476 144 347.39 144H346.766ZM346.662 135.979C346.575 135.979 346.501 135.953 346.441 135.901C346.389 135.84 346.363 135.767 346.363 135.68V134.978C346.363 134.891 346.389 134.822 346.441 134.77C346.501 134.709 346.575 134.679 346.662 134.679H347.481C347.567 134.679 347.637 134.709 347.689 134.77C347.749 134.822 347.78 134.891 347.78 134.978V135.68C347.78 135.767 347.749 135.84 347.689 135.901C347.637 135.953 347.567 135.979 347.481 135.979H346.662ZM351.526 144.13C351.093 144.13 350.699 144.043 350.343 143.87C349.988 143.697 349.702 143.463 349.485 143.168C349.269 142.873 349.16 142.54 349.16 142.167C349.16 141.569 349.403 141.092 349.888 140.737C350.374 140.382 351.006 140.148 351.786 140.035L353.723 139.762V139.385C353.723 138.969 353.602 138.644 353.359 138.41C353.125 138.176 352.74 138.059 352.202 138.059C351.812 138.059 351.496 138.137 351.253 138.293C351.019 138.449 350.855 138.648 350.759 138.891C350.707 139.021 350.616 139.086 350.486 139.086H349.901C349.806 139.086 349.732 139.06 349.68 139.008C349.637 138.947 349.615 138.878 349.615 138.8C349.615 138.67 349.663 138.51 349.758 138.319C349.862 138.128 350.018 137.942 350.226 137.76C350.434 137.578 350.699 137.426 351.019 137.305C351.349 137.175 351.747 137.11 352.215 137.11C352.735 137.11 353.173 137.179 353.528 137.318C353.884 137.448 354.161 137.626 354.36 137.851C354.568 138.076 354.716 138.332 354.802 138.618C354.898 138.904 354.945 139.194 354.945 139.489V143.701C354.945 143.788 354.915 143.861 354.854 143.922C354.802 143.974 354.733 144 354.646 144H354.048C353.953 144 353.879 143.974 353.827 143.922C353.775 143.861 353.749 143.788 353.749 143.701V143.142C353.637 143.298 353.485 143.454 353.294 143.61C353.104 143.757 352.865 143.883 352.579 143.987C352.293 144.082 351.942 144.13 351.526 144.13ZM351.799 143.155C352.155 143.155 352.48 143.081 352.774 142.934C353.069 142.778 353.299 142.54 353.463 142.219C353.637 141.898 353.723 141.495 353.723 141.01V140.646L352.215 140.867C351.6 140.954 351.136 141.101 350.824 141.309C350.512 141.508 350.356 141.764 350.356 142.076C350.356 142.319 350.426 142.522 350.564 142.687C350.712 142.843 350.894 142.96 351.11 143.038C351.336 143.116 351.565 143.155 351.799 143.155Z" fill="#D5D2D2"/>
<path d="M272.764 116.18C271.648 116.18 270.7 115.988 269.92 115.604C269.152 115.208 268.564 114.65 268.156 113.93C267.748 113.198 267.52 112.322 267.472 111.302C267.46 110.81 267.454 110.282 267.454 109.718C267.454 109.154 267.46 108.614 267.472 108.098C267.52 107.09 267.748 106.22 268.156 105.488C268.576 104.756 269.17 104.198 269.938 103.814C270.718 103.418 271.66 103.22 272.764 103.22C273.58 103.22 274.312 103.328 274.96 103.544C275.608 103.76 276.16 104.06 276.616 104.444C277.072 104.816 277.426 105.254 277.678 105.758C277.93 106.262 278.062 106.808 278.074 107.396C278.086 107.504 278.05 107.594 277.966 107.666C277.894 107.738 277.804 107.774 277.696 107.774H275.986C275.854 107.774 275.746 107.744 275.662 107.684C275.578 107.612 275.518 107.498 275.482 107.342C275.29 106.55 274.96 106.01 274.492 105.722C274.024 105.434 273.442 105.29 272.746 105.29C271.942 105.29 271.3 105.518 270.82 105.974C270.34 106.418 270.082 107.156 270.046 108.188C270.01 109.172 270.01 110.18 270.046 111.212C270.082 112.244 270.34 112.988 270.82 113.444C271.3 113.888 271.942 114.11 272.746 114.11C273.442 114.11 274.024 113.966 274.492 113.678C274.96 113.378 275.29 112.838 275.482 112.058C275.518 111.89 275.578 111.776 275.662 111.716C275.746 111.656 275.854 111.626 275.986 111.626H277.696C277.804 111.626 277.894 111.662 277.966 111.734C278.05 111.806 278.086 111.896 278.074 112.004C278.062 112.592 277.93 113.138 277.678 113.642C277.426 114.146 277.072 114.59 276.616 114.974C276.16 115.346 275.608 115.64 274.96 115.856C274.312 116.072 273.58 116.18 272.764 116.18ZM282.747 116.18C282.123 116.18 281.559 116.06 281.055 115.82C280.551 115.568 280.149 115.238 279.849 114.83C279.561 114.41 279.417 113.942 279.417 113.426C279.417 112.586 279.753 111.92 280.425 111.428C281.109 110.924 282.009 110.588 283.125 110.42L285.591 110.06V109.682C285.591 109.178 285.465 108.788 285.213 108.512C284.961 108.236 284.529 108.098 283.917 108.098C283.485 108.098 283.131 108.188 282.855 108.368C282.591 108.536 282.393 108.764 282.261 109.052C282.165 109.208 282.027 109.286 281.847 109.286H280.425C280.293 109.286 280.191 109.25 280.119 109.178C280.059 109.106 280.029 109.01 280.029 108.89C280.041 108.698 280.119 108.464 280.263 108.188C280.407 107.912 280.635 107.648 280.947 107.396C281.259 107.132 281.661 106.91 282.153 106.73C282.645 106.55 283.239 106.46 283.935 106.46C284.691 106.46 285.327 106.556 285.843 106.748C286.371 106.928 286.791 107.174 287.103 107.486C287.415 107.798 287.643 108.164 287.787 108.584C287.931 109.004 288.003 109.448 288.003 109.916V115.568C288.003 115.688 287.961 115.79 287.877 115.874C287.793 115.958 287.691 116 287.571 116H286.113C285.981 116 285.873 115.958 285.789 115.874C285.717 115.79 285.681 115.688 285.681 115.568V114.866C285.525 115.094 285.315 115.31 285.051 115.514C284.787 115.706 284.463 115.868 284.079 116C283.707 116.12 283.263 116.18 282.747 116.18ZM283.359 114.47C283.779 114.47 284.157 114.38 284.493 114.2C284.841 114.02 285.111 113.744 285.303 113.372C285.507 112.988 285.609 112.508 285.609 111.932V111.554L283.809 111.842C283.101 111.95 282.573 112.124 282.225 112.364C281.877 112.604 281.703 112.898 281.703 113.246C281.703 113.51 281.781 113.738 281.937 113.93C282.105 114.11 282.315 114.248 282.567 114.344C282.819 114.428 283.083 114.47 283.359 114.47ZM290.78 116C290.66 116 290.558 115.958 290.474 115.874C290.39 115.79 290.348 115.688 290.348 115.568V107.072C290.348 106.952 290.39 106.85 290.474 106.766C290.558 106.682 290.66 106.64 290.78 106.64H292.184C292.304 106.64 292.406 106.682 292.49 106.766C292.574 106.85 292.616 106.952 292.616 107.072V107.684C292.868 107.348 293.204 107.066 293.624 106.838C294.056 106.598 294.566 106.472 295.154 106.46C296.522 106.436 297.476 106.97 298.016 108.062C298.292 107.582 298.688 107.198 299.204 106.91C299.732 106.61 300.314 106.46 300.95 106.46C301.574 106.46 302.138 106.604 302.642 106.892C303.158 107.18 303.56 107.618 303.848 108.206C304.148 108.782 304.298 109.514 304.298 110.402V115.568C304.298 115.688 304.256 115.79 304.172 115.874C304.088 115.958 303.986 116 303.866 116H302.39C302.27 116 302.168 115.958 302.084 115.874C302 115.79 301.958 115.688 301.958 115.568V110.546C301.958 110.006 301.88 109.58 301.724 109.268C301.568 108.944 301.358 108.716 301.094 108.584C300.83 108.452 300.536 108.386 300.212 108.386C299.948 108.386 299.684 108.452 299.42 108.584C299.156 108.716 298.94 108.944 298.772 109.268C298.604 109.58 298.52 110.006 298.52 110.546V115.568C298.52 115.688 298.478 115.79 298.394 115.874C298.31 115.958 298.208 116 298.088 116H296.612C296.48 116 296.372 115.958 296.288 115.874C296.216 115.79 296.18 115.688 296.18 115.568V110.546C296.18 110.006 296.096 109.58 295.928 109.268C295.76 108.944 295.544 108.716 295.28 108.584C295.016 108.452 294.734 108.386 294.434 108.386C294.158 108.386 293.888 108.458 293.624 108.602C293.36 108.734 293.144 108.956 292.976 109.268C292.808 109.58 292.724 110.006 292.724 110.546V115.568C292.724 115.688 292.682 115.79 292.598 115.874C292.514 115.958 292.412 116 292.292 116H290.78ZM310.658 116.18C309.326 116.18 308.27 115.796 307.49 115.028C306.71 114.26 306.29 113.168 306.23 111.752C306.218 111.632 306.212 111.482 306.212 111.302C306.212 111.11 306.218 110.96 306.23 110.852C306.278 109.952 306.482 109.172 306.842 108.512C307.214 107.852 307.724 107.348 308.372 107C309.02 106.64 309.782 106.46 310.658 106.46C311.63 106.46 312.446 106.664 313.106 107.072C313.766 107.468 314.264 108.026 314.6 108.746C314.936 109.454 315.104 110.276 315.104 111.212V111.59C315.104 111.71 315.062 111.812 314.978 111.896C314.894 111.98 314.786 112.022 314.654 112.022H308.678C308.678 112.022 308.678 112.04 308.678 112.076C308.678 112.112 308.678 112.142 308.678 112.166C308.69 112.586 308.768 112.976 308.912 113.336C309.068 113.684 309.29 113.966 309.578 114.182C309.878 114.398 310.232 114.506 310.64 114.506C310.976 114.506 311.258 114.458 311.486 114.362C311.714 114.254 311.9 114.134 312.044 114.002C312.188 113.87 312.29 113.762 312.35 113.678C312.458 113.534 312.542 113.45 312.602 113.426C312.674 113.39 312.776 113.372 312.908 113.372H314.456C314.576 113.372 314.672 113.408 314.744 113.48C314.828 113.552 314.864 113.642 314.852 113.75C314.84 113.942 314.738 114.176 314.546 114.452C314.366 114.728 314.102 114.998 313.754 115.262C313.406 115.526 312.968 115.748 312.44 115.928C311.924 116.096 311.33 116.18 310.658 116.18ZM308.678 110.51H312.656V110.456C312.656 109.988 312.578 109.58 312.422 109.232C312.266 108.884 312.038 108.608 311.738 108.404C311.438 108.2 311.078 108.098 310.658 108.098C310.238 108.098 309.878 108.2 309.578 108.404C309.278 108.608 309.05 108.884 308.894 109.232C308.75 109.58 308.678 109.988 308.678 110.456V110.51ZM317.483 116C317.363 116 317.261 115.958 317.177 115.874C317.093 115.79 317.051 115.688 317.051 115.568V107.09C317.051 106.958 317.093 106.85 317.177 106.766C317.261 106.682 317.363 106.64 317.483 106.64H318.941C319.061 106.64 319.163 106.682 319.247 106.766C319.343 106.85 319.391 106.958 319.391 107.09V107.828C319.667 107.444 320.021 107.15 320.453 106.946C320.897 106.742 321.407 106.64 321.983 106.64H322.721C322.853 106.64 322.955 106.682 323.027 106.766C323.111 106.85 323.153 106.952 323.153 107.072V108.368C323.153 108.488 323.111 108.59 323.027 108.674C322.955 108.758 322.853 108.8 322.721 108.8H321.317C320.741 108.8 320.291 108.962 319.967 109.286C319.655 109.61 319.499 110.054 319.499 110.618V115.568C319.499 115.688 319.457 115.79 319.373 115.874C319.289 115.958 319.181 116 319.049 116H317.483ZM327.17 116.18C326.546 116.18 325.982 116.06 325.478 115.82C324.974 115.568 324.572 115.238 324.272 114.83C323.984 114.41 323.84 113.942 323.84 113.426C323.84 112.586 324.176 111.92 324.848 111.428C325.532 110.924 326.432 110.588 327.548 110.42L330.014 110.06V109.682C330.014 109.178 329.888 108.788 329.636 108.512C329.384 108.236 328.952 108.098 328.34 108.098C327.908 108.098 327.554 108.188 327.278 108.368C327.014 108.536 326.816 108.764 326.684 109.052C326.588 109.208 326.45 109.286 326.27 109.286H324.848C324.716 109.286 324.614 109.25 324.542 109.178C324.482 109.106 324.452 109.01 324.452 108.89C324.464 108.698 324.542 108.464 324.686 108.188C324.83 107.912 325.058 107.648 325.37 107.396C325.682 107.132 326.084 106.91 326.576 106.73C327.068 106.55 327.662 106.46 328.358 106.46C329.114 106.46 329.75 106.556 330.266 106.748C330.794 106.928 331.214 107.174 331.526 107.486C331.838 107.798 332.066 108.164 332.21 108.584C332.354 109.004 332.426 109.448 332.426 109.916V115.568C332.426 115.688 332.384 115.79 332.3 115.874C332.216 115.958 332.114 116 331.994 116H330.536C330.404 116 330.296 115.958 330.212 115.874C330.14 115.79 330.104 115.688 330.104 115.568V114.866C329.948 115.094 329.738 115.31 329.474 115.514C329.21 115.706 328.886 115.868 328.502 116C328.13 116.12 327.686 116.18 327.17 116.18ZM327.782 114.47C328.202 114.47 328.58 114.38 328.916 114.2C329.264 114.02 329.534 113.744 329.726 113.372C329.93 112.988 330.032 112.508 330.032 111.932V111.554L328.232 111.842C327.524 111.95 326.996 112.124 326.648 112.364C326.3 112.604 326.126 112.898 326.126 113.246C326.126 113.51 326.204 113.738 326.36 113.93C326.528 114.11 326.738 114.248 326.99 114.344C327.242 114.428 327.506 114.47 327.782 114.47ZM340.612 115.298C340.504 115.298 340.408 115.262 340.324 115.19C340.252 115.118 340.222 115.028 340.234 114.92L340.522 112.958H338.992C338.872 112.958 338.77 112.922 338.686 112.85C338.614 112.766 338.578 112.664 338.578 112.544V111.536C338.578 111.404 338.614 111.302 338.686 111.23C338.77 111.158 338.872 111.122 338.992 111.122H340.792L341.206 108.386H339.46C339.34 108.386 339.238 108.35 339.154 108.278C339.082 108.194 339.046 108.092 339.046 107.972V106.964C339.046 106.832 339.082 106.73 339.154 106.658C339.238 106.586 339.34 106.55 339.46 106.55H341.476L341.782 104.588C341.806 104.492 341.848 104.408 341.908 104.336C341.98 104.252 342.076 104.21 342.196 104.21H343.24C343.348 104.21 343.438 104.246 343.51 104.318C343.582 104.39 343.612 104.48 343.6 104.588L343.312 106.55H345.562L345.868 104.588C345.892 104.492 345.934 104.408 345.994 104.336C346.066 104.252 346.162 104.21 346.282 104.21H347.326C347.434 104.21 347.524 104.246 347.596 104.318C347.668 104.39 347.698 104.48 347.686 104.588L347.398 106.55H348.91C349.03 106.55 349.126 106.586 349.198 106.658C349.282 106.73 349.324 106.832 349.324 106.964V107.972C349.324 108.092 349.282 108.194 349.198 108.278C349.126 108.35 349.03 108.386 348.91 108.386H347.128L346.732 111.122H348.442C348.562 111.122 348.658 111.158 348.73 111.23C348.814 111.302 348.856 111.404 348.856 111.536V112.544C348.856 112.664 348.814 112.766 348.73 112.85C348.658 112.922 348.562 112.958 348.442 112.958H346.444L346.156 114.92C346.12 115.172 345.982 115.298 345.742 115.298H344.698C344.59 115.298 344.494 115.262 344.41 115.19C344.338 115.118 344.308 115.028 344.32 114.92L344.608 112.958H342.358L342.07 114.92C342.034 115.172 341.896 115.298 341.656 115.298H340.612ZM342.646 111.122H344.878L345.292 108.386H343.042L342.646 111.122ZM355.812 116.18C354.972 116.18 354.246 116.078 353.634 115.874C353.022 115.67 352.512 115.406 352.104 115.082C351.708 114.746 351.408 114.386 351.204 114.002C351 113.606 350.892 113.216 350.88 112.832C350.88 112.724 350.916 112.64 350.988 112.58C351.072 112.508 351.168 112.472 351.276 112.472H352.896C353.016 112.472 353.118 112.496 353.202 112.544C353.286 112.592 353.358 112.688 353.418 112.832C353.526 113.156 353.7 113.414 353.94 113.606C354.192 113.798 354.48 113.936 354.804 114.02C355.128 114.092 355.47 114.128 355.83 114.128C356.55 114.128 357.12 113.96 357.54 113.624C357.972 113.276 358.188 112.784 358.188 112.148C358.188 111.512 357.99 111.056 357.594 110.78C357.198 110.492 356.646 110.348 355.938 110.348H354.084C353.952 110.348 353.844 110.312 353.76 110.24C353.676 110.156 353.634 110.048 353.634 109.916V109.16C353.634 109.04 353.658 108.938 353.706 108.854C353.766 108.758 353.826 108.68 353.886 108.62L357.108 105.47H351.96C351.828 105.47 351.72 105.428 351.636 105.344C351.564 105.26 351.528 105.158 351.528 105.038V103.85C351.528 103.718 351.564 103.61 351.636 103.526C351.72 103.442 351.828 103.4 351.96 103.4H359.682C359.814 103.4 359.922 103.442 360.006 103.526C360.09 103.61 360.132 103.718 360.132 103.85V104.93C360.132 105.038 360.108 105.134 360.06 105.218C360.012 105.302 359.958 105.374 359.898 105.434L356.784 108.638L357 108.656C357.732 108.716 358.38 108.884 358.944 109.16C359.52 109.424 359.964 109.814 360.276 110.33C360.6 110.846 360.762 111.494 360.762 112.274C360.762 113.09 360.546 113.792 360.114 114.38C359.694 114.956 359.112 115.4 358.368 115.712C357.624 116.024 356.772 116.18 355.812 116.18Z" fill="#3887BE"/>
<circle cx="368.5" cy="109.5" r="5" fill="#38BE5E"/>
</svg>
