<svg width="466" height="480" viewBox="0 0 466 480" fill="none" xmlns="http://www.w3.org/2000/svg">
<mask id="mask0_79_3311" style="mask-type:luminance" maskUnits="userSpaceOnUse" x="0" y="24" width="621" height="414">
<path d="M621 24H0V438H621V24Z" fill="white"/>
</mask>
<g mask="url(#mask0_79_3311)">
<path d="M267.998 285.244C266.29 287.206 258.579 287.175 255.128 287.961C249.818 289.172 244.472 289.985 239.365 290.363C234.64 290.709 228.611 291.118 223.596 291.434C223.519 291.755 223.426 292.076 223.317 292.386C222.24 292.246 221.216 292.267 220.16 292.091C230.044 296.919 242.609 292.314 253.311 292.841C256.96 293.023 266.833 292.836 268.774 296.93C270.803 301.204 263.128 307.564 260.629 310.374C253.575 318.297 244.804 324.316 237.471 331.97C223.752 346.294 249.456 338.402 255.95 336.187C267.703 332.187 280.49 327.55 291.492 321.764C295.808 330.598 300.404 330.179 309.3 330.298C319.991 330.443 320.7 337.445 327.024 344.229C332.013 349.585 341.633 354.765 348.749 356.478C361.21 359.475 361.308 350.45 354.514 342.837C348.428 336.022 335.532 326.732 340.5 316.031C344.148 308.175 353.572 307.74 360.977 308.848C370.768 310.312 379.457 311.694 389.429 311.451C396.255 311.285 409.11 312.253 413.628 305.51C420.189 295.729 395.81 297.002 393.367 290.331C391.127 284.215 406.848 282.859 409.198 276.726C402.382 277.094 393.083 274.439 385.279 274.449C371.167 274.465 357.831 275.396 343.729 273.295C333.053 271.707 319.8 271.091 309.165 273.094C298.287 275.143 288.02 280.085 277.432 283.211" fill="#050519"/>
<path opacity="0.7" d="M2099.41 698.22C2024.52 807.283 1561.74 619.596 1065.79 279.009C569.835 -61.5737 228.497 -426.09 303.395 -535.153C378.293 -644.217 841.067 -456.525 1337.02 -115.947C1832.97 224.64 2174.31 589.157 2099.41 698.22Z" fill="url(#paint0_radial_79_3311)"/>
<path d="M295.994 294.482C286.866 293.08 277.638 291.553 268.458 293.711C259.438 295.833 250.201 301.536 241.331 305.189C237.439 306.793 233.408 308.832 229.345 308.951C229.273 309.21 229.18 309.459 229.066 309.702C212.019 315.156 214.855 345.916 235.907 339.986C245.186 337.372 255.407 332.399 263.402 327.1C267.956 324.083 272.091 320.098 277.111 317.842C281.494 315.87 286.063 316.098 290.617 314.918C302.292 311.901 305.744 301.629 296.538 294.477" fill="#2E2322"/>
<path d="M270.72 278.678C267.547 275.469 254.75 275.257 249.218 274.584C243.432 273.88 237.32 274.294 231.685 273.456C230.287 274.476 227.99 274.062 226.085 274.522C224.435 274.921 222.97 275.925 221.34 276.183C218.147 278.647 215.792 281.84 215.787 286.062C215.777 294.218 223.726 292.692 229.475 291.895C242.211 290.125 255.748 289.074 268.619 289.204C276.873 289.292 281.416 286.461 274.767 279.128" fill="#2E2322"/>
<path d="M268.665 278.58C266.632 278.963 263.692 278.212 261.581 277.705C259.133 277.115 255.345 277.001 253.021 275.604C252.049 275.568 252.266 275.666 251.22 275.154C248.172 276.241 245.274 274.497 242.18 274.74C245.274 276.51 250.123 276.748 253.663 277.674C245.699 280.272 235.333 277.317 227.892 279.584C235.323 280.51 243.406 279.579 250.879 280.789C254.978 281.457 266.419 285.53 268.215 280.821" fill="#5E1F11"/>
<path d="M361.893 271.318C374.406 268.301 385.977 262.236 398.894 260.906C408.727 259.892 416.163 259.597 416.976 271.22C417.265 275.371 416.598 278.367 411.92 278.693C407.319 281.524 401.678 282.077 396.503 283.262C389.941 284.763 383.245 286.528 376.585 287.49C372.139 288.132 362.659 288.955 359.844 284.282C357.805 280.908 359.559 274.175 361.893 271.318Z" fill="#2E2322"/>
<path d="M391.131 264.12C389.154 264.172 386.525 266.728 384.036 265.647C378.411 269.507 368.946 267.97 363.404 270.977C365.8 271.743 370.209 269.678 372.186 271.453C369.5 271.929 365.101 272.607 363.088 274.605C360.009 277.663 361.748 281.022 365.701 280.887C369.826 280.747 375.156 278.905 379.353 278.165C383.659 277.409 388.011 276.059 391.98 274.227C390.676 274.367 389.346 274.217 388.088 273.735C385.641 275.883 382.028 274.589 379.322 275.64C378.665 273.818 391.395 270.273 393.765 269.15C391.188 269.983 387.234 269.559 384.569 269.197C386.329 267.913 389.284 265.667 391.587 265.466" fill="#5E1F11"/>
<path d="M346.544 298.28C351.724 295.978 356.563 290.632 360.749 286.88C365.904 282.259 370.846 277.146 374.215 271.06C376.942 266.128 378.324 260.384 378.841 254.945C379.209 251.053 378.303 244.745 380 241.319C380.435 241.992 380.249 241.682 380.554 241.868C380.88 246.148 383.509 252.632 385.408 256.601C384.849 251.26 383.235 246.411 384.192 240.678C385.377 233.572 388.286 226.943 389.15 219.838C390.609 207.837 390.552 194.449 387.121 183.038C386.49 189.828 386.376 196.271 384.446 202.905C382.997 207.904 380.119 213.519 379.452 218.306C379.462 210.368 377.765 204.002 372.735 197.492C368.248 191.681 366.851 184.203 364.336 176.539C366.183 185.828 367.166 194.827 369.645 204.044C372.191 213.519 374.23 223.688 372.29 233.474C370.033 244.849 361.313 252.808 359.921 264.369C358.881 273.006 360.418 280.546 356.263 288.577" fill="#5E1F11"/>
<path d="M303.4 300.977C299.855 304.506 288.408 299.962 284.501 298.684C273.338 295.025 264.298 286.973 259.33 276.359C250.097 256.632 256.173 239.291 258.114 219.134C258.978 210.145 257.053 201.441 253.456 193.171C261.607 203.298 267.382 214.285 268.438 227.3C269.255 237.376 270.829 247.84 275.445 256.953C280.325 266.578 289.795 273.016 299.027 278.062C308.177 283.061 317.771 284.675 317.419 297.199" fill="#5E1F11"/>
<path d="M306.008 155.507C296.222 148.516 331.893 180.585 317.331 198.377C302.768 216.174 287.399 220.215 291.445 240.439C272.034 214.554 273.39 208.432 278.052 196.534C271.584 214.15 266.559 216.127 263.324 233.117C260.09 250.101 265.182 268.803 278.425 286.45C297.826 312.304 360.847 308.739 360.04 282.854C359.233 256.968 381.252 234.674 363.994 203.397C370.618 231.078 347.263 239.632 338.362 243.674C329.466 247.715 365.07 206.631 337.555 189.476C316.363 176.274 311.669 159.554 306.008 155.507Z" fill="#FA9D21"/>
<path d="M336.298 174.608C343.387 181.796 353.634 193.528 356.252 217.571C356.91 233.195 357.334 258.019 351.936 266.108C346.544 274.196 367.037 261.253 373.511 249.387C379.98 237.521 376.745 270.418 363.264 283.899C349.784 297.38 308.596 310.323 295.751 288.753C282.907 267.184 292.077 243.658 285.603 225.489C279.129 207.32 271.041 206.243 276.977 190.061C281.292 203.004 294.96 214.026 302.505 220.982C317.605 234.913 357.261 196.178 336.298 174.608Z" fill="#F5D92D"/>
<path d="M313.915 295.859C307.26 295.217 301.578 286.751 299.524 281.167C296.791 273.741 298.463 267.241 298.81 259.722C298.929 257.124 298.551 254.402 298.002 251.866C301.894 259.815 307.768 268.861 308.725 278.191C307.11 273.006 309.781 266.682 312.177 262.175C314.676 257.476 315.54 254.05 315.53 248.751C316.125 253.139 314.355 274.196 321.59 272.778C327.386 271.64 327.21 261.031 326.605 256.953C325.585 250.117 322.501 243.612 324.183 236.595C325.497 231.13 328.964 226.607 333.28 223.14C330.196 230.235 329.13 237.692 332.608 244.947C336.044 252.12 341.716 257.75 341.446 266.315C341.358 269.187 340.111 272.545 338.652 274.993C338.647 273.523 341.653 271.614 342.766 270.522C344.308 269.011 346.171 265.74 348.391 265.425C347.915 268.742 345.162 271.629 344.36 274.978C343.491 278.59 343.791 282.616 342.559 286.135C341.731 288.5 339.464 290.585 337.581 292.153C335.971 293.494 333.047 294.27 331.93 296.014C331.836 296.019 331.738 296.019 331.645 296.019C330.796 293.856 333.958 289.395 334.145 286.953C334.465 282.787 332.99 278.75 333.078 274.652C333.006 274.662 332.928 274.667 332.856 274.667C332.494 278.326 332.401 280.986 330.201 284.122C328.612 286.383 326.692 289.504 326.268 292.247C324.115 291.072 322.935 285.54 321.212 283.268C319.085 280.468 316.301 277.705 315.546 274.129C315.473 274.134 315.401 274.134 315.328 274.129C314.536 278.155 316.058 284.541 317.16 288.453C317.859 290.927 319.023 294.762 320.886 296.821C319.075 296.78 315.753 297.442 314.454 296.133" fill="#FCE6A9"/>
<path d="M338.994 226.56C336.075 232.397 336.173 238.933 335.759 245.744C335.439 251.074 335.951 257.165 332.722 261.517C332.323 260.301 332.608 258.883 332.52 257.563C332.396 255.69 331.857 253.951 331.376 252.13C330.408 248.445 329.56 245.024 329.549 241.205C329.524 247.063 329.016 252.373 327.091 257.931C324.706 264.803 323.422 272.24 324.209 279.547C324.499 282.196 325.477 286.228 326.869 288.489C327.009 285.514 329.399 283.211 331.231 281.094C333.658 278.289 335.646 275.277 337.643 272.157C340.764 267.282 343.082 262.428 343.848 256.621C344.49 251.757 344.158 246.836 342.715 242.152C341.162 237.132 340.065 232.537 340.903 227.259C341.612 222.803 343.02 217.835 345.737 214.161" fill="#F1781D"/>
<path d="M315.339 271.406C310.909 267.53 308.446 263.742 307.214 257.905C306.402 254.049 307.618 245.842 305.211 242.866C304.849 247.772 304.228 252.098 301.149 256.078C297.728 260.497 294.784 262.899 295.358 269.026C296.197 277.979 303.374 281.41 311.189 283.293C315.116 284.24 317.937 285.622 320.886 288.479C320.167 284.442 313.75 281.839 311.064 278.9C307.789 275.308 305.982 271.261 305.046 266.77C305.574 266.94 305.801 267.246 306.164 267.629" fill="#F1781D"/>
<path d="M302.324 197.673C282.928 191.199 289.438 167.963 280.263 154.333C287.678 161.169 291.404 167.534 293.676 176.678C295.705 184.839 298.737 192.555 305.02 198.755" fill="#F1781D"/>
<path d="M292.926 296.531C286.835 299.072 277.432 293.09 272.671 289.006C264.437 281.948 260.758 271.681 258.424 261.175C258.45 261.263 257.989 260.161 257.953 260.042C262.191 262.728 263.242 268.927 266.119 272.762C269.074 276.695 273.137 278.962 277.846 279.826C282.493 280.68 286.695 280.902 290.343 284.484C293.055 287.143 294.339 292.81 296.755 294.663C294.344 291.677 292.507 287.413 293.009 283.21C296.279 286.253 298.354 288.303 302.634 289.907C305.931 291.144 310.21 292.039 312.798 294.13C307.83 293.881 303.322 293.581 299.074 291.78C301.465 293.56 302.644 296.443 304.787 298.497C307.126 300.738 310.412 301.815 312.948 303.01C307.261 302.161 300.414 302.627 296.165 298.146" fill="#F1781D"/>
<path d="M334.683 299.9C347.558 298.399 355.812 290.192 360.656 278.558C363.989 270.558 366.136 262.961 375.048 259.535C372.284 264.534 370.54 270.315 369.045 275.924C367.699 280.965 365.018 284.24 362.809 288.505C367.373 284.282 372.362 279.355 376.642 274.656C379.094 271.96 380.58 269.657 381.651 266.221C382.37 263.908 381.961 259.323 383.654 257.895C384.751 268.322 381.449 280.835 373.05 287.609C366.674 292.753 358.995 293.892 351.248 295.517C347.496 296.303 345.152 297.758 341.695 299.367" fill="#F1781D"/>
<path d="M338.005 176.559C330.077 171.187 339.34 160.02 341.798 153.08C343.982 146.927 344.701 138.419 341.177 132.499C346.088 139.444 350.973 150.172 346.621 158.239C343.485 164.051 338.543 169.309 339.086 176.559" fill="#F1781D"/>
<path d="M318.263 117.316C316.281 122.393 311.276 139.092 319.789 141.514C320.343 134.109 318.263 127.718 317.186 120.55" fill="#F1781D"/>
<path d="M307.167 216.67C309.309 202.626 331.862 197.585 326.216 181.532C327.013 190.335 340.634 193.104 339.092 202.538C337.575 199.697 334.165 198.465 332.028 195.924C332.11 197.269 332.819 198.527 332.706 199.95C332.566 201.679 331.583 203.505 331.251 205.26C330.63 208.53 330.377 211.775 330.097 215.046C328.586 210.595 327.023 205.684 326.584 200.959C326.516 206.657 324.514 208.582 320.467 212.267C317.879 214.621 315.845 217.54 314.64 220.878C313.279 217.038 316.001 210.973 318.34 207.816C317.382 209.855 315.323 210.688 313.677 211.889C312.44 212.789 310.898 215.066 309.687 215.589" fill="#F5D92D"/>
<path d="M286.322 276.354C283.445 274.905 280.304 273.751 277.52 272.167C272.919 269.549 270.192 264.11 268.407 259.313C265.333 251.033 266.093 242.954 267.605 234.509C268.37 230.224 269.53 226.312 270.87 222.177C270.803 226.71 271.098 230.001 273.188 234.095C275.45 238.514 279.745 240.978 282.389 244.942C280.785 240.294 279.052 234.188 276.645 230.043C280.982 230.684 283.88 238.183 284.858 241.79C286.131 246.489 286.245 251.555 285.888 256.477C283.176 251.488 276.521 249.754 273.799 246.106C276.49 251.488 278.674 256.839 280.925 262.324C281.867 264.617 283.181 266.868 284.071 269.166C284.972 271.489 285.339 273.704 286.322 276.002" fill="#F5D92D"/>
<path d="M316.343 128.23C315.856 130.305 315.851 136.37 318.475 137.379C319.189 135.175 318.713 130.569 316.881 128.949" fill="#F5D92D"/>
<path d="M297.47 193.301C293.563 190.201 292 185.626 291.001 180.798C290.509 178.407 290.214 176.021 289.516 173.656C288.926 171.669 287.767 169.879 287.213 168.104C287.699 169.428 289.314 170.95 290.054 172.43C290.872 174.07 291.57 175.809 292.295 177.47C293.676 180.627 294.349 183.411 294.996 186.64C295.415 188.716 296.316 190.34 297.294 192.219" fill="#F5D92D"/>
<path d="M337.379 171.012C337.581 168.699 336.903 166.696 337.756 164.377C338.678 161.862 340.577 160.18 342.057 158.043C343.133 156.491 343.791 154.597 344.044 152.708C344.236 151.285 344.686 148.645 343.837 147.341C345.4 152.273 345.343 156.289 342.973 160.962C341.441 163.979 337.508 167.493 337.741 171.012" fill="#F5D92D"/>
<path d="M295.994 294.787C286.866 293.385 277.638 291.858 268.458 294.016C259.438 296.138 250.201 301.841 241.331 305.494C237.439 307.099 233.408 309.138 229.345 309.257C229.273 309.515 229.18 309.764 229.066 310.007C212.019 315.461 214.855 346.222 235.907 340.291C245.186 337.678 255.407 332.704 263.402 327.405C267.956 324.388 272.091 320.404 277.111 318.147C281.494 316.176 286.063 316.403 290.617 315.223C302.292 312.206 305.744 301.934 296.538 294.782" fill="#2E2322"/>
<path d="M290.214 293.556C273.84 290.575 260.313 299.036 246.677 304.149C242.009 305.898 240.017 307.269 237.336 311.932C242.144 318.22 263.584 311.653 268.717 307.849C274.032 303.911 276.345 303.098 282.954 302.493C289.671 301.877 292.336 300.811 291.529 293.799" fill="#5E1F11"/>
<path d="M301.164 302.353C306.773 293.121 314.225 288.722 324.974 292.8C333.249 295.941 335.748 303.683 341.151 309.919C346.812 316.45 354.342 322.691 361.37 327.721C367.285 331.954 374.395 334.5 374.83 342.935C375.306 352.219 366.928 354.284 359.739 356.504C353.876 360.111 346.279 352.763 341.839 349.326C334.982 344.027 330.376 336.115 323.84 330.303C322.143 328.797 320.477 326.577 318.272 325.816C315.98 325.025 313.133 325.873 310.737 325.552C307.803 325.154 300.01 324.574 299.295 321.18C297.603 313.127 313.387 318.991 316.963 318.307C312.776 317.195 300.895 308.196 300.713 303.704" fill="#2E2322"/>
<path d="M350.591 291.672C355.352 285.482 357.888 282.962 365.8 281.187C373.573 279.443 381.522 281.332 389.109 283.071C395.096 284.442 400.809 285.281 406.952 285.286C412.153 285.291 417.768 285.058 422.311 288.034C433.117 295.108 428.138 307.838 416.878 310.027C402.165 312.889 386.49 308.868 371.922 306.757C360.822 305.147 352.547 305.629 350.363 292.795" fill="#2E2322"/>
<path d="M316.011 294.259C320.803 298.477 324.767 303.372 329.062 308.014C332.405 311.632 338.952 317.014 339.795 322.013C335.422 317.795 331.22 313.691 326.801 309.51C324.006 306.866 319.685 301.127 316.104 300.283C316.238 305.06 323.416 311.409 326.195 315.322C328.431 318.468 334.051 323.741 334.827 327.374C328.037 325.082 323.794 317.443 319.168 312.455C319.043 312.46 318.919 312.46 318.795 312.455C323.602 318.447 328.607 324.254 333.766 329.946C336.633 333.108 342.258 341.269 347.428 340.084C352.702 338.868 352.691 330.603 351.434 326.681C349.27 319.927 342.828 314.649 338.356 309.406C334.573 304.971 330.961 298.896 325.553 296.241C325.522 298.549 327.97 299.765 327.634 302.203C324.694 300.164 321.822 297.401 319.168 295.165" fill="#5E1F11"/>
<path d="M365.489 283.915C372.227 283.915 378.737 285.265 385.517 285.265C389.755 285.265 398.035 283.858 401.528 285.715C398.894 287.589 395.535 287.785 392.456 287.961C388.751 288.168 384.813 289.141 381.299 288.613C384.249 292.148 393.082 288.779 396.467 292.722C389.046 292.769 380.942 292.976 373.324 292.464C368.869 292.169 360.558 291.625 357.013 289.338C359.031 285.56 368.47 289.136 370.468 286.352C368.222 286.217 365.867 285.514 363.688 284.815" fill="#5E1F11"/>
<path d="M221.521 318.463C216.439 324.75 218.028 336.937 228.378 338.252C240.275 339.763 245.957 322.975 235.473 317.091C231.949 315.114 228.285 315.942 224.595 316.951" fill="#1F1711"/>
<path d="M350.538 337.186C345.457 343.474 346.812 354.745 357.162 356.054C369.055 357.565 378.333 338.268 367.849 332.384C364.325 330.407 360.661 331.235 356.971 332.244" fill="#1F1711"/>
<path d="M404.969 293.556C399.887 299.843 401.243 311.114 411.593 312.424C423.49 313.935 432.769 294.637 422.279 288.753C418.755 286.776 415.091 287.604 411.402 288.614" fill="#1F1711"/>
</g>
<mask id="mask1_79_3311" style="mask-type:luminance" maskUnits="userSpaceOnUse" x="0" y="0" width="720" height="480">
<path d="M720 0H0V480H720V0Z" fill="white"/>
</mask>
<g mask="url(#mask1_79_3311)">
<path d="M268.698 106.14C268.554 110.538 273.132 115.608 274.734 114.246L277.83 113.214C275.34 110.22 273.732 105.072 268.698 106.14Z" fill="#FFE96A"/>
<path d="M243.012 94.6142L243.516 94.1162C242.838 92.2022 241.602 90.4622 240.474 88.7642C240.726 90.9062 241.884 92.8202 243.012 94.6142Z" fill="#FFE96A"/>
<path d="M261.12 78.7681L261.306 79.1401C261.288 79.0561 261.216 78.9241 261.12 78.7681Z" fill="#FFE96A"/>
<path d="M253.434 70.0859C255.9 72.1139 260.19 77.1959 261.12 78.7679L258.204 72.942C256.38 71.322 255.834 69.9179 253.434 70.0859Z" fill="#FFE96A"/>
<path d="M186.954 25.0923C187.536 26.5083 190.68 30.6603 191.022 31.1763L195.114 33.2223C193.35 29.9043 190.218 26.7063 186.954 25.0923Z" fill="#FFE96A"/>
<path d="M191.022 31.1821L190.98 31.1641C191.064 31.2541 191.07 31.2541 191.022 31.1821Z" fill="#FFE96A"/>
<path d="M136.794 4.99805C138.18 6.50405 139.662 7.87206 141.288 9.06606C139.926 7.51206 138.42 6.10805 136.794 4.99805Z" fill="#FFE96A"/>
<path d="M142.548 9.94839C142.116 9.66639 141.702 9.36641 141.288 9.06641C142.11 10.0024 142.872 10.9984 143.58 12.0124L142.548 9.94839Z" fill="#FFE96A"/>
<path d="M206.988 105.192C207.762 105.564 208.086 106.074 208.638 107.016L213.798 112.182C213.006 108.852 210.138 105.912 206.988 105.192Z" fill="#FFE96A"/>
<path d="M99.6354 69.63C99.0774 69.378 98.7534 69.246 97.9854 69.144C101.135 69.336 103.997 70.116 104.801 71.004" fill="#FFE96A"/>
<path opacity="0.1" d="M367.032 185.772C326.262 180.336 292.29 159.954 290.934 132.774C289.572 105.594 360.24 83.856 350.73 64.83C341.214 45.804 256.962 33.576 256.962 11.832C256.962 -9.91197 309.96 -18.066 295.014 -30.294C280.062 -42.522 191.736 -45.24 194.454 -65.628C197.172 -86.01 362.964 -143.088 362.964 -143.088L89.8136 -152.73C53.1236 -144.45 -44.7244 -90.09 -33.8524 -72.426C-22.9804 -54.762 108.84 -46.608 110.196 -18.072C111.552 10.4641 46.3256 21.336 70.7876 53.952C95.2496 86.568 209.4 62.106 217.554 89.286C225.708 116.466 164.556 130.056 191.736 164.028C218.916 198 311.322 196.644 356.166 260.514C394.212 226.542 407.802 191.208 367.032 185.772Z" fill="url(#paint1_radial_79_3311)"/>
</g>
<defs>
<radialGradient id="paint0_radial_79_3311" cx="0" cy="0" r="1" gradientUnits="userSpaceOnUse" gradientTransform="translate(1201.4 81.5324) rotate(34.4783) scale(1089.39 239.554)">
<stop offset="0.00333646" stop-color="white"/>
<stop offset="0.0891" stop-color="#FCFFD4" stop-opacity="0.9081"/>
<stop offset="0.1927" stop-color="#FAFFA7" stop-opacity="0.7971"/>
<stop offset="0.3008" stop-color="#F7FF81" stop-opacity="0.6813"/>
<stop offset="0.412" stop-color="#F5FF61" stop-opacity="0.5622"/>
<stop offset="0.5272" stop-color="#F4FF49" stop-opacity="0.4387"/>
<stop offset="0.6483" stop-color="#F3FF38" stop-opacity="0.309"/>
<stop offset="0.7789" stop-color="#F2FF2D" stop-opacity="0.169"/>
<stop offset="0.9367" stop-color="#F2FF2A" stop-opacity="0"/>
</radialGradient>
<radialGradient id="paint1_radial_79_3311" cx="0" cy="0" r="1" gradientUnits="userSpaceOnUse" gradientTransform="translate(319.825 175.373) scale(282.7 282.7)">
<stop offset="0.00333646" stop-color="#FFE8A1"/>
<stop offset="0.0846" stop-color="#FEEA96" stop-opacity="0.9129"/>
<stop offset="0.9367" stop-color="#F2FF2A" stop-opacity="0"/>
</radialGradient>
</defs>
</svg>
