<svg width="141" height="311" viewBox="0 0 141 311" fill="none" xmlns="http://www.w3.org/2000/svg">
<path d="M122.683 261.587C99.8499 225.146 67.3509 194.591 24.0249 164.54C43.0509 175.241 59.9259 179.66 79.0509 184.241C102.397 189.83 118.651 185.888 140.737 184.025C127.408 161.111 95.7639 142.841 71.8509 134.741C47.1009 126.362 12.7479 119.612 -13.6491 125.939C19.1289 102.278 60.6009 82.9905 77.1519 43.3455C48.6579 48.9705 18.5799 60.7156 -8.47408 71.9656C-24.0981 78.4636 -49.1811 93.4125 -53.9331 109.37C-56.7501 94.9245 -54.0501 79.2376 -56.7321 63.9646C-60.4671 42.6616 -69.3951 20.4046 -71.7351 0.622559C-87.7011 13.5556 -95.8551 46.4055 -102.821 65.7105C-112.01 91.1445 -123.692 124.571 -118.148 150.914L-138.497 153.812C-107.285 210.179 -86.0181 276.653 -18.3831 295.517C25.1769 307.667 70.4469 300.206 113.746 310.276C67.8909 282.952 49.9089 237.323 -7.53809 206.696C-6.98007 206.426 -6.43108 206.129 -5.90007 205.814C30.6759 232.697 78.7539 250.922 122.683 261.587Z" fill="#38419D"/>
</svg>
