<svg width="658" height="180" viewBox="0 0 658 180" fill="none" xmlns="http://www.w3.org/2000/svg">
<rect width="658" height="180" rx="25" fill="#271245"/>
<path d="M87 113.5C87 109.91 89.9101 107 93.5 107H108.5C112.09 107 115 109.91 115 113.5H87Z" fill="#38419D"/>
<rect x="87" y="113.5" width="28" height="6.5" fill="#38419D"/>
<rect x="87" y="120" width="28" height="6.5" fill="#38419D"/>
<path d="M87 126.5H115C115 130.09 112.09 133 108.5 133H93.5C89.9101 133 87 130.09 87 126.5Z" fill="#38419D"/>
<path d="M186 107.125C186 106.545 186 106.254 186.015 106.009C186.263 101.977 189.477 98.7628 193.509 98.5151C193.754 98.5 194.045 98.5 194.625 98.5H205.375C205.955 98.5 206.246 98.5 206.491 98.5151C210.523 98.7628 213.737 101.977 213.985 106.009C214 106.254 214 106.545 214 107.125H186Z" fill="#52D3D8"/>
<rect x="186" y="107.125" width="28" height="8.625" fill="#52D3D8"/>
<rect x="186" y="115.75" width="28" height="8.625" fill="#52D3D8"/>
<path d="M186 124.375H214C214 124.955 214 125.246 213.985 125.491C213.737 129.523 210.523 132.737 206.491 132.985C206.246 133 205.955 133 205.375 133H194.625C194.045 133 193.754 133 193.509 132.985C189.477 132.737 186.263 129.523 186.015 125.491C186 125.246 186 124.955 186 124.375Z" fill="#52D3D8"/>
<path d="M286 115.75C286 112.574 288.574 110 291.75 110H308.25C311.426 110 314 112.574 314 115.75H286Z" fill="#38419D"/>
<rect x="286" y="115.75" width="28" height="5.75" fill="#38419D"/>
<rect x="286" y="121.5" width="28" height="5.75" fill="#38419D"/>
<path d="M286 127.25H314C314 130.426 311.426 133 308.25 133H291.75C288.574 133 286 130.426 286 127.25Z" fill="#38419D"/>
<path d="M386 111.25C386 107.246 389.246 104 393.25 104H406.75C410.754 104 414 107.246 414 111.25H386Z" fill="#52D3D8"/>
<rect x="386" y="111.25" width="28" height="7.25" fill="#52D3D8"/>
<rect x="386" y="118.5" width="28" height="7.25" fill="#52D3D8"/>
<path d="M386 125.75H414C414 129.754 410.754 133 406.75 133H393.25C389.246 133 386 129.754 386 125.75Z" fill="#52D3D8"/>
<path d="M481 126.625C481 125.451 481.951 124.5 483.125 124.5H506.875C508.049 124.5 509 125.451 509 126.625H481Z" fill="#38419D"/>
<rect x="481" y="126.625" width="28" height="2.125" fill="#38419D"/>
<rect x="481" y="128.75" width="28" height="2.125" fill="#38419D"/>
<path d="M481 130.875H509C509 132.049 508.049 133 506.875 133H483.125C481.951 133 481 132.049 481 130.875Z" fill="#38419D"/>
<path d="M585 104.875C585 103.598 585 102.959 585.073 102.423C585.557 98.8595 588.36 96.0568 591.923 95.5728C592.459 95.5 593.098 95.5 594.375 95.5H603.625C604.902 95.5 605.541 95.5 606.077 95.5728C609.64 96.0568 612.443 98.8595 612.927 102.423C613 102.959 613 103.598 613 104.875H585Z" fill="#52D3D8"/>
<rect x="585" y="104.875" width="28" height="9.375" fill="#52D3D8"/>
<rect x="585" y="114.25" width="28" height="9.375" fill="#52D3D8"/>
<path d="M585 123.625H613C613 124.902 613 125.541 612.927 126.077C612.443 129.64 609.64 132.443 606.077 132.927C605.541 133 604.902 133 603.625 133H594.375C593.098 133 592.459 133 591.923 132.927C588.36 132.443 585.557 129.64 585.073 126.077C585 125.541 585 124.902 585 123.625Z" fill="#52D3D8"/>
<path d="M84.2119 152V143.273H87.263C87.871 143.273 88.3724 143.378 88.7673 143.588C89.1622 143.795 89.4562 144.075 89.6494 144.428C89.8426 144.777 89.9392 145.165 89.9392 145.591C89.9392 145.966 89.8724 146.276 89.7389 146.52C89.6082 146.764 89.4349 146.957 89.219 147.099C89.0059 147.241 88.7744 147.347 88.5244 147.415V147.5C88.7914 147.517 89.0599 147.611 89.3298 147.781C89.5997 147.952 89.8255 148.196 90.0074 148.514C90.1892 148.832 90.2801 149.222 90.2801 149.682C90.2801 150.119 90.1806 150.513 89.9818 150.862C89.7829 151.212 89.469 151.489 89.04 151.693C88.611 151.898 88.0528 152 87.3653 152H84.2119ZM85.2687 151.062H87.3653C88.0556 151.062 88.5457 150.929 88.8355 150.662C89.1281 150.392 89.2744 150.065 89.2744 149.682C89.2744 149.386 89.1991 149.114 89.0485 148.864C88.898 148.611 88.6835 148.409 88.4051 148.259C88.1267 148.105 87.7971 148.028 87.4164 148.028H85.2687V151.062ZM85.2687 147.108H87.2289C87.5471 147.108 87.8341 147.045 88.0897 146.92C88.3483 146.795 88.5528 146.619 88.7034 146.392C88.8568 146.165 88.9335 145.898 88.9335 145.591C88.9335 145.207 88.8 144.882 88.5329 144.615C88.2659 144.345 87.8426 144.21 87.263 144.21H85.2687V147.108ZM94.3518 152.136C93.8064 152.136 93.3248 151.999 92.9072 151.723C92.4896 151.445 92.1629 151.053 91.9271 150.547C91.6913 150.038 91.5734 149.438 91.5734 148.744C91.5734 148.057 91.6913 147.46 91.9271 146.955C92.1629 146.449 92.491 146.058 92.9115 145.783C93.3319 145.507 93.8177 145.369 94.3689 145.369C94.795 145.369 95.1316 145.44 95.3788 145.582C95.6288 145.722 95.8191 145.881 95.9498 146.06C96.0833 146.236 96.187 146.381 96.2609 146.494H96.3461V145.455H97.3518V152H96.3802V150.994H96.2609C96.187 151.114 96.0819 151.264 95.9456 151.446C95.8092 151.625 95.6146 151.786 95.3618 151.928C95.1089 152.067 94.7723 152.136 94.3518 152.136ZM94.4882 151.233C94.8916 151.233 95.2325 151.128 95.5109 150.918C95.7893 150.705 96.001 150.411 96.1458 150.036C96.2907 149.658 96.3632 149.222 96.3632 148.727C96.3632 148.239 96.2922 147.811 96.1501 147.445C96.0081 147.075 95.7978 146.788 95.5194 146.584C95.241 146.376 94.8973 146.273 94.4882 146.273C94.062 146.273 93.7069 146.382 93.4228 146.601C93.1416 146.817 92.9299 147.111 92.7879 147.483C92.6487 147.852 92.5791 148.267 92.5791 148.727C92.5791 149.193 92.6501 149.616 92.7922 149.997C92.937 150.375 93.1501 150.676 93.4314 150.901C93.7154 151.122 94.0677 151.233 94.4882 151.233ZM102.18 145.455V146.307H98.7879V145.455H102.18ZM99.7765 143.886H100.782V150.125C100.782 150.409 100.823 150.622 100.906 150.764C100.991 150.903 101.099 150.997 101.23 151.045C101.363 151.091 101.504 151.114 101.652 151.114C101.762 151.114 101.853 151.108 101.924 151.097C101.995 151.082 102.052 151.071 102.095 151.062L102.299 151.966C102.231 151.991 102.136 152.017 102.014 152.043C101.892 152.071 101.737 152.085 101.549 152.085C101.265 152.085 100.987 152.024 100.714 151.902C100.444 151.78 100.22 151.594 100.041 151.344C99.8646 151.094 99.7765 150.778 99.7765 150.398V143.886ZM104.698 148.062V152H103.693V145.455H104.664V146.477H104.75C104.903 146.145 105.136 145.878 105.448 145.676C105.761 145.472 106.164 145.369 106.659 145.369C107.102 145.369 107.49 145.46 107.822 145.642C108.154 145.821 108.413 146.094 108.598 146.46C108.782 146.824 108.875 147.284 108.875 147.841V152H107.869V147.909C107.869 147.395 107.735 146.994 107.468 146.707C107.201 146.418 106.835 146.273 106.369 146.273C106.048 146.273 105.761 146.342 105.508 146.482C105.258 146.621 105.061 146.824 104.916 147.091C104.771 147.358 104.698 147.682 104.698 148.062ZM113.184 152.136C112.638 152.136 112.157 151.999 111.739 151.723C111.322 151.445 110.995 151.053 110.759 150.547C110.523 150.038 110.405 149.438 110.405 148.744C110.405 148.057 110.523 147.46 110.759 146.955C110.995 146.449 111.323 146.058 111.744 145.783C112.164 145.507 112.65 145.369 113.201 145.369C113.627 145.369 113.964 145.44 114.211 145.582C114.461 145.722 114.651 145.881 114.782 146.06C114.915 146.236 115.019 146.381 115.093 146.494H115.178V145.455H116.184V152H115.212V150.994H115.093C115.019 151.114 114.914 151.264 114.778 151.446C114.641 151.625 114.447 151.786 114.194 151.928C113.941 152.067 113.604 152.136 113.184 152.136ZM113.32 151.233C113.724 151.233 114.065 151.128 114.343 150.918C114.621 150.705 114.833 150.411 114.978 150.036C115.123 149.658 115.195 149.222 115.195 148.727C115.195 148.239 115.124 147.811 114.982 147.445C114.84 147.075 114.63 146.788 114.351 146.584C114.073 146.376 113.729 146.273 113.32 146.273C112.894 146.273 112.539 146.382 112.255 146.601C111.974 146.817 111.762 147.111 111.62 147.483C111.481 147.852 111.411 148.267 111.411 148.727C111.411 149.193 111.482 149.616 111.624 149.997C111.769 150.375 111.982 150.676 112.263 150.901C112.547 151.122 112.9 151.233 113.32 151.233Z" fill="#D5D2D2"/>
<path d="M183.962 152V143.273H187.013C187.621 143.273 188.122 143.378 188.517 143.588C188.912 143.795 189.206 144.075 189.399 144.428C189.593 144.777 189.689 145.165 189.689 145.591C189.689 145.966 189.622 146.276 189.489 146.52C189.358 146.764 189.185 146.957 188.969 147.099C188.756 147.241 188.524 147.347 188.274 147.415V147.5C188.541 147.517 188.81 147.611 189.08 147.781C189.35 147.952 189.576 148.196 189.757 148.514C189.939 148.832 190.03 149.222 190.03 149.682C190.03 150.119 189.931 150.513 189.732 150.862C189.533 151.212 189.219 151.489 188.79 151.693C188.361 151.898 187.803 152 187.115 152H183.962ZM185.019 151.062H187.115C187.806 151.062 188.296 150.929 188.585 150.662C188.878 150.392 189.024 150.065 189.024 149.682C189.024 149.386 188.949 149.114 188.799 148.864C188.648 148.611 188.433 148.409 188.155 148.259C187.877 148.105 187.547 148.028 187.166 148.028H185.019V151.062ZM185.019 147.108H186.979C187.297 147.108 187.584 147.045 187.84 146.92C188.098 146.795 188.303 146.619 188.453 146.392C188.607 146.165 188.683 145.898 188.683 145.591C188.683 145.207 188.55 144.882 188.283 144.615C188.016 144.345 187.593 144.21 187.013 144.21H185.019V147.108ZM194.375 152.136C193.744 152.136 193.2 151.997 192.742 151.719C192.288 151.438 191.937 151.045 191.69 150.543C191.446 150.037 191.323 149.449 191.323 148.778C191.323 148.108 191.446 147.517 191.69 147.006C191.937 146.491 192.281 146.091 192.721 145.804C193.164 145.514 193.681 145.369 194.272 145.369C194.613 145.369 194.95 145.426 195.282 145.54C195.615 145.653 195.917 145.838 196.19 146.094C196.463 146.347 196.68 146.682 196.842 147.099C197.004 147.517 197.085 148.031 197.085 148.642V149.068H192.039V148.199H196.062C196.062 147.83 195.988 147.5 195.84 147.21C195.696 146.92 195.488 146.692 195.218 146.524C194.951 146.357 194.636 146.273 194.272 146.273C193.872 146.273 193.525 146.372 193.232 146.571C192.943 146.767 192.72 147.023 192.563 147.338C192.407 147.653 192.329 147.991 192.329 148.352V148.932C192.329 149.426 192.414 149.845 192.585 150.189C192.758 150.53 192.998 150.79 193.305 150.969C193.612 151.145 193.968 151.233 194.375 151.233C194.639 151.233 194.877 151.196 195.09 151.122C195.306 151.045 195.492 150.932 195.649 150.781C195.805 150.628 195.926 150.437 196.011 150.21L196.982 150.483C196.88 150.812 196.708 151.102 196.467 151.352C196.225 151.599 195.927 151.793 195.572 151.932C195.217 152.068 194.818 152.136 194.375 152.136ZM198.615 145.455H199.62V152.477C199.62 152.881 199.551 153.23 199.411 153.526C199.275 153.821 199.068 154.05 198.789 154.212C198.514 154.374 198.166 154.455 197.745 154.455C197.711 154.455 197.677 154.455 197.643 154.455C197.609 154.455 197.575 154.455 197.541 154.455V153.517C197.575 153.517 197.606 153.517 197.634 153.517C197.663 153.517 197.694 153.517 197.728 153.517C198.035 153.517 198.259 153.426 198.402 153.244C198.544 153.065 198.615 152.81 198.615 152.477V145.455ZM199.109 144.364C198.913 144.364 198.744 144.297 198.602 144.163C198.463 144.03 198.393 143.869 198.393 143.682C198.393 143.494 198.463 143.334 198.602 143.2C198.744 143.067 198.913 143 199.109 143C199.305 143 199.473 143.067 199.612 143.2C199.754 143.334 199.825 143.494 199.825 143.682C199.825 143.869 199.754 144.03 199.612 144.163C199.473 144.297 199.305 144.364 199.109 144.364ZM203.934 152.136C203.388 152.136 202.907 151.999 202.489 151.723C202.072 151.445 201.745 151.053 201.509 150.547C201.273 150.038 201.155 149.438 201.155 148.744C201.155 148.057 201.273 147.46 201.509 146.955C201.745 146.449 202.073 146.058 202.494 145.783C202.914 145.507 203.4 145.369 203.951 145.369C204.377 145.369 204.714 145.44 204.961 145.582C205.211 145.722 205.401 145.881 205.532 146.06C205.665 146.236 205.769 146.381 205.843 146.494H205.928V145.455H206.934V152H205.962V150.994H205.843C205.769 151.114 205.664 151.264 205.528 151.446C205.391 151.625 205.197 151.786 204.944 151.928C204.691 152.067 204.354 152.136 203.934 152.136ZM204.07 151.233C204.474 151.233 204.815 151.128 205.093 150.918C205.371 150.705 205.583 150.411 205.728 150.036C205.873 149.658 205.945 149.222 205.945 148.727C205.945 148.239 205.874 147.811 205.732 147.445C205.59 147.075 205.38 146.788 205.101 146.584C204.823 146.376 204.479 146.273 204.07 146.273C203.644 146.273 203.289 146.382 203.005 146.601C202.724 146.817 202.512 147.111 202.37 147.483C202.231 147.852 202.161 148.267 202.161 148.727C202.161 149.193 202.232 149.616 202.374 149.997C202.519 150.375 202.732 150.676 203.013 150.901C203.297 151.122 203.65 151.233 204.07 151.233ZM208.915 152V145.455H209.921V152H208.915ZM209.427 144.364C209.231 144.364 209.062 144.297 208.92 144.163C208.78 144.03 208.711 143.869 208.711 143.682C208.711 143.494 208.78 143.334 208.92 143.2C209.062 143.067 209.231 143 209.427 143C209.623 143 209.79 143.067 209.93 143.2C210.072 143.334 210.143 143.494 210.143 143.682C210.143 143.869 210.072 144.03 209.93 144.163C209.79 144.297 209.623 144.364 209.427 144.364ZM214.235 152.136C213.689 152.136 213.208 151.999 212.79 151.723C212.372 151.445 212.046 151.053 211.81 150.547C211.574 150.038 211.456 149.438 211.456 148.744C211.456 148.057 211.574 147.46 211.81 146.955C212.046 146.449 212.374 146.058 212.794 145.783C213.215 145.507 213.701 145.369 214.252 145.369C214.678 145.369 215.014 145.44 215.262 145.582C215.512 145.722 215.702 145.881 215.833 146.06C215.966 146.236 216.07 146.381 216.144 146.494H216.229V145.455H217.235V152H216.263V150.994H216.144C216.07 151.114 215.965 151.264 215.828 151.446C215.692 151.625 215.497 151.786 215.245 151.928C214.992 152.067 214.655 152.136 214.235 152.136ZM214.371 151.233C214.774 151.233 215.115 151.128 215.394 150.918C215.672 150.705 215.884 150.411 216.029 150.036C216.174 149.658 216.246 149.222 216.246 148.727C216.246 148.239 216.175 147.811 216.033 147.445C215.891 147.075 215.681 146.788 215.402 146.584C215.124 146.376 214.78 146.273 214.371 146.273C213.945 146.273 213.59 146.382 213.306 146.601C213.024 146.817 212.813 147.111 212.671 147.483C212.531 147.852 212.462 148.267 212.462 148.727C212.462 149.193 212.533 149.616 212.675 149.997C212.82 150.375 213.033 150.676 213.314 150.901C213.598 151.122 213.951 151.233 214.371 151.233Z" fill="#D5D2D2"/>
<path d="M287.555 152H286.447L289.652 143.273H290.743L293.947 152H292.839L290.231 144.653H290.163L287.555 152ZM287.964 148.591H292.43V149.528H287.964V148.591ZM296.176 143.273V152H295.17V143.273H296.176ZM300.66 154.591C300.174 154.591 299.757 154.528 299.407 154.403C299.058 154.281 298.766 154.119 298.534 153.918C298.303 153.719 298.12 153.506 297.984 153.278L298.785 152.716C298.876 152.835 298.991 152.972 299.13 153.125C299.269 153.281 299.46 153.416 299.701 153.53C299.945 153.646 300.265 153.705 300.66 153.705C301.188 153.705 301.624 153.577 301.968 153.321C302.312 153.065 302.484 152.665 302.484 152.119V150.79H302.399C302.325 150.909 302.22 151.057 302.083 151.233C301.95 151.406 301.757 151.561 301.504 151.697C301.254 151.831 300.916 151.898 300.49 151.898C299.961 151.898 299.487 151.773 299.066 151.523C298.649 151.273 298.318 150.909 298.073 150.432C297.832 149.955 297.711 149.375 297.711 148.693C297.711 148.023 297.829 147.439 298.065 146.942C298.301 146.442 298.629 146.055 299.049 145.783C299.47 145.507 299.955 145.369 300.507 145.369C300.933 145.369 301.271 145.44 301.521 145.582C301.774 145.722 301.967 145.881 302.1 146.06C302.237 146.236 302.342 146.381 302.416 146.494H302.518V145.455H303.49V152.188C303.49 152.75 303.362 153.207 303.106 153.56C302.853 153.915 302.512 154.175 302.083 154.339C301.657 154.507 301.183 154.591 300.66 154.591ZM300.626 150.994C301.029 150.994 301.37 150.902 301.649 150.717C301.927 150.533 302.139 150.267 302.284 149.92C302.428 149.574 302.501 149.159 302.501 148.676C302.501 148.205 302.43 147.788 302.288 147.428C302.146 147.067 301.936 146.784 301.657 146.58C301.379 146.375 301.035 146.273 300.626 146.273C300.2 146.273 299.845 146.381 299.561 146.597C299.279 146.812 299.068 147.102 298.926 147.466C298.786 147.83 298.717 148.233 298.717 148.676C298.717 149.131 298.788 149.533 298.93 149.882C299.075 150.229 299.288 150.501 299.569 150.7C299.853 150.896 300.205 150.994 300.626 150.994ZM308.075 152.136C307.444 152.136 306.9 151.997 306.443 151.719C305.988 151.438 305.637 151.045 305.39 150.543C305.146 150.037 305.024 149.449 305.024 148.778C305.024 148.108 305.146 147.517 305.39 147.006C305.637 146.491 305.981 146.091 306.421 145.804C306.865 145.514 307.382 145.369 307.972 145.369C308.313 145.369 308.65 145.426 308.982 145.54C309.315 145.653 309.617 145.838 309.89 146.094C310.163 146.347 310.38 146.682 310.542 147.099C310.704 147.517 310.785 148.031 310.785 148.642V149.068H305.74V148.199H309.762C309.762 147.83 309.688 147.5 309.541 147.21C309.396 146.92 309.188 146.692 308.918 146.524C308.651 146.357 308.336 146.273 307.972 146.273C307.572 146.273 307.225 146.372 306.933 146.571C306.643 146.767 306.42 147.023 306.264 147.338C306.107 147.653 306.029 147.991 306.029 148.352V148.932C306.029 149.426 306.115 149.845 306.285 150.189C306.458 150.53 306.698 150.79 307.005 150.969C307.312 151.145 307.668 151.233 308.075 151.233C308.339 151.233 308.578 151.196 308.791 151.122C309.007 151.045 309.193 150.932 309.349 150.781C309.505 150.628 309.626 150.437 309.711 150.21L310.683 150.483C310.58 150.812 310.409 151.102 310.167 151.352C309.926 151.599 309.627 151.793 309.272 151.932C308.917 152.068 308.518 152.136 308.075 152.136ZM312.315 152V145.455H313.286V146.443H313.355C313.474 146.119 313.69 145.857 314.002 145.655C314.315 145.453 314.667 145.352 315.059 145.352C315.133 145.352 315.225 145.354 315.336 145.357C315.447 145.359 315.531 145.364 315.588 145.369V146.392C315.553 146.384 315.475 146.371 315.353 146.354C315.234 146.334 315.107 146.324 314.974 146.324C314.656 146.324 314.372 146.391 314.122 146.524C313.874 146.655 313.678 146.837 313.534 147.07C313.391 147.3 313.32 147.562 313.32 147.858V152H312.315Z" fill="#D5D2D2"/>
<path d="M384.205 152V143.273H387.256C387.864 143.273 388.366 143.378 388.76 143.588C389.155 143.795 389.449 144.075 389.643 144.428C389.836 144.777 389.932 145.165 389.932 145.591C389.932 145.966 389.866 146.276 389.732 146.52C389.601 146.764 389.428 146.957 389.212 147.099C388.999 147.241 388.768 147.347 388.518 147.415V147.5C388.785 147.517 389.053 147.611 389.323 147.781C389.593 147.952 389.819 148.196 390.001 148.514C390.182 148.832 390.273 149.222 390.273 149.682C390.273 150.119 390.174 150.513 389.975 150.862C389.776 151.212 389.462 151.489 389.033 151.693C388.604 151.898 388.046 152 387.358 152H384.205ZM385.262 151.062H387.358C388.049 151.062 388.539 150.929 388.829 150.662C389.121 150.392 389.268 150.065 389.268 149.682C389.268 149.386 389.192 149.114 389.042 148.864C388.891 148.611 388.677 148.409 388.398 148.259C388.12 148.105 387.79 148.028 387.41 148.028H385.262V151.062ZM385.262 147.108H387.222C387.54 147.108 387.827 147.045 388.083 146.92C388.341 146.795 388.546 146.619 388.697 146.392C388.85 146.165 388.927 145.898 388.927 145.591C388.927 145.207 388.793 144.882 388.526 144.615C388.259 144.345 387.836 144.21 387.256 144.21H385.262V147.108ZM394.532 152.136C393.942 152.136 393.423 151.996 392.977 151.714C392.534 151.433 392.187 151.04 391.937 150.534C391.69 150.028 391.567 149.437 391.567 148.761C391.567 148.08 391.69 147.484 391.937 146.976C392.187 146.467 392.534 146.072 392.977 145.791C393.423 145.51 393.942 145.369 394.532 145.369C395.123 145.369 395.64 145.51 396.084 145.791C396.53 146.072 396.876 146.467 397.123 146.976C397.373 147.484 397.498 148.08 397.498 148.761C397.498 149.437 397.373 150.028 397.123 150.534C396.876 151.04 396.53 151.433 396.084 151.714C395.64 151.996 395.123 152.136 394.532 152.136ZM394.532 151.233C394.981 151.233 395.351 151.118 395.64 150.888C395.93 150.658 396.145 150.355 396.284 149.98C396.423 149.605 396.493 149.199 396.493 148.761C396.493 148.324 396.423 147.916 396.284 147.538C396.145 147.161 395.93 146.855 395.64 146.622C395.351 146.389 394.981 146.273 394.532 146.273C394.084 146.273 393.714 146.389 393.425 146.622C393.135 146.855 392.92 147.161 392.781 147.538C392.642 147.916 392.572 148.324 392.572 148.761C392.572 149.199 392.642 149.605 392.781 149.98C392.92 150.355 393.135 150.658 393.425 150.888C393.714 151.118 394.084 151.233 394.532 151.233ZM403.159 149.324V145.455H404.164V152H403.159V150.892H403.09C402.937 151.224 402.698 151.507 402.374 151.74C402.051 151.97 401.641 152.085 401.147 152.085C400.738 152.085 400.374 151.996 400.056 151.817C399.738 151.635 399.488 151.362 399.306 150.999C399.124 150.632 399.034 150.17 399.034 149.614V145.455H400.039V149.545C400.039 150.023 400.173 150.403 400.44 150.688C400.71 150.972 401.053 151.114 401.471 151.114C401.721 151.114 401.975 151.05 402.234 150.922C402.495 150.794 402.714 150.598 402.89 150.334C403.069 150.07 403.159 149.733 403.159 149.324ZM406.006 152V145.455H407.012V152H406.006ZM406.518 144.364C406.322 144.364 406.153 144.297 406.01 144.163C405.871 144.03 405.802 143.869 405.802 143.682C405.802 143.494 405.871 143.334 406.01 143.2C406.153 143.067 406.322 143 406.518 143C406.714 143 406.881 143.067 407.02 143.2C407.162 143.334 407.233 143.494 407.233 143.682C407.233 143.869 407.162 144.03 407.02 144.163C406.881 144.297 406.714 144.364 406.518 144.364ZM408.854 152V145.455H409.825V146.443H409.894C410.013 146.119 410.229 145.857 410.541 145.655C410.854 145.453 411.206 145.352 411.598 145.352C411.672 145.352 411.764 145.354 411.875 145.357C411.986 145.359 412.07 145.364 412.127 145.369V146.392C412.092 146.384 412.014 146.371 411.892 146.354C411.773 146.334 411.646 146.324 411.513 146.324C411.195 146.324 410.911 146.391 410.661 146.524C410.414 146.655 410.217 146.837 410.073 147.07C409.931 147.3 409.86 147.562 409.86 147.858V152H408.854ZM415.591 152.136C415.046 152.136 414.564 151.999 414.146 151.723C413.729 151.445 413.402 151.053 413.166 150.547C412.931 150.038 412.813 149.438 412.813 148.744C412.813 148.057 412.931 147.46 413.166 146.955C413.402 146.449 413.73 146.058 414.151 145.783C414.571 145.507 415.057 145.369 415.608 145.369C416.034 145.369 416.371 145.44 416.618 145.582C416.868 145.722 417.058 145.881 417.189 146.06C417.323 146.236 417.426 146.381 417.5 146.494H417.585V145.455H418.591V152H417.619V150.994H417.5C417.426 151.114 417.321 151.264 417.185 151.446C417.048 151.625 416.854 151.786 416.601 151.928C416.348 152.067 416.012 152.136 415.591 152.136ZM415.727 151.233C416.131 151.233 416.472 151.128 416.75 150.918C417.029 150.705 417.24 150.411 417.385 150.036C417.53 149.658 417.602 149.222 417.602 148.727C417.602 148.239 417.531 147.811 417.389 147.445C417.247 147.075 417.037 146.788 416.759 146.584C416.48 146.376 416.137 146.273 415.727 146.273C415.301 146.273 414.946 146.382 414.662 146.601C414.381 146.817 414.169 147.111 414.027 147.483C413.888 147.852 413.818 148.267 413.818 148.727C413.818 149.193 413.889 149.616 414.031 149.997C414.176 150.375 414.389 150.676 414.671 150.901C414.955 151.122 415.307 151.233 415.727 151.233Z" fill="#D5D2D2"/>
<path d="M468.994 152V143.273H472.045C472.653 143.273 473.155 143.378 473.55 143.588C473.945 143.795 474.239 144.075 474.432 144.428C474.625 144.777 474.722 145.165 474.722 145.591C474.722 145.966 474.655 146.276 474.521 146.52C474.391 146.764 474.217 146.957 474.001 147.099C473.788 147.241 473.557 147.347 473.307 147.415V147.5C473.574 147.517 473.842 147.611 474.112 147.781C474.382 147.952 474.608 148.196 474.79 148.514C474.972 148.832 475.062 149.222 475.062 149.682C475.062 150.119 474.963 150.513 474.764 150.862C474.565 151.212 474.251 151.489 473.822 151.693C473.393 151.898 472.835 152 472.148 152H468.994ZM470.051 151.062H472.148C472.838 151.062 473.328 150.929 473.618 150.662C473.911 150.392 474.057 150.065 474.057 149.682C474.057 149.386 473.982 149.114 473.831 148.864C473.68 148.611 473.466 148.409 473.188 148.259C472.909 148.105 472.58 148.028 472.199 148.028H470.051V151.062ZM470.051 147.108H472.011C472.33 147.108 472.616 147.045 472.872 146.92C473.131 146.795 473.335 146.619 473.486 146.392C473.639 146.165 473.716 145.898 473.716 145.591C473.716 145.207 473.582 144.882 473.315 144.615C473.048 144.345 472.625 144.21 472.045 144.21H470.051V147.108ZM479.322 152.136C478.731 152.136 478.212 151.996 477.766 151.714C477.323 151.433 476.977 151.04 476.727 150.534C476.479 150.028 476.356 149.437 476.356 148.761C476.356 148.08 476.479 147.484 476.727 146.976C476.977 146.467 477.323 146.072 477.766 145.791C478.212 145.51 478.731 145.369 479.322 145.369C479.913 145.369 480.43 145.51 480.873 145.791C481.319 146.072 481.665 146.467 481.913 146.976C482.163 147.484 482.288 148.08 482.288 148.761C482.288 149.437 482.163 150.028 481.913 150.534C481.665 151.04 481.319 151.433 480.873 151.714C480.43 151.996 479.913 152.136 479.322 152.136ZM479.322 151.233C479.771 151.233 480.14 151.118 480.43 150.888C480.719 150.658 480.934 150.355 481.073 149.98C481.212 149.605 481.282 149.199 481.282 148.761C481.282 148.324 481.212 147.916 481.073 147.538C480.934 147.161 480.719 146.855 480.43 146.622C480.14 146.389 479.771 146.273 479.322 146.273C478.873 146.273 478.504 146.389 478.214 146.622C477.924 146.855 477.71 147.161 477.57 147.538C477.431 147.916 477.362 148.324 477.362 148.761C477.362 149.199 477.431 149.605 477.57 149.98C477.71 150.355 477.924 150.658 478.214 150.888C478.504 151.118 478.873 151.233 479.322 151.233ZM487.948 149.324V145.455H488.953V152H487.948V150.892H487.88C487.726 151.224 487.488 151.507 487.164 151.74C486.84 151.97 486.431 152.085 485.936 152.085C485.527 152.085 485.164 151.996 484.846 151.817C484.527 151.635 484.277 151.362 484.096 150.999C483.914 150.632 483.823 150.17 483.823 149.614V145.455H484.828V149.545C484.828 150.023 484.962 150.403 485.229 150.688C485.499 150.972 485.843 151.114 486.26 151.114C486.51 151.114 486.765 151.05 487.023 150.922C487.284 150.794 487.503 150.598 487.679 150.334C487.858 150.07 487.948 149.733 487.948 149.324ZM490.795 152V145.455H491.767V146.477H491.852C491.989 146.128 492.209 145.857 492.513 145.663C492.817 145.467 493.182 145.369 493.608 145.369C494.04 145.369 494.399 145.467 494.686 145.663C494.976 145.857 495.202 146.128 495.364 146.477H495.432C495.599 146.139 495.851 145.871 496.186 145.672C496.521 145.47 496.923 145.369 497.392 145.369C497.977 145.369 498.456 145.553 498.828 145.919C499.2 146.283 499.386 146.849 499.386 147.619V152H498.381V147.619C498.381 147.136 498.249 146.791 497.984 146.584C497.72 146.376 497.409 146.273 497.051 146.273C496.591 146.273 496.234 146.412 495.982 146.69C495.729 146.966 495.602 147.315 495.602 147.739V152H494.58V147.517C494.58 147.145 494.459 146.845 494.217 146.618C493.976 146.388 493.665 146.273 493.284 146.273C493.023 146.273 492.778 146.342 492.551 146.482C492.327 146.621 492.145 146.814 492.006 147.061C491.869 147.305 491.801 147.588 491.801 147.909V152H490.795ZM503.969 152.136C503.339 152.136 502.795 151.997 502.337 151.719C501.883 151.438 501.532 151.045 501.285 150.543C501.04 150.037 500.918 149.449 500.918 148.778C500.918 148.108 501.04 147.517 501.285 147.006C501.532 146.491 501.876 146.091 502.316 145.804C502.759 145.514 503.276 145.369 503.867 145.369C504.208 145.369 504.545 145.426 504.877 145.54C505.21 145.653 505.512 145.838 505.785 146.094C506.058 146.347 506.275 146.682 506.437 147.099C506.599 147.517 506.68 148.031 506.68 148.642V149.068H501.634V148.199H505.657C505.657 147.83 505.583 147.5 505.435 147.21C505.29 146.92 505.083 146.692 504.813 146.524C504.546 146.357 504.231 146.273 503.867 146.273C503.467 146.273 503.12 146.372 502.827 146.571C502.538 146.767 502.315 147.023 502.158 147.338C502.002 147.653 501.924 147.991 501.924 148.352V148.932C501.924 149.426 502.009 149.845 502.18 150.189C502.353 150.53 502.593 150.79 502.9 150.969C503.207 151.145 503.563 151.233 503.969 151.233C504.234 151.233 504.472 151.196 504.685 151.122C504.901 151.045 505.087 150.932 505.244 150.781C505.4 150.628 505.521 150.437 505.606 150.21L506.577 150.483C506.475 150.812 506.303 151.102 506.062 151.352C505.82 151.599 505.522 151.793 505.167 151.932C504.812 152.068 504.413 152.136 503.969 152.136ZM508.21 152V145.455H509.181V146.443H509.249C509.369 146.119 509.585 145.857 509.897 145.655C510.21 145.453 510.562 145.352 510.954 145.352C511.028 145.352 511.12 145.354 511.231 145.357C511.342 145.359 511.425 145.364 511.482 145.369V146.392C511.448 146.384 511.37 146.371 511.248 146.354C511.129 146.334 511.002 146.324 510.869 146.324C510.55 146.324 510.266 146.391 510.016 146.524C509.769 146.655 509.573 146.837 509.428 147.07C509.286 147.3 509.215 147.562 509.215 147.858V152H508.21ZM514.947 152.136C514.401 152.136 513.92 151.999 513.502 151.723C513.085 151.445 512.758 151.053 512.522 150.547C512.286 150.038 512.168 149.438 512.168 148.744C512.168 148.057 512.286 147.46 512.522 146.955C512.758 146.449 513.086 146.058 513.506 145.783C513.927 145.507 514.413 145.369 514.964 145.369C515.39 145.369 515.727 145.44 515.974 145.582C516.224 145.722 516.414 145.881 516.545 146.06C516.678 146.236 516.782 146.381 516.856 146.494H516.941V143.273H517.947V152H516.975V150.994H516.856C516.782 151.114 516.677 151.264 516.54 151.446C516.404 151.625 516.21 151.786 515.957 151.928C515.704 152.067 515.367 152.136 514.947 152.136ZM515.083 151.233C515.487 151.233 515.827 151.128 516.106 150.918C516.384 150.705 516.596 150.411 516.741 150.036C516.886 149.658 516.958 149.222 516.958 148.727C516.958 148.239 516.887 147.811 516.745 147.445C516.603 147.075 516.393 146.788 516.114 146.584C515.836 146.376 515.492 146.273 515.083 146.273C514.657 146.273 514.302 146.382 514.018 146.601C513.737 146.817 513.525 147.111 513.383 147.483C513.244 147.852 513.174 148.267 513.174 148.727C513.174 149.193 513.245 149.616 513.387 149.997C513.532 150.375 513.745 150.676 514.026 150.901C514.31 151.122 514.663 151.233 515.083 151.233ZM522.673 152.136C522.042 152.136 521.498 151.997 521.04 151.719C520.586 151.438 520.235 151.045 519.988 150.543C519.744 150.037 519.621 149.449 519.621 148.778C519.621 148.108 519.744 147.517 519.988 147.006C520.235 146.491 520.579 146.091 521.019 145.804C521.462 145.514 521.979 145.369 522.57 145.369C522.911 145.369 523.248 145.426 523.58 145.54C523.913 145.653 524.215 145.838 524.488 146.094C524.761 146.347 524.978 146.682 525.14 147.099C525.302 147.517 525.383 148.031 525.383 148.642V149.068H520.337V148.199H524.36C524.36 147.83 524.286 147.5 524.138 147.21C523.994 146.92 523.786 146.692 523.516 146.524C523.249 146.357 522.934 146.273 522.57 146.273C522.17 146.273 521.823 146.372 521.531 146.571C521.241 146.767 521.018 147.023 520.862 147.338C520.705 147.653 520.627 147.991 520.627 148.352V148.932C520.627 149.426 520.712 149.845 520.883 150.189C521.056 150.53 521.296 150.79 521.603 150.969C521.91 151.145 522.266 151.233 522.673 151.233C522.937 151.233 523.175 151.196 523.388 151.122C523.604 151.045 523.79 150.932 523.947 150.781C524.103 150.628 524.224 150.437 524.309 150.21L525.281 150.483C525.178 150.812 525.006 151.102 524.765 151.352C524.523 151.599 524.225 151.793 523.87 151.932C523.515 152.068 523.116 152.136 522.673 152.136ZM531.549 146.92L530.646 147.176C530.589 147.026 530.505 146.879 530.394 146.737C530.286 146.592 530.138 146.473 529.951 146.379C529.763 146.286 529.523 146.239 529.231 146.239C528.83 146.239 528.496 146.331 528.229 146.516C527.965 146.697 527.833 146.929 527.833 147.21C527.833 147.46 527.924 147.658 528.106 147.803C528.288 147.947 528.572 148.068 528.958 148.165L529.93 148.403C530.515 148.545 530.951 148.763 531.238 149.055C531.525 149.345 531.668 149.719 531.668 150.176C531.668 150.551 531.56 150.886 531.344 151.182C531.131 151.477 530.833 151.71 530.45 151.881C530.066 152.051 529.62 152.136 529.112 152.136C528.444 152.136 527.891 151.991 527.454 151.702C527.016 151.412 526.739 150.989 526.623 150.432L527.577 150.193C527.668 150.545 527.84 150.81 528.093 150.986C528.349 151.162 528.683 151.25 529.094 151.25C529.563 151.25 529.935 151.151 530.211 150.952C530.489 150.75 530.629 150.509 530.629 150.227C530.629 150 530.549 149.81 530.39 149.656C530.231 149.5 529.987 149.384 529.657 149.307L528.566 149.051C527.967 148.909 527.526 148.689 527.245 148.391C526.967 148.089 526.827 147.713 526.827 147.261C526.827 146.892 526.931 146.565 527.138 146.281C527.349 145.997 527.634 145.774 527.995 145.612C528.359 145.45 528.771 145.369 529.231 145.369C529.879 145.369 530.387 145.511 530.756 145.795C531.129 146.08 531.393 146.455 531.549 146.92Z" fill="#D5D2D2"/>
<path d="M591.13 147.636C591.13 148.557 590.964 149.352 590.632 150.023C590.299 150.693 589.843 151.21 589.264 151.574C588.684 151.938 588.022 152.119 587.278 152.119C586.534 152.119 585.872 151.938 585.292 151.574C584.713 151.21 584.257 150.693 583.924 150.023C583.592 149.352 583.426 148.557 583.426 147.636C583.426 146.716 583.592 145.92 583.924 145.25C584.257 144.58 584.713 144.062 585.292 143.699C585.872 143.335 586.534 143.153 587.278 143.153C588.022 143.153 588.684 143.335 589.264 143.699C589.843 144.062 590.299 144.58 590.632 145.25C590.964 145.92 591.13 146.716 591.13 147.636ZM590.107 147.636C590.107 146.881 589.981 146.243 589.728 145.723C589.478 145.203 589.139 144.81 588.71 144.543C588.284 144.276 587.806 144.142 587.278 144.142C586.75 144.142 586.271 144.276 585.842 144.543C585.416 144.81 585.076 145.203 584.823 145.723C584.573 146.243 584.448 146.881 584.448 147.636C584.448 148.392 584.573 149.03 584.823 149.55C585.076 150.07 585.416 150.463 585.842 150.73C586.271 150.997 586.75 151.131 587.278 151.131C587.806 151.131 588.284 150.997 588.71 150.73C589.139 150.463 589.478 150.07 589.728 149.55C589.981 149.03 590.107 148.392 590.107 147.636ZM595.617 145.455V146.307H592.225V145.455H595.617ZM593.214 143.886H594.22V150.125C594.22 150.409 594.261 150.622 594.343 150.764C594.429 150.903 594.536 150.997 594.667 151.045C594.801 151.091 594.941 151.114 595.089 151.114C595.2 151.114 595.291 151.108 595.362 151.097C595.433 151.082 595.49 151.071 595.532 151.062L595.737 151.966C595.669 151.991 595.573 152.017 595.451 152.043C595.329 152.071 595.174 152.085 594.987 152.085C594.703 152.085 594.424 152.024 594.152 151.902C593.882 151.78 593.657 151.594 593.478 151.344C593.302 151.094 593.214 150.778 593.214 150.398V143.886ZM598.277 148.062V152H597.271V143.273H598.277V146.477H598.362C598.515 146.139 598.745 145.871 599.052 145.672C599.362 145.47 599.774 145.369 600.288 145.369C600.734 145.369 601.125 145.459 601.46 145.638C601.795 145.814 602.055 146.085 602.24 146.452C602.427 146.815 602.521 147.278 602.521 147.841V152H601.515V147.909C601.515 147.389 601.38 146.987 601.11 146.703C600.843 146.416 600.473 146.273 599.998 146.273C599.669 146.273 599.373 146.342 599.112 146.482C598.853 146.621 598.649 146.824 598.498 147.091C598.35 147.358 598.277 147.682 598.277 148.062ZM607.105 152.136C606.474 152.136 605.93 151.997 605.473 151.719C605.018 151.438 604.668 151.045 604.42 150.543C604.176 150.037 604.054 149.449 604.054 148.778C604.054 148.108 604.176 147.517 604.42 147.006C604.668 146.491 605.011 146.091 605.452 145.804C605.895 145.514 606.412 145.369 607.003 145.369C607.344 145.369 607.68 145.426 608.013 145.54C608.345 145.653 608.648 145.838 608.92 146.094C609.193 146.347 609.41 146.682 609.572 147.099C609.734 147.517 609.815 148.031 609.815 148.642V149.068H604.77V148.199H608.793C608.793 147.83 608.719 147.5 608.571 147.21C608.426 146.92 608.219 146.692 607.949 146.524C607.682 146.357 607.366 146.273 607.003 146.273C606.602 146.273 606.256 146.372 605.963 146.571C605.673 146.767 605.45 147.023 605.294 147.338C605.138 147.653 605.06 147.991 605.06 148.352V148.932C605.06 149.426 605.145 149.845 605.315 150.189C605.489 150.53 605.729 150.79 606.035 150.969C606.342 151.145 606.699 151.233 607.105 151.233C607.369 151.233 607.608 151.196 607.821 151.122C608.037 151.045 608.223 150.932 608.379 150.781C608.535 150.628 608.656 150.437 608.741 150.21L609.713 150.483C609.611 150.812 609.439 151.102 609.197 151.352C608.956 151.599 608.658 151.793 608.302 151.932C607.947 152.068 607.548 152.136 607.105 152.136ZM611.345 152V145.455H612.317V146.443H612.385C612.504 146.119 612.72 145.857 613.033 145.655C613.345 145.453 613.697 145.352 614.089 145.352C614.163 145.352 614.256 145.354 614.366 145.357C614.477 145.359 614.561 145.364 614.618 145.369V146.392C614.584 146.384 614.506 146.371 614.383 146.354C614.264 146.334 614.138 146.324 614.004 146.324C613.686 146.324 613.402 146.391 613.152 146.524C612.905 146.655 612.709 146.837 612.564 147.07C612.422 147.3 612.351 147.562 612.351 147.858V152H611.345Z" fill="#D5D2D2"/>
<path d="M45.8082 19.9489C45.8082 19.4091 45.9261 18.929 46.1619 18.5085C46.4006 18.0881 46.7259 17.7571 47.1378 17.5156C47.5526 17.2741 48.0241 17.1534 48.5526 17.1534C49.0866 17.1534 49.5611 17.2784 49.9759 17.5284C50.3906 17.7756 50.7159 18.1165 50.9517 18.5511C51.1875 18.983 51.3026 19.4773 51.2969 20.0341C51.2912 20.3068 51.25 20.5895 51.1733 20.8821C51.0966 21.1747 50.9673 21.5 50.7855 21.858C50.6037 22.2159 50.3537 22.6307 50.0355 23.1023L48.0753 26H46.9162L49.2173 22.642C49.1151 22.6761 49.0085 22.7045 48.8977 22.7273C48.7898 22.75 48.6804 22.7614 48.5696 22.7614C48.0412 22.7614 47.5682 22.6392 47.1506 22.3949C46.7358 22.1506 46.4077 21.8168 46.1662 21.3935C45.9276 20.9702 45.8082 20.4886 45.8082 19.9489ZM46.8139 19.9489C46.8139 20.3182 46.8878 20.6435 47.0355 20.9247C47.1832 21.206 47.3878 21.4261 47.6491 21.5852C47.9105 21.7443 48.2116 21.8239 48.5526 21.8239C48.8935 21.8239 49.1946 21.7457 49.456 21.5895C49.7173 21.4304 49.9219 21.2116 50.0696 20.9332C50.2173 20.652 50.2912 20.3295 50.2912 19.9659C50.2912 19.5966 50.2173 19.2699 50.0696 18.9858C49.9219 18.7017 49.7173 18.4787 49.456 18.3168C49.1946 18.1548 48.8935 18.0739 48.5526 18.0739C48.2116 18.0739 47.9105 18.1548 47.6491 18.3168C47.3878 18.4759 47.1832 18.6974 47.0355 18.9815C46.8878 19.2628 46.8139 19.5852 46.8139 19.9489Z" fill="#D5D2D2"/>
<path d="M45.8082 53.4886C45.8139 53.2159 45.8551 52.9332 45.9318 52.6406C46.0085 52.348 46.1378 52.0227 46.3196 51.6648C46.5014 51.3068 46.7514 50.892 47.0696 50.4205L49.0298 47.5227H50.1889L47.8878 50.8807C47.9901 50.8466 48.0952 50.8182 48.2031 50.7955C48.3139 50.7727 48.4247 50.7614 48.5355 50.7614C49.0639 50.7614 49.5355 50.8835 49.9503 51.1278C50.3679 51.3722 50.696 51.706 50.9347 52.1293C51.1761 52.5526 51.2969 53.0341 51.2969 53.5739C51.2969 54.1136 51.1776 54.5937 50.9389 55.0142C50.7031 55.4347 50.3778 55.7656 49.9631 56.0071C49.5511 56.2486 49.081 56.3693 48.5526 56.3693C48.0185 56.3693 47.544 56.2457 47.1293 55.9986C46.7145 55.7486 46.3892 55.4077 46.1534 54.9759C45.9176 54.5412 45.8026 54.0455 45.8082 53.4886ZM46.8139 53.5568C46.8139 53.9261 46.8878 54.2528 47.0355 54.5369C47.1832 54.821 47.3878 55.044 47.6491 55.206C47.9105 55.3679 48.2116 55.4489 48.5526 55.4489C48.8935 55.4489 49.1946 55.3693 49.456 55.2102C49.7173 55.0483 49.9219 54.8267 50.0696 54.5455C50.2173 54.2614 50.2912 53.9375 50.2912 53.5739C50.2912 53.2045 50.2173 52.8793 50.0696 52.598C49.9219 52.3168 49.7173 52.0966 49.456 51.9375C49.1946 51.7784 48.8935 51.6989 48.5526 51.6989C48.2116 51.6989 47.9105 51.7784 47.6491 51.9375C47.3878 52.0938 47.1832 52.3125 47.0355 52.5938C46.8878 52.8722 46.8139 53.1932 46.8139 53.5568Z" fill="#D5D2D2"/>
<path d="M45.2319 84.3182H46.3058C46.337 84.6136 46.4379 84.8636 46.6083 85.0682C46.7816 85.2699 47.006 85.4233 47.2816 85.5284C47.5572 85.6307 47.8626 85.6818 48.1978 85.6818C48.5614 85.6818 48.8881 85.6207 49.1779 85.4986C49.4677 85.3764 49.6978 85.1946 49.8683 84.9531C50.0387 84.7088 50.1239 84.4062 50.1239 84.0455C50.1239 83.7301 50.0501 83.4375 49.9023 83.1676C49.7546 82.8949 49.5174 82.6747 49.1907 82.5071C48.864 82.3395 48.4308 82.2557 47.891 82.2557H47.1921V81.4034L49.3739 78.7784V78.7102H45.658V77.7727H50.8228V78.5398L48.4876 81.3693V81.4375C48.8626 81.4545 49.212 81.5312 49.5359 81.6676C49.8626 81.804 50.1467 81.9886 50.3881 82.2216C50.6325 82.4545 50.8228 82.7259 50.9592 83.0355C51.0955 83.3452 51.1637 83.6818 51.1637 84.0455C51.1637 84.5426 51.0359 84.9858 50.7802 85.375C50.5273 85.7614 50.1765 86.0653 49.7276 86.2869C49.2816 86.5085 48.766 86.6193 48.1808 86.6193C47.6637 86.6193 47.1879 86.5284 46.7532 86.3466C46.3185 86.1648 45.9648 85.902 45.6921 85.5582C45.4194 85.2145 45.266 84.8011 45.2319 84.3182Z" fill="#D5D2D2"/>
<path d="M48.25 116.869C47.608 116.869 47.0611 116.695 46.6094 116.345C46.1577 115.993 45.8125 115.483 45.5739 114.815C45.3352 114.145 45.2159 113.335 45.2159 112.386C45.2159 111.443 45.3352 110.638 45.5739 109.97C45.8153 109.3 46.1619 108.788 46.6136 108.436C47.0682 108.081 47.6136 107.903 48.25 107.903C48.8864 107.903 49.4304 108.081 49.8821 108.436C50.3366 108.788 50.6832 109.3 50.9219 109.97C51.1634 110.638 51.2841 111.443 51.2841 112.386C51.2841 113.335 51.1648 114.145 50.9261 114.815C50.6875 115.483 50.3423 115.993 49.8906 116.345C49.4389 116.695 48.892 116.869 48.25 116.869ZM48.25 115.932C48.8864 115.932 49.3807 115.625 49.733 115.011C50.0852 114.398 50.2614 113.523 50.2614 112.386C50.2614 111.631 50.1804 110.987 50.0185 110.456C49.8594 109.925 49.6293 109.52 49.3281 109.241C49.0298 108.963 48.6705 108.824 48.25 108.824C47.6193 108.824 47.1264 109.135 46.7713 109.757C46.4162 110.376 46.2386 111.253 46.2386 112.386C46.2386 113.142 46.3182 113.784 46.4773 114.312C46.6364 114.841 46.8651 115.243 47.1634 115.518C47.4645 115.794 47.8267 115.932 48.25 115.932Z" fill="#D5D2D2"/>
</svg>
