<svg width="57" height="57" viewBox="0 0 57 57" fill="none" xmlns="http://www.w3.org/2000/svg">
<rect width="57" height="57" rx="28.5" fill="#38419D" fill-opacity="0.34"/>
<path d="M22.7001 17.625C20.2977 17.625 18.3501 19.5725 18.3501 21.9749C18.3501 22.7995 18.5795 23.5704 18.978 24.2275C16.9687 24.6118 15.4502 26.3785 15.4502 28.4998C15.4502 30.6212 16.9687 32.3878 18.978 32.7722M22.7001 17.625C22.7001 15.623 24.323 14 26.325 14C28.327 14 29.95 15.623 29.95 17.625V39.3747C29.95 41.3767 28.327 42.9997 26.325 42.9997C24.323 42.9997 22.7001 41.3767 22.7001 39.3747C20.2977 39.3747 18.3501 37.4272 18.3501 35.0248C18.3501 34.2001 18.5795 33.4292 18.978 32.7722M22.7001 17.625C22.7001 18.8109 23.2696 19.8638 24.1501 20.5252M18.978 32.7722C19.4949 31.92 20.2961 31.2594 21.2501 30.9223" stroke="#52D3D8" stroke-width="1.5" stroke-linecap="round" stroke-linejoin="round"/>
<path d="M40.4624 17.9874L37.1999 21.2499H34.2999M39.3749 17.9874C39.3749 18.588 39.8618 19.0749 40.4624 19.0749C41.0629 19.0749 41.5498 18.588 41.5498 17.9874C41.5498 17.3868 41.0629 16.8999 40.4624 16.8999C39.8618 16.8999 39.3749 17.3868 39.3749 17.9874Z" stroke="#52D3D8" stroke-width="1.5" stroke-linecap="round" stroke-linejoin="round"/>
<path d="M40.4624 39.0125L37.1999 35.75H34.2999M39.3749 39.0125C39.3749 38.4119 39.8618 37.925 40.4624 37.925C41.0629 37.925 41.5498 38.4119 41.5498 39.0125C41.5498 39.613 41.0629 40.0999 40.4624 40.0999C39.8618 40.0999 39.3749 39.613 39.3749 39.0125Z" stroke="#52D3D8" stroke-width="1.5" stroke-linecap="round" stroke-linejoin="round"/>
<path d="M40.4624 28.4996H34.2999M39.3749 28.4996C39.3749 29.1002 39.8618 29.5871 40.4624 29.5871C41.0629 29.5871 41.5498 29.1002 41.5498 28.4996C41.5498 27.899 41.0629 27.4121 40.4624 27.4121C39.8618 27.4121 39.3749 27.899 39.3749 28.4996Z" stroke="#52D3D8" stroke-width="1.5" stroke-linecap="round" stroke-linejoin="round"/>
</svg>
