<svg width="57" height="57" viewBox="0 0 57 57" fill="none" xmlns="http://www.w3.org/2000/svg">
<rect width="57" height="57" rx="28.5" fill="#38419D" fill-opacity="0.34"/>
<path d="M27.3007 30.1703L23.2802 21.25L30.3526 27.4553C31.3581 28.3375 31.3634 30.0183 30.3632 30.9079C29.3632 31.7976 27.8723 31.4385 27.3007 30.1703Z" stroke="#52D3D8" stroke-width="1.5" stroke-linecap="round" stroke-linejoin="round"/>
<path d="M19.3651 18.0887C16.9492 20.7263 15.4502 24.4018 15.4502 28.4671C15.4502 36.4931 21.2928 42.9997 28.5 42.9997C35.7072 42.9997 41.5499 36.4931 41.5499 28.4671C41.5499 21.4298 37.0583 15.5608 31.0933 14.2215C30.0023 13.9765 29.4569 13.854 28.9784 14.2901C28.5 14.7262 28.5 15.4311 28.5 16.841V18.2943" stroke="#52D3D8" stroke-width="1.5" stroke-linecap="round" stroke-linejoin="round"/>
</svg>
