<svg width="57" height="57" viewBox="0 0 57 57" fill="none" xmlns="http://www.w3.org/2000/svg">
<rect width="57" height="57" rx="28.5" fill="#38419D" fill-opacity="0.34"/>
<path d="M29.1525 15.4502H27.8476C22.0034 15.4502 19.0813 15.4502 17.2657 17.4675C15.4502 19.4847 15.4502 22.7315 15.4502 29.2249C15.4502 35.7184 15.4502 38.9652 17.2657 40.9825C19.0813 42.9997 22.0034 42.9997 27.8476 42.9997C33.6917 42.9997 36.6138 42.9997 38.4294 40.9825C40.2449 38.9652 40.2449 35.7184 40.2449 29.2249V27.775" stroke="#52D3D8" stroke-width="1.5" stroke-linecap="round"/>
<path d="M41.5499 19.0749C41.5499 21.8777 39.505 24.1498 36.9825 24.1498C34.46 24.1498 32.415 21.8777 32.415 19.0749C32.415 16.2721 34.46 14 36.9825 14C39.505 14 41.5499 16.2721 41.5499 19.0749Z" stroke="#52D3D8" stroke-width="1.5"/>
<path d="M21.9751 27.0498H27.195" stroke="#52D3D8" stroke-width="1.5" stroke-linecap="round" stroke-linejoin="round"/>
<path d="M21.9751 34.2998H32.415" stroke="#52D3D8" stroke-width="1.5" stroke-linecap="round" stroke-linejoin="round"/>
</svg>
