<svg width="24" height="24" viewBox="0 0 24 24" fill="none" xmlns="http://www.w3.org/2000/svg">
<path d="M21.4414 18C21.4414 17.5858 21.1056 17.25 20.6914 17.25C20.2772 17.25 19.9414 17.5858 19.9414 18H21.4414ZM19.9414 22C19.9414 22.4142 20.2772 22.75 20.6914 22.75C21.1056 22.75 21.4414 22.4142 21.4414 22H19.9414ZM8.46281 10.8889L8.54564 11.6343L8.54565 11.6343L8.46281 10.8889ZM6.93718 10.9882L7.01801 10.2426L7.01798 10.2426L6.93718 10.9882ZM4.00816 7.69526L4.75591 7.63716L4.75591 7.63715L4.00816 7.69526ZM13.6914 6.25C13.2772 6.25 12.9414 6.58579 12.9414 7C12.9414 7.41421 13.2772 7.75 13.6914 7.75V6.25ZM13.7004 7.75C14.1146 7.75 14.4504 7.41421 14.4504 7C14.4504 6.58579 14.1146 6.25 13.7004 6.25V7.75ZM17 6.25C16.5858 6.25 16.25 6.58579 16.25 7C16.25 7.41421 16.5858 7.75 17 7.75V6.25ZM21.5 7.75C21.9142 7.75 22.25 7.41421 22.25 7C22.25 6.58579 21.9142 6.25 21.5 6.25V7.75ZM2.246 4.22415L2.97402 4.04392L2.97402 4.04392L2.246 4.22415ZM2.08182 2.5451L2.75107 2.88363L2.75109 2.8836L2.08182 2.5451ZM2.31277 2.24638L2.80849 2.80919L2.8085 2.80919L2.31277 2.24638ZM10.2309 12.8603L10.5087 12.1636L10.5085 12.1636L10.2309 12.8603ZM9.51778 12.3727L10.0658 11.8606L10.0657 11.8606L9.51778 12.3727ZM8.80467 10.9485L9.50196 10.6723L9.50196 10.6723L8.80467 10.9485ZM8.26723 9.59167L7.56994 9.86786L7.56994 9.86787L8.26723 9.59167ZM7.51359 8.1244L8.04652 7.59668L8.0465 7.59666L7.51359 8.1244ZM6.06065 7.36333L5.77974 8.05874L5.77975 8.05874L6.06065 7.36333ZM4.3686 6.67983L4.08769 7.37524L4.08769 7.37524L4.3686 6.67983ZM3.00574 5.98088L2.48969 6.52511L2.48971 6.52513L3.00574 5.98088ZM2.74764 5.68227L3.36076 5.25032L3.36076 5.25031L2.74764 5.68227ZM14.25 13V14H15.75V13H14.25ZM14.25 14C14.25 15.393 14.2484 16.5132 14.3665 17.3917C14.4875 18.2918 14.7464 19.0497 15.3484 19.6516L16.409 18.591C16.1323 18.3142 15.9518 17.9256 15.8531 17.1918C15.7516 16.4365 15.75 15.4354 15.75 14H14.25ZM15.3484 19.6516C15.9503 20.2536 16.7082 20.5125 17.6083 20.6335C18.4868 20.7516 19.607 20.75 21 20.75V19.25C19.5646 19.25 18.5635 19.2484 17.8082 19.1469C17.0744 19.0482 16.6858 18.8677 16.409 18.591L15.3484 19.6516ZM19.9414 18V22H21.4414V18H19.9414ZM8.91716 10.0838L8.37997 10.1435L8.54565 11.6343L9.08284 11.5746L8.91716 10.0838ZM8.37998 10.1435C7.53313 10.2376 7.23497 10.2661 7.01801 10.2426L6.85635 11.7338C7.27961 11.7797 7.78516 11.7188 8.54564 11.6343L8.37998 10.1435ZM7.01798 10.2426C5.86873 10.118 4.86755 9.07392 4.75591 7.63716L3.26042 7.75337C3.41905 9.7948 4.88083 11.5198 6.85638 11.7338L7.01798 10.2426ZM4.75591 7.63715C4.73472 7.36451 4.76788 7.00197 4.86055 6.07457L3.36798 5.92543C3.28226 6.78329 3.22622 7.31339 3.26042 7.75337L4.75591 7.63715ZM13.6914 7.75H13.7004V6.25H13.6914V7.75ZM17 7.75H21.5V6.25H17V7.75ZM2.97402 4.04392C2.85865 3.57786 2.78873 3.29061 2.76114 3.07728C2.73486 2.87411 2.76534 2.85543 2.75107 2.88363L1.41257 2.20657C1.22945 2.56857 1.23101 2.941 1.27353 3.2697C1.31473 3.58823 1.41134 3.97361 1.51798 4.40438L2.97402 4.04392ZM2.75109 2.8836C2.7656 2.8549 2.7852 2.82971 2.80849 2.80919L1.81705 1.68357C1.65008 1.83063 1.51288 2.00824 1.41255 2.2066L2.75109 2.8836ZM2.8085 2.80919C2.7822 2.83235 2.78872 2.79897 2.98777 2.77574C3.1979 2.75121 3.48936 2.75 3.9656 2.75V1.25C3.52643 1.25 3.13134 1.24879 2.81384 1.28586C2.48525 1.32422 2.12306 1.41403 1.81704 1.68357L2.8085 2.80919ZM3.9656 2.75H16.5537V1.25H3.9656V2.75ZM16.5537 2.75C19.1405 2.75 21.25 4.86969 21.25 7.5H22.75C22.75 4.05517 19.9827 1.25 16.5537 1.25V2.75ZM21.25 7.5C21.25 10.1303 19.1405 12.25 16.5537 12.25V13.75C19.9827 13.75 22.75 10.9449 22.75 7.5H21.25ZM16.5537 12.25H11.8051V13.75H16.5537V12.25ZM11.8051 12.25C10.9255 12.25 10.6931 12.2372 10.5087 12.1636L9.95315 13.557C10.4695 13.7628 11.0531 13.75 11.8051 13.75V12.25ZM10.5085 12.1636C10.3414 12.097 10.1901 11.9937 10.0658 11.8606L8.96979 12.8848C9.24425 13.1785 9.57989 13.4082 9.95326 13.557L10.5085 12.1636ZM10.0657 11.8606C9.92756 11.7127 9.82829 11.4962 9.50196 10.6723L8.10738 11.2247C8.38708 11.9308 8.59082 12.4793 8.96982 12.8848L10.0657 11.8606ZM9.50196 10.6723L8.96452 9.31547L7.56994 9.86787L8.10738 11.2247L9.50196 10.6723ZM8.96452 9.31548C8.67715 8.58995 8.46705 8.02136 8.04652 7.59668L6.98066 8.65212C7.13502 8.808 7.23571 9.02407 7.56994 9.86786L8.96452 9.31548ZM8.0465 7.59666C7.62506 7.17109 7.05978 6.95804 6.34155 6.66792L5.77975 8.05874C6.61552 8.39634 6.82722 8.49717 6.98068 8.65214L8.0465 7.59666ZM6.34156 6.66792L4.64951 5.98442L4.08769 7.37524L5.77974 8.05874L6.34156 6.66792ZM4.64951 5.98442C3.86756 5.66856 3.66705 5.57437 3.52177 5.43663L2.48971 6.52513C2.88991 6.90459 3.41614 7.10396 4.08769 7.37524L4.64951 5.98442ZM3.5218 5.43665C3.46224 5.38018 3.40828 5.31777 3.36076 5.25032L2.13452 6.11422C2.23906 6.26261 2.35802 6.40026 2.48969 6.52511L3.5218 5.43665ZM3.36076 5.25031C3.24407 5.08468 3.17814 4.86846 2.97402 4.04392L1.51798 4.40438C1.69354 5.11356 1.81745 5.66418 2.13452 6.11423L3.36076 5.25031Z" fill="#D5D2D2"/>
</svg>
