<svg width="29" height="29" viewBox="0 0 29 29" fill="none" xmlns="http://www.w3.org/2000/svg">
<path d="M29 14.5C29 6.49123 22.5088 0 14.5 0C6.49123 0 0 6.49123 0 14.5C0 21.7381 5.29945 27.7367 12.2356 28.8252V18.6951H8.55699V14.5H12.2356V11.306C12.2356 7.67507 14.3967 5.66493 17.7099 5.66493C19.2989 5.66493 20.9594 5.95096 20.9594 5.95096V9.51836H19.1321C17.3285 9.51836 16.7723 10.6386 16.7723 11.7827V14.5H20.7926L20.149 18.6951H16.7723V28.8252C23.7005 27.7367 29 21.7381 29 14.5Z" fill="#3887BE"/>
<path d="M20.1409 18.6952L20.7844 14.5001H16.7642V11.7828C16.7642 10.6387 17.3283 9.51846 19.1239 9.51846H20.9513V5.95107C20.9513 5.95107 19.2907 5.66504 17.7017 5.66504C14.3886 5.66504 12.2275 7.67518 12.2275 11.3061V14.5001H8.54883V18.6952H12.2275V28.8253C12.9664 28.9445 13.7212 29.0001 14.4918 29.0001C15.2625 29.0001 16.0173 28.9365 16.7562 28.8253V18.6952H20.1409Z" fill="white"/>
</svg>
