<svg width="27" height="28" viewBox="0 0 27 28" fill="none" xmlns="http://www.w3.org/2000/svg">
<path d="M26.9997 14.0814C26.9997 12.9488 26.9078 12.1223 26.7089 11.2651H13.7754V16.3772H21.3671C21.2141 17.6477 20.3875 19.5609 18.5508 20.8465L18.525 21.0177L22.6144 24.1856L22.8977 24.2139C25.4996 21.8109 26.9997 18.2752 26.9997 14.0814Z" fill="#3887BE"/>
<path d="M13.7757 27.5508C17.495 27.5508 20.6173 26.3263 22.898 24.2142L18.5511 20.8468C17.3879 21.658 15.8266 22.2243 13.7757 22.2243C10.1329 22.2243 7.04115 19.8214 5.93902 16.5L5.77748 16.5137L1.52533 19.8045L1.46973 19.9591C3.73498 24.459 8.38798 27.5508 13.7757 27.5508Z" fill="#34A853"/>
<path d="M5.93863 16.5C5.64782 15.6429 5.47952 14.7245 5.47952 13.7755C5.47952 12.8265 5.64782 11.9082 5.92333 11.0511L5.91563 10.8685L1.6102 7.5249L1.46933 7.59191C0.535712 9.45925 0 11.5562 0 13.7755C0 15.9949 0.535712 18.0917 1.46933 19.9591L5.93863 16.5Z" fill="#FBBC05"/>
<path d="M13.7757 5.32642C16.3624 5.32642 18.1072 6.44374 19.1021 7.37746L22.9898 3.58158C20.6022 1.36223 17.495 0 13.7757 0C8.38798 0 3.73498 3.09177 1.46973 7.59167L5.92373 11.0508C7.04116 7.72947 10.1329 5.32642 13.7757 5.32642Z" fill="#EB4335"/>
</svg>
