<svg width="36" height="33" viewBox="0 0 36 33" fill="none" xmlns="http://www.w3.org/2000/svg">
<rect y="0.5" width="36" height="32" rx="16" fill="#271245"/>
<path d="M8.52992 19.2696C8.31727 20.6636 9.268 21.6312 10.4321 22.1134C14.8948 23.9622 21.1052 23.9622 25.5679 22.1134C26.732 21.6312 27.6827 20.6636 27.4701 19.2696C27.3394 18.4129 26.6932 17.6995 26.2144 17.0029C25.5873 16.0793 25.525 15.0718 25.5249 14C25.5249 9.85786 22.1559 6.5 18 6.5C13.8441 6.5 10.4751 9.85786 10.4751 14C10.475 15.0718 10.4127 16.0793 9.78561 17.0029C9.30684 17.6995 8.66061 18.4129 8.52992 19.2696Z" stroke="white" stroke-width="1.5" stroke-linecap="round" stroke-linejoin="round"/>
<path d="M14 23.5C14.4585 25.2252 16.0755 26.5 18 26.5C19.9245 26.5 21.5415 25.2252 22 23.5" stroke="white" stroke-width="1.5" stroke-linecap="round" stroke-linejoin="round"/>
</svg>
