<svg width="22" height="22" viewBox="0 0 22 22" fill="none" xmlns="http://www.w3.org/2000/svg">
<path d="M14.5 10.9998C14.5 12.9328 12.933 14.4998 11 14.4998C9.067 14.4998 7.5 12.9328 7.5 10.9998C7.5 9.06682 9.067 7.49982 11 7.49982C12.933 7.49982 14.5 9.06682 14.5 10.9998Z" stroke="#D5D2D2" stroke-width="1.5" stroke-linecap="round"/>
<path d="M20.011 13.0963C20.5329 12.9556 20.7939 12.8852 20.8969 12.7506C21 12.6161 21 12.3996 21 11.9667V10.033C21 9.60012 21 9.38362 20.8969 9.24912C20.7938 9.11452 20.5329 9.04412 20.011 8.9034C18.0606 8.37741 16.8399 6.33833 17.3433 4.40069C17.4817 3.86781 17.5509 3.60138 17.4848 3.44511C17.4187 3.28884 17.2291 3.18116 16.8497 2.96578L15.125 1.98655C14.7528 1.77521 14.5667 1.66954 14.3997 1.69204C14.2326 1.71454 14.0442 1.90255 13.6672 2.27855C12.208 3.7343 9.7936 3.73424 8.33434 2.27846C7.95743 1.90245 7.76898 1.71445 7.60193 1.69194C7.43489 1.66944 7.24877 1.77511 6.87653 1.98645L5.15184 2.96569C4.77253 3.18105 4.58287 3.28873 4.51678 3.44497C4.45068 3.60122 4.51987 3.86769 4.65825 4.40062C5.16137 6.33832 3.93972 8.37745 1.98902 8.90342C1.46712 9.04412 1.20617 9.11452 1.10308 9.24902C1 9.38362 1 9.60012 1 10.033V11.9667C1 12.3996 1 12.6161 1.10308 12.7506C1.20615 12.8852 1.46711 12.9556 1.98902 13.0963C3.9394 13.6223 5.16008 15.6614 4.65672 17.599C4.51829 18.1319 4.44907 18.3983 4.51516 18.5546C4.58126 18.7109 4.77092 18.8186 5.15025 19.0339L6.87495 20.0132C7.24721 20.2245 7.43334 20.3302 7.6004 20.3077C7.76746 20.2852 7.95588 20.0971 8.33271 19.7211C9.7927 18.2642 12.2088 18.2641 13.6689 19.721C14.0457 20.0971 14.2341 20.2851 14.4012 20.3076C14.5682 20.3301 14.7544 20.2244 15.1266 20.0131L16.8513 19.0338C17.2307 18.8185 17.4204 18.7108 17.4864 18.5545C17.5525 18.3982 17.4833 18.1318 17.3448 17.5989C16.8412 15.6614 18.0609 13.6224 20.011 13.0963Z" stroke="#D5D2D2" stroke-width="1.5" stroke-linecap="round"/>
</svg>
