<svg width="22" height="20" viewBox="0 0 22 20" fill="none" xmlns="http://www.w3.org/2000/svg">
<path d="M16.4776 7.01106C16.485 7.01102 16.4925 7.01101 16.5 7.01101C18.9853 7.01101 21 9.0294 21 11.5193C21 13.8398 19.25 15.7508 17 16M16.4776 7.01106C16.4924 6.84606 16.5 6.67896 16.5 6.51009C16.5 3.46695 14.0376 1 11 1C8.12324 1 5.76233 3.21267 5.52042 6.03192M16.4776 7.01106C16.3753 8.1476 15.9286 9.1846 15.2428 10.0165M5.52042 6.03192C2.98398 6.27373 1 8.4139 1 11.0183C1 13.4417 2.71776 15.4632 5 15.9273M5.52042 6.03192C5.67826 6.01687 5.83823 6.00917 6 6.00917C7.12582 6.00917 8.16474 6.38194 9.0005 7.01101M11 11V19M11 11C10.2998 11 8.99153 12.9943 8.5 13.5M11 11C11.7002 11 13.0085 12.9943 13.5 13.5" stroke="#D5D2D2" stroke-width="1.5" stroke-linecap="round" stroke-linejoin="round"/>
</svg>
